<?xml version="1.0" encoding="UTF-8"?>
<svg id="Layer_1" data-name="Layer 1" xmlns="http://www.w3.org/2000/svg" viewBox="0 0 68.12 76.6">
  <g id="_2OD6RD" data-name="2OD6RD">
    <g>
      <path d="M68.01,51.48c-.24-.89-.37-1.81-.48-2.72-.22-1.72-.37-3.46-.6-5.18-.15-1.09-.29-2.16-.16-3.26,.05-.43-.05-.89-.17-1.31-.06-.2-.08-.32,0-.53,.24-.68,.42-1.4-.1-2.03-.22-.27-.29-.53-.34-.86-.13-.97-.39-1.89-1.34-2.42-.05-.03-.1-.13-.1-.2,0-.69-.05-.75-.72-.92-1.2-.32-2.4-.65-3.61-.96-.77-.2-1.54-.36-2.31-.54-.01,.04-.02,.08-.04,.12,1.99,.59,4.09,.88,5.97,2.04-2.32,.05-4.32-1.15-6.65-1.38,1.99,.62,3.86,1.19,5.81,1.79-1.48,.58-2.75-.29-4.1-.34,.68,.25,1.38,.43,2.07,.67,.74,.25,1.47,.35,2.3-.05-.59,.84-1.35,1.34-2.15,1.66-.78,.32-1.66,.39-2.48,.57,1.83,.31,3.34-.52,4.81-1.49-.9,1.44-2.32,1.93-3.87,2.2,1.07,.3,1.97-.18,2.9-.56-.05,.12-.1,.23-.19,.28-1.15,.63-2.27,1.33-3.47,1.83-.58,.25-1.31,.13-1.97,.18,0-.05,0-.09-.01-.14,.68-.17,1.35-.34,2.03-.5,0-.02-.01-.04-.02-.07-.85-.1-1.69-.21-2.54-.31v-.1c.07-.01,.13-.02,.21-.04-.48-.11-.91-.21-1.34-.31,0-.03,.01-.07,.02-.1,1.02,.13,2.03,.26,3.05,.13,0-.05,.02-.1,.03-.15-.97-.27-1.93-.53-2.9-.8,0-.04,.02-.07,.03-.11,.85,.11,1.7,.4,2.57,.08-1.21-.33-2.44-.58-3.54-1.2,.36,.05,.71,.15,1.06,.22,.36,.08,.71,.15,1.07,.2,.34,.04,.68,.09,1.01-.08-1.38-.18-2.62-.66-3.7-1.56,.95,.47,1.91,.85,2.99,.8-.09-.07-.19-.11-.28-.14-.77-.3-1.54-.59-2.3-.91-.15-.06-.26-.21-.39-.32,.03-.04,.05-.07,.08-.11,.65,.28,1.31,.53,2.03,.48-.54-.23-1.1-.41-1.64-.62-.12-.05-.27-.23-.25-.34,.06-.64,.17-1.27,.27-1.94,.17,0,.37,0,.56,0,.84-.04,1.4-.62,1.6-1.4,.38-1.44,.84-2.87,1.27-4.3,.06-.2,.18-.27,.38-.14,.6,.39,1.22,.75,1.79,1.17,.79,.57,1.66,.99,2.59,1.25,.18,.05,.38,0,.56,0l.04-.17c-.64-.33-1.26-.71-1.93-.98-1.23-.51-2.44-1.06-3.46-1.93-.09-.08-.22-.13-.33-.18-.33-.14-.73,.02-.85,.36-.39,1.09-.78,2.18-1.15,3.28-.29,.86-.34,.9-1.24,.91-.23,0-.32-.07-.38-.29-.37-1.49-1.19-2.71-2.32-3.72-1.84-1.64-3.94-2.54-6.45-2.3-.46,.04-.92,.13-1.41,.2,2.19-1.91,4.96-2.38,7.54-3.3-.14,0-.28,.03-.41,.06-.53,.14-1.05,.31-1.58,.42-2.24,.45-4.26,1.35-6.05,2.77-.41,.33-.91,.55-1.37,.82-.03-.04-.05-.08-.08-.11l4.04-3.92s-.06-.06-.09-.09c-.05,.03-.1,.05-.14,.09-1.35,1.28-2.71,2.55-4.03,3.87-.54,.54-1.03,1.12-1.77,1.53,.07-.17,.11-.27,.15-.37-.04-.03-.08-.05-.12-.08-.26,.37-.53,.73-.82,1.14v-.97c-.57,.58-.5,1.34-.84,1.92-.26-.98,.28-1.82,.48-2.71-.06,.04-.1,.08-.12,.13-.66,1.1-.87,2.32-.92,3.58-.02,.39-.1,.78-.16,1.22-.33-.17-.57-.31-.82-.42-.22-.1-.29-.25-.27-.5,.12-1.5,.18-3,.84-4.4-.93,1.4-.87,3.03-1.01,4.6-.31,.03-.49-.03-.4-.38,.04-.15,.03-.31,.04-.46,.05-2.34,.44-4.63,1-6.89,.65-2.63,1.37-5.25,2.07-7.87,.06-.22,.18-.42,.27-.63,0,0,0-.02,0-.02,.12-.19,.25-.38,.34-.58,.47-1,.91-2.02,1.4-3.01,.37-.77,.8-1.52,1.2-2.28,.06,.03,.13,.06,.19,.08-2.4,4.26-4.13,8.77-4.91,13.61,.06-.06,.1-.13,.13-.21,.45-1.18,.87-2.36,1.36-3.52,.23-.55,.63-1.02,.88-1.57,.84-1.86,1.64-3.74,2.48-5.6,.36-.8,.78-1.56,1.21-2.43,.02,.14,.04,.17,.03,.19-.75,1.6-1.5,3.19-2.24,4.79-.61,1.31-1.17,2.63-1.81,3.92-.61,1.24-.98,2.55-1.2,3.91,.09-.14,.16-.29,.21-.45,.23-.61,.41-1.26,.7-1.84,.68-1.35,1.42-2.67,2.12-4.01,.82-1.58,1.61-3.17,2.41-4.76,.07-.14,.15-.26,.23-.39-1.03,3.43-3.15,6.34-4.45,9.63,.25-.33,.49-.67,.7-1.03,.69-1.23,1.35-2.49,2.07-3.7,.46-.78,1-1.52,1.53-2.26,.12-.17,.32-.28,.49-.41-.87,1.56-1.89,3-2.56,4.63,.35-.41,.67-.86,.99-1.3,1.13-1.55,2.29-3.09,3.37-4.67,.5-.73,1.02-1.43,1.67-2.04,.26-.24,.44-.57,.64-.87,.26-.38,.46-.82,.79-1.13,.8-.78,1.5-1.62,2.01-2.62,.06-.12,0-.29,0-.44-.12,.07-.26,.12-.35,.22-.58,.66-1.11,1.38-1.73,1.99-.66,.66-1.29,1.32-1.68,2.18-.06,.14-.18,.27-.27,.4,0-.25,.08-.48,.19-.67,.41-.72,.83-1.42,1.23-2.15,.05-.1-.02-.26-.03-.4-.11,.05-.27,.06-.34,.15-.87,1.02-1.59,2.13-1.93,3.45-.17,.65-.39,1.28-.58,1.92,.24-1.68,.79-3.27,1.41-4.86-.21,.06-.4,.13-.49,.27-.25,.37-.5,.75-.67,1.16-.48,1.21-.91,2.44-1.36,3.66-.04,.11-.1,.22-.16,.32-.04-.02-.07-.03-.11-.05,.07-.21,.14-.42,.21-.62,.49-1.46,.99-2.91,1.47-4.38,.03-.09-.11-.24-.17-.36-.1,.07-.22,.13-.29,.22-.25,.35-.43,.76-.72,1.06-.2,.21-.53,.3-.84,.47,.09-.21,.17-.4,.26-.59-.03-.03-.06-.07-.09-.1-.3,.22-.6,.45-.91,.67-.03-.03-.07-.06-.1-.09,.18-.27,.36-.55,.54-.82-.04-.04-.07-.09-.11-.13-.49,.31-.97,.62-1.49,.95q.2-1.07,.11-1.12c-.21,.28-.42,.57-.63,.85-.04-.02-.08-.05-.11-.07-.04-.14-.07-.29-.12-.49-.3,.26-.56,.48-.83,.71-.02-.03-.05-.05-.07-.08,.06-.2,.11-.4,.2-.73-.29,.11-.47,.17-.63,.26-.17,.09-.31,.22-.46,.34-.03-.02-.07-.04-.1-.06,.08-.19,.17-.39,.23-.58,.03-.09,0-.2,0-.3-.1,0-.24-.03-.31,.02-.15,.1-.26,.24-.39,.38-.12,.12-.22,.26-.34,.39-.05-.02-.1-.05-.14-.07,.09-.28,.18-.56,.27-.84,.05-.16,.1-.32,.15-.48-.15,.1-.32,.17-.44,.29-.13,.12-.21,.29-.32,.44-.14,.19-.29,.39-.45,.59-.52-.4,.1-.83-.18-1.29-.27,.32-.51,.6-.75,.89l-.1-.04v-.79s-.06-.01-.09-.02c-.1,.21-.21,.43-.37,.76v-.86c-.35,.44-.65,.82-.95,1.2-.08-.44-.16-.9-.24-1.36-.05,0-.09,0-.14,.01-.14,.43-.29,.86-.45,1.34-.07-.12-.11-.18-.14-.23-.15,.13-.3,.25-.44,.37-.63-.28-.46-1.02-.92-1.51-.07,.59-.12,1.08-.19,1.66-.35-.59-.64-1.07-.93-1.55l-.11,.03c.04,.34,.09,.69,.14,1.11-.21-.25-.36-.43-.51-.61-.03,.02-.06,.03-.1,.05-.01,.22-.03,.44-.04,.72-.28-.4-.52-.74-.76-1.09-.04,.02-.07,.03-.11,.05-.02,.43-.05,.86-.07,1.29-.05,0-.09,0-.14,0-.36-.48-.51-1.13-1.08-1.48-.02,.14,0,.27,.05,.38,.1,.23,.21,.46,.31,.69,.11,.25,.03,.4-.26,.41-.17-.24-.32-.47-.51-.68-.07-.08-.21-.08-.32-.12-.02,.11-.07,.23-.05,.33,.04,.18,.12,.35,.19,.52-.02,.02-.05,.04-.07,.06-.3-.17-.6-.34-1-.57,.08,.32,.13,.5,.18,.7-.67,.17-.45-.72-.96-.8v.86c-.53-.1-.55-.65-.87-.9-.05,.02-.1,.03-.14,.05,.07,.31,.13,.63,.2,.94-.53-.06-.71-.82-1.39-.76,.18,.34,.33,.61,.47,.88-.03,.03-.07,.05-.1,.08-.35-.25-.69-.5-1.04-.75-.04,.03-.08,.07-.12,.1,.12,.23,.24,.46,.38,.75-.12-.07-.22-.09-.27-.16-.42-.48-.83-.97-1.26-1.45-.08-.09-.19-.16-.29-.24-.04,.12-.08,.25-.1,.37-.01,.06,.02,.14,.04,.2,.34,1.02,.7,2.04,1.02,3.07,.16,.51,.27,1.03,.4,1.54,.02,.08,0,.16-.01,.24-.11-.14-.15-.29-.19-.43-.48-1.58-.95-3.17-1.79-4.6-.11-.2-.31-.34-.48-.51-.05,.03-.1,.07-.15,.1,.28,.77,.58,1.54,.83,2.32,.25,.78,.44,1.57,.66,2.36-.81-1.87-1.14-3.97-2.76-5.45-.23,.23-.26,.43-.08,.68,.18,.25,.36,.5,.5,.77,.32,.59,.62,1.19,.92,1.78-.04,.02-.08,.04-.12,.06-.14-.26-.29-.5-.41-.77-.33-.7-.8-1.27-1.36-1.79-.68-.64-1.3-1.34-1.95-2.02-.09-.09-.19-.18-.29-.27-.04,.03-.09,.05-.13,.08,.11,.26,.21,.54,.35,.79,.84,1.46,2.32,2.44,3.02,4.01,1.24,1.08,2.04,2.52,3.04,3.8,.64,.81,1.19,1.7,1.78,2.55,.23,.33,.46,.67,.7,1,.23,.31,.48,.61,.73,.92,.04-.03,.07-.05,.11-.08-.89-1.49-1.78-2.98-2.67-4.47,.03-.03,.05-.05,.08-.08,.24,.25,.55,.46,.72,.75,.87,1.45,1.71,2.92,2.54,4.4,.46,.82,.89,1.67,1.56,2.35-1.53-3.31-3.42-6.46-4.69-9.9,.24,.32,.44,.67,.62,1.03,.17,.34,.29,.7,.46,1.03,1.2,2.3,2.42,4.58,3.6,6.89,.37,.73,.62,1.52,.92,2.28,.05,.14,.1,.27,.15,.41,.08-.15,.1-.29,.06-.42-.34-1.02-.65-2.05-1.06-3.05-.62-1.51-1.3-3-1.97-4.5-.31-.69-.61-1.38-.94-2.06-.37-.79-.77-1.57-1.15-2.36,.03-.02,.07-.03,.1-.05,.39,.74,.8,1.47,1.16,2.23,.86,1.85,1.71,3.71,2.53,5.58,.58,1.33,1.11,2.69,1.67,4.03,.09,.22,.22,.44,.33,.65-.03-1.51-2.52-9.61-2.99-10,.09,.27,.18,.52,.27,.78-.02,0-.04,0-.05,.01l-1.75-3.97c.09,.03,.13,.08,.16,.14,.8,1.44,1.67,2.84,2.18,4.43,.37,1.17,.95,2.28,1.27,3.47,.7,2.59,1.32,5.21,1.94,7.82,.43,1.82,.66,3.67,.72,5.53,.01,.39-.12,.61-.54,.66,.24-1.53,.01-3-.48-4.43,.4,1.35,.45,2.73,.36,4.12-.03,.48-.24,.7-.74,.8,.34-.91,.23-1.83,.14-2.74h-.19s0,2.86,0,2.86c-.05,0-.1,.02-.14,.03-.07-.14-.18-.27-.2-.42-.05-.36-.09-.72-.07-1.08,.08-1.37-.44-2.54-1.17-3.64,.16,.53,.38,1.04,.57,1.56,.19,.52,.33,1.05,.19,1.69-.31-.76-.59-1.46-.88-2.15-.05,.02-.1,.03-.14,.05,.05,.32,.09,.64,.14,.96-.04,.02-.07,.03-.11,.05-.24-.48-.48-.96-.76-1.52-.04,.25-.06,.39-.1,.68-.55-.51-1.03-.92-1.47-1.37-.4-.41-.71-.91-1.13-1.3-1.03-.94-2.1-1.84-3.16-2.76-.06-.06-.14-.09-.21-.14,1.08,1.65,2.96,2.49,4.09,4.18-1.59-.9-3.08-1.84-4.66-2.61-1.57-.77-3.22-1.37-5.02-1.36,2.84,.48,5.36,1.75,7.87,3.27-2.34-.58-4.46-.26-6.47,.9-2.04,1.18-3.28,2.95-3.95,5.17-.34-.03-.65-.03-.94-.1-.15-.03-.36-.16-.4-.29-.41-1.25-.81-2.5-1.17-3.77-.08-.28-.19-.39-.47-.43-.52-.08-.82,.26-1.21,.5-1.01,.62-2.08,1.16-3.13,1.71-.61,.33-1.24,.63-1.86,.95,0,.04,0,.09,0,.13,.2,.02,.42,.12,.6,.06,.51-.16,1.03-.3,1.48-.57,.98-.6,1.91-1.27,2.87-1.91,.11-.07,.23-.13,.39-.22,.14,.55,.27,1.04,.4,1.52,.29,1.08,.58,2.16,.88,3.24,.17,.62,.53,1.06,1.17,1.19,.35,.07,.71,.06,1.06,.08,.04,.49,.06,1.01,.12,1.52,.09,.84,.09,.83-.72,1.06-.39,.11-.78,.22-1.18,.34,.01,.06,.03,.11,.04,.17,.7-.17,1.39-.33,2.09-.5,.02,.05,.04,.1,.06,.15-.38,.35-.91,.4-1.37,.6-.49,.21-.99,.38-1.49,.57,.15,.06,.31,.1,.46,.06,.59-.17,1.17-.37,1.76-.55,.24-.08,.47-.16,.71-.25,.01,.04,.03,.08,.04,.12-1.21,.57-2.36,1.29-3.8,1.38,.07,.09,.09,.15,.13,.16,1.04,.21,1.94-.38,2.92-.51,.01,.05,.03,.1,.04,.15-1.14,.37-2.27,.75-3.43,1.13,.91,.27,1.79,.05,2.67-.18-1.01,.67-2.18,.79-3.34,.94,1.11,.42,2.24,.33,3.37,.1-1.25,.54-2.54,.83-3.92,.57,.85,.38,1.7,.75,2.67,.58-.81,.42-1.68,.48-2.48,.16-.88-.35-1.69-.88-2.5-1.36-.34-.2-.63-.5-.94-.76,1.93,.86,2.14,.75,2.74,.62-.66-.24-1.41-.45-2.1-.77-.85-.38-1.42-1.02-1.56-1.5,.66,.38,1.36,.85,2.11,1.19,.79,.36,1.87,.39,2.39,.21-.72-.14-1.5-.24-2.24-.46-.77-.23-1.31-.81-1.86-1.49,1.46,.22,2.66-.35,3.88-.82-.61,.12-1.21,.31-1.82,.46-.62,.15-1.25,.19-1.89-.07,1.84-.61,3.67-1.21,5.63-1.86-.22,.02-.32,0-.42,.04-1.1,.32-2.21,.63-3.3,.98-.93,.29-1.87,.42-2.84,.36l-.04-.17,6.07-2.01c-2.02,.48-4.01,1-6.01,1.53-.33,.09-.64,.24-.98,.36,.16,.25,.28,.43,.41,.63-.57,.22-.95,.59-1.14,1.14-.04,.13-.16,.23-.22,.35-.11,.25-.28,.5-.29,.76-.02,.52-.02,.99-.42,1.42-.17,.17-.12,.58-.1,.88,.01,.23,.13,.46,.18,.69,.03,.13,.05,.3,0,.4-.42,.73-.35,1.51-.26,2.29,.05,.4,.09,.81,.04,1.21-.15,1.35-.39,2.69-.51,4.04-.17,1.86-.36,3.71-.9,5.5-.09,.3-.11,.64-.05,.95,.22,1.19,1.01,1.95,2,2.57-.21,.87-.36,1.74,.22,2.54,.53,.73,1.13,1.39,2.09,1.58-.02,.13-.04,.25-.06,.37-.08,.47-.25,.94-.22,1.4,.06,1.05,1.31,2.36,2.37,2.57,.23,.05,.46,.08,.7,.12-.12,1.04,.44,1.71,1.16,2.3,.72,.59,1.49,1.04,2.38,.95,.16,.44,.21,.88,.44,1.17,.37,.45,.83,.83,1.31,1.16,.56,.38,1.19,.61,1.91,.5,.09-.01,.25,.14,.3,.25,.62,1.32,2.18,2.2,3.61,2.03,.1-.01,.27,.03,.31,.1,.49,.84,1.3,1.25,2.14,1.62,.54,.23,1.11,.32,1.68,.14,.35-.11,.54-.01,.75,.25,.73,.94,2.94,1.69,4.24,.84,1.39,1.3,2.96,1.4,4.68,.75,1.3,1.09,3.9,.92,4.65-.2,1.6,.87,3.55,.53,4.17-.55,.46,.12,.89,.34,1.33,.34,1.1,0,2.1-.31,2.79-1.27,.08-.1,.29-.21,.39-.18,1.42,.43,3.31-.36,3.92-1.67,.04-.09,.21-.2,.3-.18,1.28,.25,2.31-.26,3.2-1.1,.31-.29,.47-.73,.71-1.13,.88,.08,1.71-.17,2.43-.74,.7-.56,1.3-1.2,1.33-2.17,2.01,.04,3.44-1.19,3.74-3.21,1.09-.11,1.95-.61,2.62-1.49,.75-.98,.29-2.01,.12-3.02,.09-.04,.14-.06,.19-.07,1.57-.51,2.46-1.93,2.25-3.57-.01-.11,.06-.26,.13-.36,.42-.52,.89-1.01,1.29-1.55,.5-.68,.62-1.41,.39-2.26Zm-12-23.92c.38-.99,.71-2,1.08-2.99,.11-.29,.26-.56,.39-.84,.05,.02,.1,.04,.16,.06-.51,1.51-1.02,3.02-1.52,4.53-.21-.21-.23-.45-.11-.76Zm.08,1.02c0,.35-.11,.74-.47,.86-.36,.12-.79,.13-1.17,.06-.11-.02-.14-.47-.22-.73,.67-.07,1.25-.13,1.85-.19Zm-16.67-15.04s-.06-.01-.09-.02c.17-.52,.35-1.04,.52-1.56,.03,0,.06,.02,.08,.03-.17,.52-.34,1.04-.51,1.55Zm1.52-3.89c.22-1.05,1.53-3.76,2.13-4.44-.73,1.53-1.43,2.99-2.13,4.44Zm-12.93,1.82c.2,.46,.4,.93,.59,1.39-.04,.01-.07,.02-.11,.03-.19-.46-.39-.92-.58-1.38,.03-.01,.07-.03,.1-.04Zm-.7-1.75c-.72-1.47-1.44-2.95-2.16-4.42,.95,1.36,1.68,2.83,2.16,4.42ZM10.56,23.83c.07-.02,.15-.04,.22-.06,.19,.53,.38,1.07,.56,1.6,.27,.81,.53,1.62,.77,2.43,.04,.13-.03,.3-.05,.46-.05,0-.11,0-.16,0-.44-1.48-.89-2.95-1.33-4.43Zm3.14,5.56c-.41,.05-.86,.07-1.25-.04-.38-.1-.41-.51-.43-.79,.61,.07,1.2,.13,1.88,.2-.06,.22-.1,.62-.2,.63Zm52.31,7.66s.07,0,.11,0c.16,.52,.14,1.04,.04,1.56-.05,0-.1,0-.15,0v-1.57Zm.13,3.85c-.06,.49-.17,.98-.26,1.47-.43-1.02-.36-2.05,0-3.16,.46,.57,.33,1.15,.27,1.7Zm-1.69-7.02c.04-.07,.3-.11,.36-.06,.2,.18,.36,.41,.61,.72-.5,.11-.9,.2-1.41,.32,.17-.41,.28-.71,.44-.98Zm1.06,1.23c.06,.26,.11,.51,.17,.75,.09,.32-.01,.49-.36,.55-.77,.13-1.53,.28-2.3,.43-.03-1.02,1.1-1.8,2.49-1.73Zm-1.32,1.99c.44-.06,.88-.16,1.32-.25v1.96h-3.76c.16-.2,.35-.38,.46-.61,.42-.81,1.17-.99,1.98-1.1Zm-1.61,12.75s-.07-.02-.11-.03c-.05-1.15-.2-2.3,.16-3.43,.11-.35,.29-.69,.48-1.02,.07-.12,.27-.27,.38-.25,.12,.02,.26,.21,.3,.36,.23,.83,.41,1.63-.26,2.4-.36,.42-.52,1.01-.76,1.53-.07,.14-.12,.29-.18,.43Zm.54,8.41c-.06,0-.13,.01-.19,.02-.23-2.29-.97-4.54-.57-6.89,.06,0,.13-.01,.19-.02,.19,2.3,.38,4.59,.57,6.89Zm.68-14.88c-.05,.4-.01,.81-.01,1.23-.79-.09-1.53-.19-2.28-.25-.77-.06-1.54-.07-2.31-.11-.35-.02-.71-.06-.9,.35-.03,.07-.15,.1-.14,.09,1.4,.07,2.88,.14,4.45,.22-.69,.91-.84,1.88-.8,2.89-.69-.11-1.36-.24-2.03-.33-1.65-.21-3.31-.37-4.95-.62-.82-.12-1.61-.4-2.41-.61,0-.06,0-.11,0-.17,.21-.09,.41-.19,.63-.26,.88-.29,1.75-.57,2.69-.58,.6,0,1.2-.15,1.8-.23,0-.06-.01-.11-.02-.17h-2.04c.16-.12,.25-.21,.36-.27,1.06-.5,1.81-1.39,2.71-2.1,.22-.17,.51-.37,.76-.37,1.6,0,3.19,.06,4.78,.1-.11,.43-.25,.8-.29,1.19Zm-4.08,10.61c-.11-1.58-.39-3.08,.52-4.42,.15-.22,.48-.47,.71-.45,.4,.02,.7,.33,.79,.76,.18,.9,0,1.76-.45,2.54-.26,.45-.65,.83-1.01,1.23-.12,.13-.31,.2-.57,.35Zm.27,6.63c-.59-1.84-.89-3.71-.37-5.63,.32,1.86,.34,3.74,.37,5.63Zm1.19-11.96c-.33-.19-.67-.19-.98,.06-.74,.58-1.12,1.34-1.16,2.28-.01,.33,0,.66,0,.97-3.97-1.37-7.86-2.71-11.75-4.06,1.36-.45,2.68-.54,3.94,.3,.02-.05,.05-.11,.07-.16-.18-.13-.36-.28-.55-.4-.2-.12-.41-.22-.73-.39,.24-.16,.4-.31,.58-.38,.65-.23,1.32-.2,1.99-.06,1.61,.35,3.22,.72,4.85,1,1.21,.21,2.45,.28,3.67,.41,.68,.07,.79,.19,.73,.88-.23-.15-.44-.31-.67-.44Zm-9.26,13.5v2.25c-.38-.48-.45-1.82,0-2.25Zm-.22,3.16c-.34-.82-.96-1.57-.87-2.52,.05-.01,.09-.03,.14-.04,.24,.85,.49,1.71,.73,2.56Zm-.15-3.78c-.35,.3-.77,.56-1.21,.7-.66,.21-.78,.07-.75-.4,.04-1.41,.54-2.43,1.25-3.35,.34-.44,.64-.49,1.15-.31,.45,.16,.5,.54,.48,.93-.05,.91-.18,1.81-.92,2.44Zm-5.41,2.58c-.18-.01-.36-.05-.52-.12-.25-.1-.37-.27-.22-.56,.47-.88,.91-1.78,1.4-2.65,.22-.39,.68-.49,1.19-.36,.42,.11,.56,.42,.61,.81,.01,.11,.01,.22,.02,.28,0,1.48-1.16,2.68-2.48,2.61Zm2.37,2.44s-.05,.02-.07,.03c-.18-.75-.35-1.5-.53-2.25,.17-.08,.3-.13,.44-.2,.05,.82,.11,1.62,.16,2.42Zm-6.95-1.01c-.62-.16-.79-.51-.5-1.07,.36-.68,.71-1.36,1.14-1.99,.48-.71,.81-.81,1.38-.62,.59,.2,.91,.72,.91,1.45-.01,1.43-1.53,2.58-2.94,2.22Zm2.38,3.66c-.14-1.12-.29-2.24-.43-3.36,0-.03,.1-.08,.28-.21,.05,1.26,.1,2.41,.15,3.57Zm-7.07-6.22c-.02-.07-.06-.13-.07-.2-.13-1.67-.74-3.27-.67-4.98,.05-1.15-.16-2.31-.26-3.47-.04-.46-.07-.92-.1-1.38-.01-.19-.08-.4,.23-.45,.32-.05,.31,.19,.37,.38,.73,2.45,1.45,4.91,2.2,7.35,.23,.74,.55,1.46,.86,2.27-.85,.03-1.57,.14-2.08,.89,.23-.08,.41-.15,.59-.2,1.05-.3,1.76,.04,1.99,.95,.27,1.05-.29,2.04-1.29,2.22-.46,.08-.94,.09-1.44,.13-.01-.11-.03-.14-.02-.17,.52-1.18,.1-2.27-.31-3.36Zm-.16,2.1v1.04s-.07,0-.11,0v-1.04s.07,0,.11,0Zm-17.32-4.18c.16-.44,.45-.62,.89-.57,.44-.07,.76,.16,.98,.47,.32,.45,.6,.94,.85,1.44,.16,.31,.22,.66,.33,.99,.18,.54,0,.81-.59,.86-1.54,.13-2.98-1.74-2.46-3.18Zm.45,4.98v-1.88c.61,.61,.15,1.25,0,1.88Zm-4.48-6.71c.04-.35-.05-.77,.34-.98,.43-.23,1.1-.07,1.47,.31,.74,.77,1.05,1.74,1.26,2.75,.01,.05,0,.11,.02,.17,.1,.77-.19,1.01-.96,.81-1.11-.3-2.13-1.77-2.12-3.05Zm.99,4.74s-.1,0-.15,0c.03-.51,.05-1.01,.08-1.52h.13c.17,.52-.04,1.02-.07,1.52Zm-3.49-3.94s.07,.01,.11,.02c.03,.94-.18,1.83-.5,2.73v-3.26s.09,0,.13,0v1.98c.08-.45,.17-.96,.26-1.47Zm-.14-1.28c-.48-.81-.71-1.68-.5-2.61,.14-.62,.61-.8,1.14-.45,.82,.53,1.08,1.39,1.26,2.28,.05,.26,.04,.53,.06,.79,0,.15,0,.31,0,.46,0,.53-.12,.65-.65,.54-.6-.12-1.02-.51-1.32-1.02ZM3.76,41.76c-.36,0-.49-.07-.49-.49,0-.65-.12-1.3-.19-1.9,1.06,0,2.17-.03,3.27,.02,.22,0,.54,.26,.61,.47,.25,.73,.85,.99,1.45,1.3,.22,.11,.4,.3,.59,.45-.02,.05-.04,.1-.06,.14-.37,0-.74,0-1.11,0-1.36,0-2.72,0-4.08,0Zm.14,1.53c-.02,.82-.11,1.63-.18,2.44,0,.06-.07,.11-.11,.17-.07-.02-.09-.02-.1-.03-.59-.59-.92-2.52-.56-3.25,.17-.35,.4-.4,.62-.08,.16,.22,.33,.5,.33,.75Zm9.9-.63c.46,.06,.91,.12,1.37,.18,.1,.01,.2,.06,.35,.1-1.47,.49-5.23-.55-5.88-1.62,1.45,0,2.84,.08,4.05,.91-.01,.04-.02,.08-.03,.12-.2-.06-.41-.11-.63-.18,.13,.41,.45,.44,.77,.49Zm-.99-1.16c-1.34-.3-2.77-.23-4-1-.46-.29-.89-.61-1.29-.95,.94,.3,1.88,.61,2.82,.89,.67,.2,1.36,.33,2.02,.53,.2,.06,.37,.25,.55,.38-.03,.05-.07,.09-.1,.14Zm-3.78,.78c.14,0,.29,.09,.41,.17,.32,.23,.61,.49,.93,.72,.57,.41,1.15,.81,1.79,1.26-.81,.16-1.58,.28-2.48,.05,.23-.09,.35-.13,.47-.18,0-.04,0-.07-.01-.11-1.86,.12-3.71,.23-5.55,.35-.11-.74-.23-1.54-.37-2.4,1.57,.04,3.19,.08,4.81,.13Zm-4.64,3.36c.12-.41,.41-.49,.7-.17,.15,.16,.25,.37,.34,.57,.37,.9,.4,1.86,.35,2.81-.01,.2-.11,.4-.2,.7-.38-.67-.73-1.24-1.03-1.83-.34-.66-.37-1.37-.16-2.08Zm1.1,5.66c.05,0,.11,0,.16,0,.06,.34,.21,.68,.17,1.01-.19,1.67-.43,3.33-.65,4.99-.01,.09-.06,.19-.17,.27,.16-2.09,.32-4.18,.48-6.26Zm.12-6.37c1.59-.04,3.1-.42,4.66-.02,.52,.13,1.12,.11,1.66,.01,.58-.11,.95,.15,1.44,.48-.36,.06-.64,.11-.93,.15,1.19-.24,2.22,.15,3.21,.73,0,.07,0,.13,0,.2-.87,.19-1.73,.46-2.61,.55-2.05,.2-4.07,.6-6.07,1.08-.17,.04-.34,.12-.58,.2-.04-1.15-.07-2.31-.79-3.38Zm14.61,.25c.65-.17,1.3-.34,1.95-.5,0,.04,.02,.08,.03,.11-.65,.17-1.3,.34-1.95,.51-.01-.04-.02-.08-.03-.12Zm.01,.4c-.21,.08-.42,.19-.64,.24-.69,.14-1.39,.27-2.08,.37-.1,.01-.23-.15-.35-.25,.79-.1,1.58-.19,2.37-.3,.23-.03,.45-.1,.71-.06Zm-2.48,.12c-.2,.07-.4,.15-.6,.23,0,0,0,0,0,0-.28,.07-.56,.14-.94,.24,.71-.6,5.19-2.1,6.05-2.04-1.54,.54-3.02,1.06-4.5,1.58Zm-1.01,1.03l-1.15,.16s-.02-.09-.02-.13c.38-.06,.76-.13,1.14-.19,.01,.05,.02,.11,.03,.16Zm.35-1.4c-1.03,.3-2.03,.1-3.08-.45,.14-.02,.19-.02,.23-.03-.42-.14-.85-.29-1.27-.43,.92-.27,4.45-.05,4.93,.31l-3.67,.11c.96,.16,1.93,.33,2.86,.48Zm-10.64,4.38c.24-.6,.75-.75,1.23-.31,.25,.22,.44,.55,.56,.87,.43,1.17,.39,2.36,.06,3.73-.34-.27-.67-.43-.84-.7-.39-.59-.73-1.22-1.04-1.87-.26-.56-.2-1.15,.03-1.72Zm1.92,4.93c.06,0,.11,0,.17,0,.39,.66,.11,4.98-.49,5.99,.11-2,.21-4,.32-5.99Zm-.9-6.19c1.2-.21,2.34-.42,3.48-.62,1.32-.23,2.64-.48,3.97-.69,.48-.08,.97-.08,1.46-.12,.32-.02,.64-.07,.96-.03,.29,.03,.57,.15,.85,.23,0,.05,0,.09,0,.14-.32,.2-.63,.39-.95,.59,.01,.04,.03,.09,.04,.13,1.24-.36,2.47-.77,3.81-.2-.15,.07-.26,.15-.38,.18-1.8,.51-3.61,.99-5.41,1.52-.57,.17-1.12,.42-1.67,.65-.78,.33-1.55,.71-2.34,1.03-.69,.29-1.41,.54-2.16,.82-.15-1.37-.12-2.82-1.67-3.64Zm12.22-1.54c.44-.09,.88-.18,1.32-.27,.57-.12,1.14-.23,1.71-.34,.12-.02,.25,0,.37,0,0,.04,0,.07,0,.11-1.12,.23-2.24,.47-3.36,.7-.01-.06-.03-.13-.04-.19Zm-10.56,6.54c.01-.32,.09-.58,.4-.73,.32-.15,.6-.05,.85,.16,.76,.62,.94,1.49,1.01,2.4,.04,.47,0,.95,0,1.42,.04,0,.08,.01,.12,.02-.07,.16-.1,.39-.22,.45-.11,.05-.34-.04-.47-.14-1.17-.91-1.75-2.1-1.7-3.6Zm.07,2.89v1.42s-.08,0-.12,.01c.02-.48,.04-.96,.07-1.44,.02,0,.04,0,.06,0Zm1.22-4.19c.49-.18,.96-.32,1.39-.51,1.1-.48,2.17-1.07,3.3-1.45,1.8-.61,3.64-1.08,5.47-1.61,.28-.08,.56-.18,.84-.26,.08-.02,.23-.04,.23-.03,.13,.51,.69,.3,1.01,.63-1.83,.98-3.66,1.89-5.41,2.92-1.76,1.03-3.46,2.17-5.26,3.31-.07-1.24-.49-2.28-1.57-3Zm2.65,2.79s-.03-.04-.06-.08c1.41-.51,2.56-1.46,3.84-2.21,1.64-.95,3.33-1.84,5-2.75,.15-.08,.32-.13,.45-.22,.67-.5,1.42-.32,2.15-.24,.12,.01,.24,.11,.39,.17-3.23,2.67-6.42,5.3-9.65,7.97-.06-.16-.15-.33-.19-.51-.27-1.05-.87-1.79-1.92-2.14Zm2.99,2.62c1.58-1.34,3.11-2.73,4.74-3.99,1.61-1.25,3.05-2.75,4.89-3.68,.04,.05,.08,.09,.12,.14-.13,.07-.25,.14-.38,.21,.01,.02,.03,.03,.04,.05,.29-.05,.58-.1,.87-.16,.02,.05,.04,.1,.06,.15-.11,.15-.22,.3-.32,.43h.77s.02,.09,.03,.13c-2.68,3.14-5.37,6.28-8.07,9.44-.52-1.32-.96-2.72-2.76-2.73Zm10.41-8.31c.64-.3,1.19-.56,1.84-.86-.33,.7-1.17,1.09-1.84,.86Zm-6.42,10.42c1.43-1.69,2.84-3.36,4.27-5.02,.96-1.11,1.96-2.19,2.94-3.28,.32-.36,.4-.34,.73,.01-.06,.11-.13,.23-.19,.34,.4-.11,.76-.45,1.26,0-2.03,3.59-4.09,7.22-6.12,10.81-.48-1.33-.93-2.83-2.89-2.87Zm4.42,2.25c.4-.11,.78-.06,1.02,.29,.41,.61,.79,1.24,1.15,1.88,.13,.23,.19,.49,.29,.74,.16,.42,.1,.56-.33,.66-.23,.06-.47,.07-.7,.1-1.03,0-1.77-.48-2.27-1.33-.47-.79,.03-2.11,.85-2.34Zm-.23-.69c1.63-2.78,3.27-5.57,4.9-8.37,.08-.14,.18-.28,.26-.43q.34-.57,.98-.35c.24,.08,.47,.17,.76,.28-1.23,4.08-2.46,8.15-3.67,12.14-.51-1.54-.85-3.39-3.23-3.28Zm3.88,3.5c.06-.27,.12-.55,.22-.81,.29-.74,1.11-.99,1.71-.47,.35,.3,.64,.71,.86,1.11,.21,.39,.31,.84,.43,1.27,.16,.62,.04,.72-.89,.67-.6-.02-1.32-.14-1.91-.66-.35-.3-.52-.66-.41-1.11Zm.44-2.04c1.05-3.4,2.1-6.77,3.15-10.15,.54,.1,1.01,.19,1.55,.29-.39,3.98-.78,7.96-1.17,11.95-.04,.01-.07,.02-.11,.04-.67-1.44-1.54-2.57-3.41-2.13Zm4.31,1.38c-.06-.03-.12-.07-.17-.1,.36-3.71,.73-7.42,1.09-11.15,.45-.03,.82-.07,1.19-.06,.09,0,.23,.15,.25,.25,.08,.48,.13,.97,.17,1.45,.12,1.7,.18,3.41,.36,5.1,.11,1.05,.4,2.09,.59,3.13,.09,.52,0,.59-.48,.41-1.1-.42-2.03-.15-2.82,.68-.08,.08-.12,.19-.17,.29Zm.01,.6c-.12,.44-.23,.89-.35,1.33-.05-.01-.1-.03-.15-.04l.41-1.32s.06,.02,.1,.03Zm6.99-2.23c-1.06-2.99-2.09-5.99-2.82-9.09,0-.04-.02-.08-.03-.12-.17-.94-.06-1.11,.88-1.24,.12-.02,.3,.16,.39,.29,.92,1.47,1.83,2.95,2.74,4.43,.87,1.42,1.73,2.84,2.6,4.27,.03,.06,.06,.12,.16,.29-1.24-.31-1.85,.36-2.37,1.21-.25,.41-.52,.8-.79,1.2-.05,0-.11,0-.16-.01-.2-.41-.43-.8-.58-1.22Zm-1.03-10.59c.25,.07,.37,.1,.54,.14-.28-.39-.05-.5,.24-.62,.47-.21,.8-.07,1.12,.29,2.17,2.42,4.35,4.83,6.52,7.24,.24,.27,.48,.54,.78,.87-.15,0-.25,0-.35,0-.66-.03-1.19,.26-1.55,.78-.42,.6-.77,1.25-1.19,1.93-1.8-3.67-4.25-6.92-6.13-10.63Zm2.14-.91c.03-.05,.06-.1,.09-.15,.32,.01,.64,.03,1,.04-.07-.2-.16-.43-.27-.76,.28,.04,.52,.02,.71,.11,.43,.21,.86,.42,1.23,.71,2.2,1.76,4.38,3.54,6.55,5.33,.48,.4,.92,.85,1.46,1.35-1.16,.03-1.7,.76-2.16,1.57-.18,.32-.33,.67-.56,1.15-2.44-3.42-5.53-6.14-8.03-9.36Zm-1.06-2.45c.57,.26,1.13,.52,1.78,.81-.58,.23-1.5-.19-1.78-.81Zm3.18,1.18c.47-.12,.82-.25,1.17-.28,.32-.03,.7-.03,.97,.11,1.58,.8,3.16,1.62,4.71,2.5,1.65,.94,3.15,2.12,4.97,2.9-1.44,.39-1.9,1.51-2.25,2.87-2.9-3.08-6.45-5.25-9.57-8.09Zm10.9,6.62c.16-.21,.35-.41,.56-.57,.67-.49,1.37-.17,1.45,.66,.01,.14,.01,.28,.02,.33-.05,1.69-.9,2.8-2.3,3.1-.34,.07-.57-.05-.55-.37,.05-1.1,.09-2.22,.83-3.15Zm2.06,7.25c-.48-1.17-.86-2.36-.96-3.63,.5,1.16,.94,2.34,.96,3.63Zm-5.25-11.64c-1.78-1.03-3.6-1.98-5.47-3.01,.34-.1,.61-.18,.89-.26,.06-.47,.08-.46,.5-.32,2.07,.69,4.14,1.36,6.22,2.05,.48,.16,.95,.32,1.42,.5,1.11,.44,2.22,.89,3.37,1.35-1.13,.64-1.41,1.77-1.62,2.92-1.8-1.1-3.53-2.2-5.3-3.22Zm-5.84-5.46c.01-.06,.02-.11,.03-.17,1.2,.33,2.48,.21,3.64,.73,0,.05-.02,.09-.03,.14-1.21-.23-2.43-.47-3.64-.7Zm12.07,7.85c.14-.53,.5-1.01,.84-1.46,.11-.15,.47-.21,.67-.15,.17,.05,.34,.3,.41,.5,.09,.24,.07,.52,.09,.69-.01,1.21-.37,2.18-1.22,2.93-.07,.06-.14,.15-.23,.18-.23,.07-.47,.12-.71,.18-.04-.21-.13-.42-.11-.62,.06-.75,.08-1.52,.27-2.24Zm-.31-12.93c.39-.06,.79-.11,1.29-.18-.14,.12-.2,.17-.27,.24,.1,.01,.19,.02,.3,.04-.14,.1-.25,.18-.39,.28,.08,.04,.14,.07,.19,.1-1.57,1.04-3.25,1.51-5.09,1.11,.55-.16,1.09-.31,1.57-.45,.03-.08,.04-.17,.09-.21,.68-.53,1.47-.79,2.31-.92Zm-2.12,.39c.33-.21,.64-.49,1.01-.62,.95-.33,1.92-.59,2.88-.87,.73-.22,1.46-.43,2.24-.65-.96,.77-2,1.28-3.19,1.47-.99,.16-2,.2-2.88,.79-.02-.04-.04-.08-.05-.12Zm2.49,.92s.05,0,.11,.01c-.5,.49-1.05,.84-1.71,1.02-1.06,.28-2.11,.38-3.19,.08-.52-.14-1.07-.19-1.62-.23-1.54-.1-3.08-.17-4.61-.25-.14,0-.28-.04-.41-.06,.55-.05,1.1-.16,1.65-.13,1.49,.08,2.99,.15,4.48,.35,1.86,.25,3.6-.08,5.3-.79Zm-6.72,2.03c0-.07,0-.14,0-.21,1.48-.05,2.95-.11,4.43-.16,.01,.05,.02,.09,.04,.14-.32,.14-.64,.4-.96,.4-1.17,0-2.34-.1-3.5-.16Zm3.2,.34c-.95,.52-1.91,.47-2.89,.1,.95-.31,1.93,.08,2.89-.1Zm-1.82,.98c-.23,0-.45,.05-.63,0-1.62-.54-3.23-1.09-4.83-1.64-.11-.04-.21-.11-.38-.19,.57-.05,5.4,1.48,5.84,1.84Zm-.81,.04c-1.05,.35-1.98-.02-2.88-.51,.96,.17,1.92,.34,2.88,.51Zm8.38-4.36s-.04-.06-.06-.09c.13-.13,.24-.27,.38-.38,.41-.31,.84-.6,1.25-.92,.11-.09,.14-.29,.23-.41,.13-.18,.28-.48,.43-.49,1.2-.04,2.39-.02,3.52-.02-.04,.71-.08,1.47-.12,2.31h-5.62Zm5.21,1.18c.05-.15,.21-.27,.32-.4,.12,.11,.26,.21,.34,.34,.39,.62,.24,2.68-.58,3.17-.18-1.07-.42-2.08-.08-3.11Zm-7.57-4.07c.62-.16,1.22-.39,1.81-.61,1.14-.43,2.28-.87,3.42-1.31l.05,.11c-.09,.07-.17,.16-.27,.22-1.25,.75-2.52,1.43-3.92,1.88-.97,.32-1.88,.12-2.82,0,.57-.09,1.16-.14,1.71-.28ZM39.22,10.91c.01-.2,0-.41,.07-.59,.17-.53,.36-1.05,.63-1.55-.23,.71-.46,1.43-.69,2.15Zm1.78-5.66c.12-.2,.29-.36,.44-.54,.03,.02,.06,.05,.08,.07-.58,.97-1.16,1.94-1.75,2.93,0-.1,0-.19-.01-.27-.28,.93-.59,1.86-.84,2.8-.63,2.38-1.23,4.77-1.84,7.15,0,.04-.03,.07-.05,.13-.06-1.3,1.88-9.72,2.81-10.62-.03,.2-.06,.37-.09,.55,.42-.74,.83-1.48,1.25-2.21Zm-1.46-.1c.04-.1,.11-.19,.16-.29-.95,2.89-1.86,5.75-2.44,8.71-.29,1.48-.44,2.99-.65,4.48-.25,1.77-.55,3.54-.75,5.32-.12,1.07-.09,2.15-.13,3.23,0,.13,0,.27,0,.4-.05,.01-.1,.03-.16,.04-.06-.17-.17-.33-.17-.5,.02-.94,0-1.88,.11-2.81,.29-2.26,.73-4.51,.98-6.77,.32-2.86,.95-5.65,1.77-8.4,.35-1.16,.84-2.28,1.27-3.42Zm-4.02,15.26c.48-4.81,1.04-9.6,2.88-14.13-1.47,4.6-2.11,9.38-2.88,14.13Zm2.9-16.07s.05,.03,.07,.04c-.31,.68-.7,1.34-.9,2.06-.53,1.95-1.01,3.92-1.44,5.9-.56,2.52-.82,5.08-1.01,7.65,0,.09-.03,.18-.13,.26,.04-.81,.05-1.62,.13-2.42,.17-1.64,.32-3.29,.57-4.92,.37-2.34,.96-4.63,1.75-6.86,.22-.61,.62-1.15,.94-1.72Zm-3.22,19.41v3.18h-.12v-3.18s.08,0,.12,0Zm.6-18.09c.04-.2,.13-.39,.22-.59-.59,2.94-1.29,5.87-1.1,8.91,.3-1.61,.59-3.23,.92-4.84,.32-1.6,.83-3.14,1.52-4.62-1.43,4.56-2.45,9.2-2.62,14,0-1.11,0-2.22,0-3.33,0-.82-.04-1.65,0-2.47,.06-1.1,.15-2.2,.31-3.29,.2-1.27,.49-2.52,.75-3.77Zm-.64-1.37s.09,.01,.13,.02c-.29,1.76-.58,3.53-.87,5.29-.05,0-.09-.02-.14-.02,.29-1.76,.58-3.53,.87-5.29Zm-1.48,4.86c-.32-1.53-.63-3.06-.95-4.59,.61,1.47,.76,3.03,.95,4.59Zm-.29,3.65c-.4-2.64-.63-5.31-1.57-7.84,1.16,2.49,1.39,5.16,1.57,7.84Zm0,4.6c-.55-4.36-1.09-8.73-2.81-12.84,2.03,4.04,2.55,8.41,2.81,12.84Zm-2.46-10.33c.92,2.67,1.51,5.42,1.86,8.22,.08,.63,.08,1.28,.12,1.91-.04,0-.08,0-.12,.01-.06-.56-.09-1.13-.2-1.69-.34-1.71-.7-3.43-1.09-5.13-.31-1.33-.66-2.66-1.06-3.96-.21-.66-.58-1.27-.92-1.98,.73,.78,1.1,1.7,1.42,2.62Zm2.23,13.07s-.07,.01-.11,.02c-.13-.87-.27-1.74-.4-2.62,.06,0,.11-.02,.17-.02,.11,.87,.23,1.75,.34,2.62Zm-2.65-11.63c.55,2.18,1.06,4.38,1.5,6.58,.25,1.26,.31,2.55,.46,3.83,.06,.47,.14,.93,.2,1.4-.04,0-.08,.01-.13,.02-.19-1.02-.51-2.04-.54-3.06-.05-1.83-.47-3.58-.87-5.33-.35-1.51-.79-3-1.28-4.47-.25-.75-.69-1.43-1.04-2.15-.1-.21-.2-.43-.29-.64,.76,1.22,1.63,2.4,1.99,3.81Zm1.06,8.55c-.12-.65-.22-1.31-.36-1.95-.7-3.23-1.37-6.47-3.12-9.34-.17-.27-.3-.57-.44-.86-.01-.02,0-.05,0-.08,1.2,.3,4.26,9.6,3.93,12.23Zm-2.54-7.33c-.5-1.76-1.51-3.3-2.27-4.94,.92,1.55,2.05,2.98,2.58,4.75,.54,1.8,1.17,3.57,1.16,5.48-.49-1.76-.97-3.52-1.47-5.28Zm1.92,7.02c-.19-.56-.25-1.17-.36-1.76-.03-.15,0-.31,0-.47,.05,0,.09,0,.14,0,.08,.46,.14,.92,.26,1.37,.3,1.12,.69,2.22,.93,3.36,.52,2.41,.89,4.85,.87,7.33,0,.15-.12,.3-.18,.45-.07-.02-.15-.04-.22-.06,0-.89,.04-1.79,0-2.68-.12-2.57-.6-5.08-1.42-7.53Zm-.49,12.45c.63-.96,1.57-1.46,2.66-1.67,1.75-.33,3.26,.17,4.48,1.47,.06,.06,.11,.13,.16,.19,0,0,.03,0,.05,.01,.18-.61,.32-1.24,.53-1.84,.59-1.61,1.64-2.83,3.09-3.75,.93-.59,1.9-1.06,3-1.24,1.86-.3,3.62,0,5.26,.94,2.12,1.21,3.52,2.96,3.99,5.38,.68,3.4-.71,6.5-3.58,8.47-2.78,1.9-6.41,1.33-8.73-.38-2.01-1.47-3.06-3.52-3.52-5.91,0-.03-.01-.06-.01-.08,.13-1.53-1.04-2.04-2.12-2.4-1.81-.6-3.54-.3-5,1.04-.07,.07-.21,.07-.31,.1,0-.12-.03-.26,.03-.35Zm-16.17,.75c.19-3.84,2.99-6.99,6.79-7.61,.37-.06,.75-.04,1.13-.06,2.89,.08,5.15,1.26,6.78,3.68,.7,1.04,1.18,2.15,1.28,3.37,.1,1.26-.12,2.51-.62,3.69-.7,1.62-1.75,2.95-3.16,4.01-.89,.66-1.93,.95-2.98,1.17-2.84,.6-5.22-.24-7.14-2.39-1.48-1.67-2.19-3.62-2.07-5.85Zm-8.06,7.06c.33,.1,.68,.15,.99,.3,1.8,.86,3.66,1.49,5.68,1.76-.2,.04-.39,.1-.59,.1-.93,.02-1.87,.14-2.77-.21-.08-.03-.19,0-.29,0,1.05,.46,2.06,1.04,3.24,1.19,2.82,.36,5.63,.75,8.45,1.13,.46,.06,.91,.17,1.37,.2,.2,.02,.42-.09,.62-.14,0-.04-.01-.07-.02-.11,1.16,.26,2.32,.53,3.48,.79,0-.02,.02-.05,.03-.07-.08-.04-.15-.1-.23-.12-.85-.23-1.7-.47-2.56-.66-.38-.08-.66-.29-.98-.47-.41-.23-.88-.34-1.3-.59,.39,.12,.77,.24,1.16,.35,.18,.05,.48,.17,.54,.1,.17-.19,.24-.47,.36-.72-.04-.02-.07-.03-.11-.05,.33-.17,.67-.35,1.01-.52-.06-.05-.15-.13-.33-.3,.25-.17,.44-.38,.68-.45,2.01-.59,3.49-1.86,4.62-3.57,.34-.51,.56-1.09,.86-1.63,.11-.19,.3-.33,.45-.5,.18-.22,.43-.42,.52-.68,.18-.5,.27-1.05,.04-1.56-.22-.5,.12-.7,.47-1.03,.05,.49,.1,.92,.14,1.34h.12c.02-.25,.05-.51,.06-.77,0-.22-.05-.45-.01-.67,.02-.11,.19-.19,.37-.37v1.69c.66-.5,.1-1.29,.43-1.83,.06,0,.13,.02,.19,.03-.04,.96-.09,1.92-.13,2.88,.04,0,.07,.01,.11,.02,.13-.99,.26-1.98,.4-2.96,.05,0,.1,0,.15,0,.14,1.11-.15,2.22,.01,3.34,.15-1.1,.3-2.2,.45-3.29,.03,0,.06,0,.09,0v2.49c.05,0,.11,0,.16,0,.23-.82,.12-1.69,.23-2.53h.17v3.2h.13c.09-1.07,.18-2.15,.27-3.22,.06,0,.12,0,.18,0v2.99c.06,0,.13,0,.19,0,.03-.94,.06-1.87,.09-2.81,.05,0,.11,0,.16,0,.31,.54,.04,1.17,.3,1.73v-1.55c.42,.04,.49,.23,.47,.55-.03,.41,0,.83,0,1.25,.04,0,.08,0,.11,0,.03-.42,.05-.85,.08-1.28,.55,.11,.63,.26,.55,.73-.08,.45-.12,.91-.16,1.36,0,.08,.05,.17,.16,.27,.08-.27,.15-.53,.25-.9,.05,.22,.08,.35,.12,.48,.71,2.69,2.11,4.87,4.65,6.17,.65,.33,1.34,.57,1.88,1.08,.11,.11,.36,.08,.56,.12-.15,.14-.31,.28-.48,.44,.49,.4,.92-.01,1.39,.02-.17,.1-.34,.19-.5,.3-.15,.1-.42,.14-.27,.42,.12,.22,.31,.26,.57,.19,.52-.16,1.05-.27,1.58-.39,.09-.02,.19,0,.31,.08-1.86,.57-3.72,1.14-5.66,1.74,.14,.02,.24,.05,.33,.03,.97-.23,1.93-.46,2.9-.69,.15-.04,.3-.06,.48-.1,.02,.45,.28,.42,.58,.37,1.74-.26,3.48-.53,5.23-.76,1.61-.22,3.23-.34,4.83-.61,.74-.13,1.43-.52,2.14-.79,.19-.07,.4-.1,.59-.17,1.02-.38,2.04-.77,3.13-1.13-.11,.07-.22,.13-.32,.21-1.5,1.24-3.19,1.94-5.16,2.09-1.87,.14-3.72,.45-5.58,.71-1.62,.22-3.23,.48-4.85,.72-.09,.01-.19,.05-.27,.07,.16,.37,.31,.72,.5,1.17-.34,.03-.59,.06-.84,.08-.9,.04-1.79,.07-2.69,.11-.12,0-.23,.06-.35,.1,0,.05,.02,.1,.02,.15,1.17-.07,2.34-.14,3.51-.21,.16,.59,.11,.85-.43,2.11,1.41,.42,2.8,.84,4.2,1.25,0,.04,0,.08-.01,.11-.12,0-.25,0-.36-.03-1.25-.39-2.5-.81-3.76-1.17-1.19-.34-2.41-.62-3.61-.92-.05-.01-.11,0-.16,.02-.03,.01-.05,.06-.11,.15,1.21,.26,2.38,.52,3.69,.81-.37,.41-.67,.73-.98,1.07,.63,.28,1.25,.54,1.87,.81-.02,.05-.04,.1-.06,.15-1.4-.49-2.8-.97-4.2-1.46,.71,.66,1.84,.65,2.4,1.59-.42-.11-.84-.22-1.25-.33-.04,.05-.07,.1-.11,.15,.13,.16,.24,.39,.41,.48,.4,.22,.84,.37,1.26,.55,.12,.05,.23,.1,.35,.15-.02,.05-.03,.1-.05,.14-.26-.06-.53-.09-.77-.19-.37-.16-.72-.38-1.07-.57-.29-.16-.58-.26-1.03-.07,.29,.28,.53,.51,.8,.78-.23-.05-.45-.1-.66-.15h.01c-.34-.09-.74-.09-1.01-.27-.25-.18-.51-.25-.78-.3-.1,.1-.21,.19-.35,.24-.19,.07-.32,.13-.54,.26-.07,.04-.14,.08-.21,.12,.67,.25,1.11,.88,1.71,1.22-.57,.12-1.16-.15-2.17-.99-.07,.03-.13,.06-.2,.08,.4,.36,.8,.72,1.2,1.08,.14,.13,.29,.24,.47,.39-1.04,.27-1.76-.21-2.52-.77,.41,.47,.83,.94,1.22,1.39-.25,.08-.61,0-.94-.32-.27-.25-.52-.54-.85-.76,.24,.44,.49,.88,.73,1.31l-.07,.11c-.2-.06-.39-.12-.61-.19v.28s-.06,.01-.08,.02c-.3-.58-.59-1.16-.89-1.75l-.08,.04c.16,.49,.32,.98,.49,1.46,.13,.37-.02,.52-.41,.51-.18-.61-.36-1.22-.54-1.83-.04,0-.07,.01-.11,.02,.03,.23,.06,.47,.09,.7,.03,.24,.07,.47,.07,.71s.11,.52-.31,.6c-.1-.61-.21-1.2-.31-1.79-.02,0-.04,0-.06,.01,0,.5,0,1.01,0,1.51,0,.25-.08,.41-.4,.32-.03-.58-.07-1.17-.11-1.76-.05,0-.11,0-.16,0-.05,.61,.05,1.25-.16,1.83-.06,0-.12,0-.18,0-.05-.62-.11-1.24-.16-1.86-.04,0-.07,0-.11,0-.03,.08-.08,.15-.08,.23,0,.38,.03,.76,.02,1.13,0,.17,.09,.46-.22,.42-.1-.01-.23-.27-.26-.42-.04-.29,0-.59,0-.88,0-.13,.01-.26,.02-.38l-.16-.02c-.09,.56-.18,1.12-.28,1.69-.31,.06-.38-.14-.37-.37,.02-.32,.07-.64,.11-.96,.02-.15,.03-.3,.05-.45-.04-.01-.08-.02-.12-.03-.08,.23-.16,.46-.23,.7-.07,.24-.11,.49-.2,.73-.03,.09-.18,.13-.28,.19-.04-.1-.13-.22-.11-.31,.13-.66,.29-1.31,.44-1.96-.2,.46-.38,.93-.6,1.38-.36,.74-.38,.73-1.03,.23,.21-.27,.43-.53,.64-.8-.02-.04-.05-.07-.07-.11-.58,.2-.96,.94-1.7,.75,.27-.33,.53-.65,.79-.96-.32,.14-.63,.3-.96,.4-.29,.08-.6,.08-.9,.12-.01-.05-.03-.11-.04-.16,.14-.07,.29-.13,.41-.22,.11-.09,.35-.13,.19-.4-.03-.05,.27-.33,.44-.48,.19-.16,.39-.3,.56-.49-.01,0-.03-.01-.04-.02-.83,.31-1.31,1.36-2.42,1.1,.42-.67,1.1-1.12,1.9-1.31-.17-.06-.34-.12-.52-.16-.21-.05-.38-.19-.48-.38-.16,.01-.33,.02-.49,.04-.16,.01-.33,.09-.46,.18-.57,.41-1.23,.4-1.97,.5,.38-.35,.7-.64,1.01-.93-.02-.03-.04-.07-.05-.1-.94,.35-1.88,.71-2.82,1.06-.02,0-.08-.06-.16-.13,.84-.32,1.74-.47,2.18-1.36-.54,.14-1.09,.27-1.64,.41-.02-.05-.04-.11-.07-.16,.84-.47,1.69-.94,2.53-1.41-.02-.03-.03-.07-.04-.1-.42,.17-.84,.34-1.27,.51-.43,.17-.86,.35-1.29,.5-.44,.16-.89,.29-1.34,.43-.02-.06-.04-.12-.07-.18,.53-.21,1.05-.43,1.64-.66-.28-.33-.55-.65-.86-1.02,1.24-.43,2.49-.55,3.63-1.05-.01-.04-.02-.09-.04-.13-.55,.13-1.1,.29-1.65,.4-1.39,.27-2.7,.8-4.03,1.29-.73,.27-1.54,.34-2.31,.51-.01-.05-.02-.11-.03-.16,.47-.1,.94-.18,1.4-.31,.52-.15,1.03-.36,1.54-.53,.42-.14,.85-.27,1.26-.41-.17-.59-.35-1.22-.55-1.94h3.53s0-.1,.01-.15c-.2-.03-.41-.08-.61-.09-.78-.02-1.57-.1-2.35-.02-2.75,.26-5.5,.62-8.25,.85-1.31,.11-2.52-.34-3.58-1.11l.04-.14c.39,.11,.8,.19,1.18,.32,1.33,.46,2.65,.64,4.08,.43,1.98-.29,3.98-.37,5.92-.54,.09-.34,.19-.72,.3-1.14-.78-.12-1.6-.26-2.43-.36-2.4-.32-4.81-.62-7.21-.93-.87-.11-1.77-.15-2.62-.37-1.53-.38-2.84-1.18-3.83-2.43,.86,.59,1.78,1.04,2.79,1.29-.38-.22-.77-.43-1.15-.66-.64-.39-1.28-.78-1.93-1.17,.02-.04,.03-.08,.05-.13Zm.18,1.82c-.93,0-1.79,0-2.66,0-.31,0-.7,.08-.89-.07-.17-.14-.09-.56-.13-.85-.04-.3-.09-.6-.14-.97,.34,.04,.61,.07,.88,.11,.18,.02,.36,.06,.54,.08,1.43,.15,1.65,.3,2.4,1.71Zm-3.15-4.87c.24-.28,.52-.25,.71,.07,.04,.07,.08,.15,.1,.23,.06,.19,.11,.39,.2,.69-.46-.17-.85-.31-1.3-.48,.13-.22,.19-.38,.29-.5Zm-.73,1.92c.03-.87,.06-.8,.91-.77,1.07,.04,1.42,.79,1.9,1.48-.02,.06-.04,.12-.07,.17-.82-.12-1.65-.23-2.46-.39-.11-.02-.19-.24-.28-.38-.02-.03,0-.08,0-.12Zm-.08,.96c.03,.6,.05,1.12,.08,1.63-.45-.62-.49-1.26-.08-1.63Zm-.24,2.5c.62,.44,.83,2.28,.31,2.71-.5-.53-.68-2.12-.31-2.71Zm.02,5.13c.06,0,.12,.02,.18,.03-.1,.58-.2,1.17-.29,1.75-.04,0-.09-.01-.13-.02,.08-.59,.17-1.17,.25-1.76Zm-.04,9.62c-.01,.12-.04,.24-.08,.47-.21-.15-.41-.23-.5-.37-.36-.56-.72-1.13-1-1.73-.1-.22-.04-.55,.04-.81,.59-1.93,.81-3.91,.94-5.91,.05-.77,.15-1.53,.23-2.29,0-.09,.06-.17,.09-.25-.14,2.54,.19,5.1-.51,7.6,.05,0,.11,.01,.16,.02,.28-1.78,.56-3.56,.84-5.34,.07,0,.14,.02,.2,.03,.02,2.12-.5,4.18-.73,6.28,.04,0,.07,.01,.11,.02l.43-2.73c0,.06,.01,.13,.02,.19,.02,0,.04,0,.07,0l.39-2.96c.3,.38,.24,.81,.19,1.22-.18,1.4-.4,2.8-.59,4.2-.11,.79-.19,1.58-.29,2.38Zm2.3,4.63c-.52-.07-.91-.34-1.2-.68-.33-.39-.58-.84-.82-1.29-.07-.12-.07-.38,.02-.47,.07-.08,.34-.08,.46-.01,.44,.24,.86,.53,1.22,.76,.01-.48-.61-1.11-1.64-1.49,.37-2.62,.75-5.24,1.12-7.87,.05,0,.1,0,.14,0,.02,.21,.09,.42,.06,.61-.14,1.2-.31,2.39-.47,3.58-.11,.86-.2,1.72-.3,2.58,.04,0,.08,.01,.12,.02,.32-2,.64-3.99,.96-5.99,.05,0,.11,0,.16,0,0,.26,.02,.52,0,.78-.15,1.67-.31,3.35-.46,5.02-.02,.19,0,.39,.03,.59,.15-1.91,.36-3.82,.72-5.78,.39,.28,.42,.58,.4,.89-.08,1.24-.18,2.49-.25,3.73-.09,1.54-.16,3.08-.23,4.62,0,.12-.03,.24-.04,.4Zm2.32,4.42c-1.01-.23-1.66-.89-2.04-1.82-.17-.41-.01-.57,.41-.47,.25,.06,.5,.18,.71,.34,.64,.48,1.06,1.13,1.43,1.96-.25,0-.38,.02-.51,0Zm.76-.73c-1.26-1.84-1.5-2.03-2.72-2.18,.5-2.5,1.01-4.99,1.5-7.45,.2,.29,.23,.56,.17,1.15-.18,1.59-.33,3.19-.5,4.79,.02,0,.05,0,.07,.01,.26-1.72,.51-3.45,.77-5.17,.03-.01,.05-.03,.08-.04,.07,.26,.21,.52,.19,.77-.07,1.22-.19,2.43-.28,3.64-.04,.52-.06,1.03-.03,1.56,.2-1.74,.4-3.49,.61-5.23,.06-.01,.12-.03,.17-.04,.08,.19,.24,.38,.23,.57-.05,2.38-.12,4.76-.19,7.14,0,.14-.04,.29-.07,.48Zm3.05,4.1c-.31-.06-.64-.07-.92-.19-.83-.35-1.45-.95-1.85-1.75-.17-.35-.1-.44,.29-.46,.42-.02,.81,.07,1.12,.38,.39,.4,.78,.8,1.14,1.23,.15,.18,.22,.44,.32,.66-.03,.04-.06,.08-.09,.13Zm.52-.64c-.79-1.27-1.65-2.4-3.25-2.44,.57-2.13,1.14-4.25,1.73-6.47-.06,.94-.11,1.79-.16,2.64,.04,0,.09,0,.13,.01l.24-2.54s.08,0,.11,0c.34,1.48,.06,3,.22,4.5,.08-1.32,.17-2.64,.25-3.94,.23,.14,.3,.26,.3,.72,0,.78-.03,1.57-.05,2.35,0,.5,0,.99,0,1.49h.09c.06-.69,.12-1.39,.17-2.08,.05-.7,.08-1.4,.12-2.1,.31,0,.32,0,.31,.29-.04,1.02-.08,2.04-.12,3.06-.01,.33,0,.66,0,.99,.06,0,.12,0,.18,0,.1-1.35,.19-2.69,.29-4.04,.02,0,.05-.02,.07-.03,.05,.13,.15,.26,.15,.38-.11,2.33,.04,4.69-.7,6.95-.02,.05-.04,.1-.08,.23Zm2.76,3.47c-.97-.17-1.86-.71-2.39-1.75-.23-.46-.06-.69,.46-.68,.61,.01,1.13,.27,1.53,.7,.35,.38,.65,.84,.9,1.3,.18,.33,.06,.45-.49,.43Zm1.01-1c-.46-.48-.9-1-1.4-1.45-.53-.48-1.21-.6-1.95-.55,.33-.95,.66-1.85,.96-2.76,.3-.9,.56-1.81,.81-2.6,.01,.17,.04,.47,.06,.76,.03,0,.05,0,.08,0v-1.41c.24,.23,.24,.23,.18,.79-.03,.26-.03,.53,.05,.8,.07-.46,.14-.91,.22-1.37,.04-.01,.07-.03,.11-.04,.05,.13,.14,.25,.14,.38-.01,.55-.05,1.09-.08,1.63,0,.2,0,.41-.03,.61,.17-.85,.35-1.7,.52-2.55h.13c-.06,1.19-.12,2.36-.18,3.53,.05,0,.09,0,.14,.01,.11-1.15,.22-2.29,.32-3.44,.02,0,.04-.02,.06-.02,.06,.3,.18,.6,.18,.91,0,.95-.05,1.9-.08,2.86,0,.18,0,.36,.06,.54,.15-1.1,.29-2.2,.44-3.29,.02-.01,.04-.02,.06-.03,.06,.19,.18,.39,.18,.58,.06,2.09-.16,4.14-.96,6.09,0,.02-.04,.04-.01,.02Zm.41,1.74c-.22-.45-.13-.63,.36-.7,.55-.08,1.04,.05,1.43,.43,.39,.38,.73,.8,1.06,1.23,.1,.13,.13,.32,.21,.51-1.16,.2-2.6-.52-3.07-1.47Zm3.4,.57c-.49-.5-.92-1.03-1.45-1.45-.54-.44-1.22-.53-1.88-.46,.58-1.97,1.16-3.92,1.73-5.88,.16,.89-.11,1.75-.13,2.64,.2-.82,.4-1.64,.59-2.45,.04,0,.09,0,.13,.01-.08,1.17-.17,2.34-.25,3.51,.02,0,.05,0,.07,0,.18-1.14,.37-2.28,.55-3.41h.13c.13,.69,.04,1.38,.01,2.07-.03,.71-.12,1.41-.19,2.12,.03,0,.07,0,.1,.01,.2-1.49,.4-2.98,.6-4.47,.06,0,.13,.01,.19,.02-.08,1.65-.15,3.3-.23,4.95,.03,0,.06,0,.1,.01,.06-.49,.12-.99,.18-1.48,.06-.5,.13-1,.16-1.5,.03-.51,0-1.02,.05-1.53,.51,.65,.42,4.37-.48,7.3Zm.6,1.59c-.4-.49-.28-.78,.32-.99,.42-.14,.82-.12,1.21,.09,.75,.4,1.2,1.07,1.57,1.8,.05,.09,.03,.21,.05,.39-1.3,.05-2.36-.31-3.15-1.28Zm3.57,.32s-.06,.04-.09,.06c-.78-1.31-1.7-2.37-3.45-1.96,.21-.89,.4-1.73,.59-2.57,.24-1.05,.48-2.1,.73-3.15,.03-.13,.15-.23,.24-.35,.03,.02,.06,.04,.09,.06l-.35,3.27s.07,0,.1,.01c.19-1.06,.39-2.12,.58-3.18l.22,.03c-.07,1.32-.15,2.65-.22,3.97,.03,0,.06,0,.09,0,.12-.91,.24-1.82,.35-2.74,.04-.33,.05-.67,.09-1,.02-.11,.11-.2,.18-.3,.05,.02,.1,.04,.16,.06-.05,1.38-.1,2.75-.15,4.13,.04,.01,.08,.02,.12,.03,.04-.16,.1-.33,.11-.5,.09-1.2,.16-2.4,.25-3.6,0-.12,.13-.23,.27-.28v5.11s.08,0,.11,0l.29-4.86s.06-.03,.1-.04c.11,.28,.31,.57,.3,.84-.1,1.76-.24,3.52-.41,5.27-.05,.56-.2,1.11-.3,1.67Zm3.51,2.32c-.12,.04-.25,.03-.37,.04-.83-.08-1.61-.28-2.25-.84-.13-.11-.24-.27-.32-.43-.17-.33-.06-.55,.28-.69,.58-.23,1.16-.25,1.68,.1,.44,.29,.85,.64,1.23,1,.14,.13,.23,.39,.22,.58,0,.1-.3,.18-.48,.24Zm.94-1.11c-.58-.44-1.09-.94-1.7-1.28-.64-.36-1.38-.29-2.1-.04,.37-2.17,.73-4.3,1.09-6.43,.04,0,.08-.02,.12-.03,.03,.24,.06,.48,.1,.79,.05-.25,.08-.44,.12-.64,.04,0,.08,.01,.13,.02-.16,1.05-.31,2.11-.47,3.16,.02,0,.05,0,.07,.01,.25-1.01,.49-2.01,.73-3h.28c-.12,1.11-.24,2.25-.37,3.4,.04,0,.08,0,.11,.01,.29-1.18,.29-2.43,.62-3.6,.07,.01,.13,.02,.2,.03-.11,1.59-.21,3.18-.32,4.78,.03,0,.05,0,.08,0l.63-4.85c.06,0,.13,.01,.19,.02l-.3,5.47s.09,.01,.14,.02c.02-.12,.06-.24,.07-.35,.14-1.63,.27-3.26,.42-4.9,.01-.12,.1-.23,.16-.34,.04,.12,.13,.25,.12,.37-.08,1.64-.18,3.27-.27,4.91-.01,.23,.02,.46,.11,.68,.18-1.74,.37-3.48,.55-5.22,.04,0,.08-.01,.11-.02,.02,.19,.08,.37,.06,.55-.07,.95-.15,1.9-.25,2.84-.13,1.21-.28,2.42-.42,3.61Zm3.82,1.81c-.31,.07-.64,.08-.96,.12,0,.02-.02,.05-.03,.07-.54-.16-1.1-.3-1.63-.5-.19-.07-.37-.26-.49-.43-.19-.28-.16-.54,.16-.74,.67-.42,1.35-.55,2.05-.12,.4,.25,.78,.54,1.12,.87,.32,.32,.21,.63-.23,.74Zm.65-1.16c-1.14-1.09-2.3-1.76-3.86-.81,.06-.51,.09-.92,.14-1.32,.22-1.67,.44-3.33,.66-5,0-.04,0-.09,.02-.12,.05-.09,.11-.17,.17-.25,.05,.1,.14,.2,.14,.29-.04,.53-.11,1.06-.16,1.59-.06,.77-.11,1.54-.17,2.3,.46-1.34,.29-2.78,.7-4.12,.04,0,.08,0,.11,.01v4.24h.02c.08-.91,.16-1.82,.24-2.73,.04-.4,.05-.81,.11-1.21,.01-.11,.13-.2,.19-.3,.04,.11,.12,.21,.12,.32-.01,1.23-.03,2.47-.05,3.7,0,.14,0,.28,.07,.42,.05-.66,.11-1.32,.16-1.98,.05-.7,.08-1.4,.14-2.1,0-.11,.08-.21,.13-.31,.06,.1,.17,.21,.17,.31,.02,1.21,.02,2.41,.04,3.62,0,.26,.03,.52,.11,.78,.04-1.19,.09-2.37,.13-3.56,.01-.29,.02-.59,.06-.88,.01-.09,.1-.17,.16-.25,.06,.09,.16,.18,.16,.28,.03,.43,.03,.87,.05,1.3,.08,1.78,.15,3.55,.23,5.33,0,.1,0,.19,0,.45Zm.25-4.52c-.21-.98-.13-2.17,.2-2.7-.07,.9-.13,1.8-.2,2.7Zm3.77,5.75c-.49,.22-1.03,.3-1.55,.45-.51-.15-.99-.24-1.43-.44-.42-.19-.47-.59-.13-.88,1.01-.82,2.01-1,3.2-.09,.47,.36,.45,.71-.09,.95Zm-3.55-1.27c.05-.54,.08-.94,.12-1.35,.18-1.97,.34-3.93,.56-5.89,.1-.89,.28-1.77,.52-2.63,.35-1.21,1.74-1.49,2.58-.57,.32,.35,.29,.79,.26,1.23-.02,.35,.02,.7,.05,1.16-.24,.28-.33,.3-1.32,.09,.22,2.07,.44,4.12,.66,6.17,.04,0,.08-.01,.12-.02-.14-1.79-.28-3.58-.42-5.37,.27-.14,.37-.05,.39,.21,.17,1.78,.35,3.57,.52,5.35,.05,.5,.08,1,.13,1.64-1.39-1.2-2.74-1.09-4.18-.03Zm7.96,.58c-.55,.48-1.22,.6-2.06,.61-.15-.03-.45-.05-.71-.16-.3-.12-.4-.37-.21-.68,.65-1.09,1.92-1.37,2.93-.66,.43,.3,.45,.55,.06,.9Zm-3.32-.8c-.12-2.38-.23-4.65-.35-6.92,.07,0,.14-.01,.2-.02,.06,.74,.12,1.47,.18,2.21,.03,0,.06,0,.08,0,.08-.82,.17-1.64,.25-2.46,.04,0,.08,0,.12,0,.29,1.09,.17,2.24,.31,3.35,.03,0,.07,0,.1,0v-3.27c.06,0,.12,0,.18,0,.12,1.38,.24,2.76,.36,4.14,0,0,.02,0,.03,0v-4.23s.07,0,.11-.01c.17,1.32,.35,2.64,.52,3.96h.09c-.1-1.34-.19-2.67-.29-4,.05,0,.1-.01,.16-.02,.21,.96,.41,1.93,.62,2.89,.03,0,.06-.01,.09-.02-.1-.77-.21-1.54-.29-2.31-.03-.27-.17-.59,.2-.92,.34,2.41,.67,4.72,1.01,7.13-1.39-.98-2.54-.61-3.68,.51Zm3.78-4.37c-.09-1.22-.3-2.44-.23-3.66,.07,0,.15,0,.22,0,.13,1.8,.26,3.61,.4,5.41,.25-1.8-.03-3.6,.12-5.41,.44,1.67,.33,3.41,.63,5.1,.04,0,.07,0,.11,0-.08-1.67-.16-3.35-.24-5.02,.03-.02,.05-.04,.08-.06,.06,.11,.16,.21,.18,.33,.15,1.19,.29,2.39,.43,3.59,.03,.25,.07,.49,.14,.74,0-.48,.02-.97,0-1.45-.05-.84-.13-1.68-.2-2.51,0-.1-.03-.2,0-.29,.03-.11,.11-.21,.17-.32,.05,.1,.12,.2,.14,.31,.15,1.21,.3,2.42,.45,3.63,0,.05,.03,.1,.05,.15,.04,0,.08,0,.11,0-.05-.62-.08-1.24-.14-1.86-.06-.66-.14-1.31-.2-1.96-.01-.14,.05-.28,.08-.43,.06,0,.12,0,.17,0,.05,.36,.07,.73,.16,1.08,.19,.7,.42,1.4,.64,2.09,0,0,0,0,0,0,.26,1.06,.53,2.11,.77,3.08-.65,.03-1.35-.07-1.95,.14-.61,.21-1.12,.71-1.69,1.09-.13-1.21-.28-2.47-.38-3.72Zm3.92,3.99c-.55,.8-1.41,1-2.31,1.08-.01,0-.03,0-.04,0-.31-.12-.63-.24-.94-.35,.15-.27,.27-.57,.47-.79,.68-.72,1.47-1.16,2.51-.8,.48,.17,.6,.44,.31,.86Zm.7-1.24c-.69-2.61-.77-5.15-.56-7.69,.08,0,.16-.01,.25-.02,.1,1.55,.21,3.1,.31,4.65,.02,0,.04,0,.05,0v-4.67s.09,0,.13-.01c.28,.65,.2,1.36,.3,2.04,.11,.7,.17,1.41,.24,2.11,.04,0,.07,0,.11,0-.03-.51-.06-1.02-.09-1.53-.04-.73-.09-1.45-.12-2.18,0-.14,.09-.28,.14-.42,.07,.14,.2,.27,.21,.41,.11,.89,.19,1.78,.28,2.67,.03,.23,.07,.47,.17,.7-.06-1.25-.12-2.5-.17-3.75,.07-.01,.15-.03,.22-.04l.58,3.21s.05,0,.07,0c-.09-1.12-.18-2.25-.27-3.37,.03,0,.06,0,.09-.01,.52,2.01,1.03,4.02,1.56,6.07-1.65-.4-2.58,.66-3.5,1.87Zm3.51-.46c-.63,.94-1.55,1.37-2.64,1.48-.16,.02-.4-.05-.48-.16-.07-.11-.01-.37,.08-.49,.35-.45,.71-.91,1.14-1.27,.3-.25,.72-.35,1.09-.51l.05,.12c.11,0,.22,0,.33,0,.57,.05,.73,.37,.42,.84Zm.49-1.68c-.69-2.05-.65-4.41-.69-6.75,.06,0,.11-.02,.17-.02,.18,1.36,.36,2.72,.55,4.08,.02,0,.04,0,.07,0-.1-1.54-.21-3.08-.31-4.61,.05,0,.09,0,.14-.01,.02,.23,.04,.46,.06,.7,.01,0,.03,0,.04,0,.02-.13,.03-.26,.06-.51,.21,1.45,.4,2.78,.6,4.11,.03,0,.06,0,.09-.01-.12-1.4-.25-2.79-.37-4.19l.19-.04c.24,1.2,.47,2.39,.71,3.59,.03,0,.06-.01,.09-.02-.17-1.18-.34-2.36-.51-3.54,.04,0,.08-.01,.12-.02,.78,1.85,1.57,3.7,2.36,5.59-.68-.03-1.35,.06-1.9,.47-.52,.39-1.02,.82-1.46,1.18Zm3.44-.4c-.19,.37-.46,.77-.81,.97-.53,.31-1.14,.49-1.74,.66-.34,.1-.58-.2-.4-.49,.55-.87,1.15-1.71,2.31-1.79,.06,0,.11-.01,.14-.01,.5,0,.7,.25,.49,.67Zm-.1-8.87c.13,1.28,.25,2.51,.37,3.74,.05,0,.09,0,.14,0-.17-1.42-.09-2.84-.09-4.26,.08,0,.15,0,.23,0,.13,1.29,.26,2.58,.39,3.87,.04,0,.08,0,.12,0-.07-1.29-.13-2.59-.2-3.98,.67,.42,.63,1.16,1.11,1.64-.09-.64-.18-1.22-.26-1.8,.02,0,.05,0,.07,0,.65,1.99,1.3,3.98,1.96,5.99-.65-.05-1.37,.04-1.93,.52-.52,.45-.98,.97-1.46,1.46-.71-.88-1.14-6.38-.46-7.13Zm3.9,6.4c-.56,1.04-1.46,1.63-2.62,1.8-.15,.02-.36-.12-.48-.25-.05-.06,.02-.29,.09-.4,.54-.75,1.08-1.51,2.04-1.78,.17-.05,.35-.08,.45-.11,.6,.01,.77,.26,.52,.73Zm3.78-3.11c-.22,.93-1.71,2.05-2.67,2-.1,0-.2-.05-.36-.1,.6-1.13,1.35-2.01,2.59-2.32,.36-.09,.52,.09,.44,.42Zm-3.39,1.42c-.09-.67-.18-1.25-.26-1.84-.18-1.29-.34-2.58-.53-3.87-.09-.59-.09-1.16,.14-1.72,.04,0,.08,0,.12,0,.2,1.36,.4,2.73,.59,4.09,.04,0,.07,0,.11,0-.1-1.49-.32-2.98-.16-4.46,.05,0,.1,0,.15,0,.2,1.34,.39,2.69,.59,4.03-.02-1.43-.34-2.84-.18-4.27,.61,1.06,.37,2.3,.85,3.49-.14-1.38-.74-2.67,.03-3.8,.07,.48,.16,1.08,.24,1.67,.04,0,.08,0,.12-.01-.08-.83-.24-1.66,.08-2.59,.18,1.26,.27,2.42,.52,3.54,.25,1.12,.65,2.21,1.01,3.36-1.73,0-2.59,1.07-3.42,2.38Zm3.7-4.04c-.12-2.28-.24-4.56-.37-6.84-.02-.29,.04-.52,.47-.69,.19,1.86,.38,3.66,.57,5.46,.02,0,.05,0,.07,0-.03-.32-.05-.63-.08-.95-.11-1.41-.22-2.82-.33-4.23-.03-.34-.1-.7,.32-1.03,.2,1.28,.39,2.51,.58,3.74,.04-1.5-.43-2.98-.11-4.48,.51,2.46,1.01,4.92,1.5,7.3-.45,.25-.99,.45-1.42,.8-.43,.35-.76,.85-1.15,1.3-.02-.13-.05-.26-.06-.39Zm2.47,.17c-.46,.67-1.14,1.01-1.9,1.21-.08,.02-.24,0-.26-.04-.04-.09-.04-.23,0-.3,.52-.77,1.07-1.51,1.91-1.97,.41-.23,.64-.11,.62,.42-.08,.16-.2,.44-.37,.69Zm.61-3.35c-.02-.09-.06-.18-.06-.27-.19-2.47-.4-4.94-.56-7.41-.03-.5,.14-1,.22-1.51,.07,0,.13,0,.2,0,.28,1.54,.56,3.07,.84,4.61-.07-1.85-.63-3.64-.61-5.5,.06,0,.11-.02,.17-.02,.38,1.98,.76,3.96,1.13,5.94,.03,0,.06-.01,.09-.02-.1-.73-.18-1.47-.3-2.2-.12-.76-.29-1.51-.42-2.27-.13-.73-.34-1.47-.14-2.22,.05,0,.11-.02,.16-.03,.4,2.58,.8,5.16,1.18,7.62-.58,.41-1.11,.77-1.62,1.16-.06,.04,0,.22,0,.42,.54-.47,1.06-.8,1.73-.72,.08,.83-.99,2.13-2.01,2.43Zm3.75-5.94c-.42,.59-.88,1.14-1.39,1.78-.14-.87-.28-1.71-.4-2.56-.2-1.37-.36-2.75-.56-4.12-.1-.66-.04-1.26,.4-1.88,.28,2.12,.54,4.13,.81,6.15,.04-2.42-.79-4.78-.39-7.21,.3,2.01,.6,4.01,.89,6.02-.05-2.45-.66-4.85-.59-7.3,.04,0,.09-.01,.13-.02,.08,.55,.16,1.1,.23,1.66,.25,1.97,.49,3.94,.75,5.91,.04,.32,.2,.62,.24,.93,.03,.21,.01,.49-.11,.65Z"/>
      <path d="M38.06,39.9c-.64-.69-1.1-1.43-1.39-2.3-.06-.19-.18-.37-.36-.51,.16,.58,.33,1.16,.49,1.74-.03,.01-.07,.03-.1,.04-.35-.79-.71-1.58-1.06-2.37-.03,.01-.06,.02-.09,.03l.73,2.1c-.05,.02-.11,.04-.16,.06-.18-.47-.35-.93-.53-1.4-.02,0-.04,0-.07,.01,.06,.41,.12,.81,.17,1.22-.05,.01-.09,.02-.14,.03-.16-.75-.32-1.49-.48-2.24-.03,0-.07,.01-.1,.02,.09,.71,.17,1.42,.26,2.12-.05,.01-.09,.02-.14,.03-.08-.33-.18-.66-.25-1-.08-.35-.15-.69-.31-1.03,.08,.65,.15,1.3,.23,1.95-.43-.59-.4-1.3-.57-1.97,0,.34-.01,.68,0,1.02,.01,.32,.05,.65,.08,.97-.05,0-.11,.02-.16,.03-.09-.48-.19-.97-.28-1.45-.03,0-.06,0-.09,0v1.41s-.07,0-.1,0v-2.04c-.32,.65,0,1.41-.4,2.04v-1.56h-.06c-.03,.54-.06,1.08-.09,1.62-.03,0-.07,0-.1,.01-.06-.58-.11-1.16-.16-1.66-.05,.54-.11,1.16-.17,1.79-.06,0-.12-.01-.17-.02,.04-.59,.09-1.18,.13-1.78-.02,0-.05,0-.07-.01-.17,.63-.33,1.25-.5,1.88-.06-.01-.12-.02-.17-.03,.1-.57,.19-1.14,.29-1.71-.03,0-.05-.02-.08-.03-.21,.66-.43,1.31-.64,1.97-.06-.02-.12-.03-.18-.05l.36-1.48s-.03-.02-.05-.03c-.13,.27-.31,.52-.39,.8-.18,.65-.59,1.12-1.06,1.57-1.12,1.08-1.43,2.73-.81,4.05,.39,.83,1.06,1.38,1.85,1.76,.71,.34,1.44,.7,2.37,.58-.06,.09-.11,.16-.17,.23,.1-.01,.2-.03,.3-.05,.04-.05,.07-.09,.12-.14,.02,.04,0,.08,.02,.12,.06-.01,.11-.02,.17-.03,.04,0,.08-.02,.12-.02,.17-.06,.31-.12,.44-.12,.02,0,.04,.01,.06,.01,.43-.09,.86-.16,1.3-.2,.12-.04,.23-.08,.35-.12,1.16-.41,2.17-1.02,2.62-2.24,.51-1.37,.14-2.63-.8-3.65Zm.05,.65c.1,.37,.2,.74,.3,1.11-.05,.01-.1,.03-.14,.04-.1-.37-.19-.73-.29-1.1,.04-.02,.09-.04,.13-.05Zm-6.68,3.62c-.85-.14-1.47-.68-1.77-1.46-.26-.68-.07-1.38,.34-2.01-.06,.27-.09,.55-.18,.81-.19,.54-.04,1,.3,1.4,.21,.24,.45,.46,.71,.64,.62,.41,.98,.38,1.58-.11-.04,.52-.43,.82-.98,.72Zm1.27-3.17c-.6-.29-.87-.26-1.52,0,.42-.8,1.09-1.07,1.79-1.16,1.37-.16,2.75-.25,3.76,.84-.45,.11-.95,.17-1.4,.35-.89,.36-1.75,.39-2.63-.03Zm5.34,2.36c-.38,.44-.87,.69-1.44,.78-.41,.06-.7-.14-.85-.59,1.16,.54,1.98,.02,2.62-1.6,.15,.49,.04,1-.32,1.41Z"/>
      <path d="M20.93,14.55c-.34-.72-.68-1.43-1.01-2.15-.13-.29-.22-.61-.38-.88-.07-.12-.26-.18-.45-.3,.21,1.34,.73,2.44,1.57,3.48-.52-.16-1.16-.77-1.48-1.39-.31-.6-.59-1.21-.87-1.82-.43-.93-1.02-1.76-1.77-2.48,1.22,1.43,1.95,3.1,2.62,4.92-.31-.08-.53-.14-.74-.19-.02,.04-.05,.07-.07,.11,.68,.77,1.72,1.12,2.35,1.97-1.6-1.08-3.14-2.29-5.16-2.54,1.73,1.06,3.45,2.11,5.18,3.17-.03,.05-.05,.09-.08,.14-.62-.34-1.23-.7-1.85-1.03-.63-.34-1.24-.72-1.9-.98-.67-.27-1.38-.42-2.07-.62-.01,.04-.03,.07-.04,.11,1.72,.99,3.44,1.99,5.17,2.98-.02,.04-.04,.09-.07,.13-1.91-.94-3.76-2.04-6-2.36,1.7,1.16,3.76,1.47,5.23,2.87-.31-.16-.63-.32-.94-.49-1.08-.59-2.26-.77-3.46-.94-.64-.09-1.31-.25-1.87-.55-1.72-.92-3.12-2.22-4.08-3.94-.03-.05-.04-.12-.03-.21,1.21,1.62,2.62,2.96,4.53,3.7-1.55-1.6-3.45-2.9-4.31-5.08,1.18,1.53,2.51,2.89,4.1,3.99,.07,.05,.17,.07,.34,.14-1.53-1.45-3.05-2.79-3.96-4.64,1.19,1.22,2.19,2.65,3.76,3.46-1.48-1.34-2.83-2.79-3.73-4.59,.03-.02,.06-.04,.08-.07,.14,.25,.28,.51,.42,.76,.02,.03,.06,.05,.15,.11-.24-.82-.46-1.59-.69-2.35,.03-.02,.05-.04,.08-.05,.1,.16,.21,.31,.28,.48,.31,.76,.57,1.55,.91,2.3,.45,1,2.05,2.42,3.13,2.79-.33-.23-.66-.45-.98-.7-1.46-1.11-2.4-2.57-2.84-4.34-.13-.53-.33-.91-.93-.92-.09,0-.18-.06-.26-.16h2.08s.01-.03,.02-.04c-.67-.16-1.33-.32-2-.49l.04-.13c2.69-.08,4.92,1.11,7.05,2.57-2.07-1.85-4.59-2.71-7.28-3.33,.92-.28,4.28,.71,5.86,1.54,1.89,.99,2.84,2.81,4.08,4.39,.04-.03,.07-.06,.11-.08-.4-.63-.8-1.26-1.18-1.9-.84-1.41-2.15-2.27-3.52-3.1-1.56-.95-3.28-1.3-5.04-1.58-.1-.02-.2-.05-.28-.14,2.03,.15,4.02,.39,5.84,1.47,1.82,1.08,3.13,2.59,4.12,4.43-.14-.98-.64-1.79-1.24-2.53-.59-.73-1.25-1.39-1.86-2.05,.74,.26,1.9,1.22,2.58,2.39,.61,1.04,1.07,2.18,1.51,3.1-.27-1.3-.7-2.73-1.65-4.05,.51,.38,.94,.86,1.24,1.67,.31,.86,.49,1.77,.74,2.66,.25,.86,.51,1.71,.79,2.56,.08,.25,.21,.48,.32,.72-.06,.03-.12,.06-.18,.09Zm-3.36-2.66c-.47-1.35-3.35-3.45-4.69-3.38,1.98,.65,3.49,1.8,4.69,3.38Z"/>
      <path d="M52.18,8.25c1.26-.88,2.63-1.56,4.09-2.01,.87-.26,1.78-.38,2.67-.54,.16-.03,.34,.02,.51,.11-.76,.2-1.51,.39-2.27,.59,0,.03,.02,.06,.03,.09,.8-.06,1.6-.12,2.4-.18,0,.04,0,.08,0,.12-.42,.27-1.14-.08-1.35,.61,.03,.03,.05,.07,.08,.1l.21-.41c.05,.04,.11,.07,.16,.11-.19,1.07-.59,2.07-1.13,3.02,.04,.02,.09,.05,.13,.07,.32-.52,.63-1.05,.94-1.56,.05,.45-.07,.69-1.55,2.53-.63,.77-1.37,1.45-1.96,2.07,1.4-.64,2.32-2.05,3.49-3.26,0,.41-.6,1.28-1.66,2.38-.68,.7-1.39,1.38-2.05,2.03,.38-.04,1.14-.58,2.31-1.76,.7-.7,1.35-1.44,2.06-2.12-1.1,1.98-2.82,3.41-4.44,4.98,.97-.34,1.81-.84,2.54-1.5,.72-.65,1.36-1.39,2.05-2.1-.45,.82-.93,1.6-1.64,2.19-.83,.69-1.71,1.31-2.59,1.93-.25,.18-.59,.25-.9,.32-1.13,.27-2.27,.49-3.39,.79-.57,.15-1.12,.42-1.69,.61,1.57-1.06,3.39-1.67,5.02-2.64-1.03,.13-2.01,.46-2.96,.86-.95,.4-1.86,.88-2.79,1.32-.02-.04-.04-.07-.06-.11,1.79-1.01,3.58-2.02,5.33-3-2.2,.26-4.04,1.53-6.07,2.37,1.65-.98,3.3-1.97,4.94-2.95-1.89,.06-3.26,1.26-4.79,2.13,.76-.68,1.52-1.35,2.29-2.03-.02-.03-.04-.05-.06-.08-.38,.16-.76,.32-1.25,.53,.12-.24,.19-.38,.26-.52,.49-.97,.94-1.97,1.47-2.92,.36-.66,.83-1.26,1.25-1.88,.12-.1,.25-.2,.37-.3Zm-1.69,3.63c1.25-1.59,2.8-2.77,4.75-3.39-1.38,.05-4,1.69-4.75,3.39Zm4,.62c1.29-.68,2.34-1.58,3-2.9-.86,1.11-1.83,2.11-3,2.9Z"/>
      <path d="M7.63,17.88c-.67-.52-1.35-1.03-2-1.56-.09-.07-.09-.25-.08-.39,.94,.88,1.99,1.44,3.13,1.67-.24-.4-.45-.86-.75-1.26-.23-.31-.57-.53-.85-.8-.22-.2-.49-.38-.42-.82,.9,.35,1.59,1.04,2.6,1.22-2.4-1.79-2.54-1.93-2.37-2.49,.37,.32,.73,.62,1.08,.92,.03-.02,.06-.04,.09-.06-.12-.24-.21-.5-.36-.72-.41-.6-.85-1.18-1.26-1.78-.13-.18-.21-.4-.32-.6,.03-.03,.07-.05,.1-.08,.18,.16,.36,.31,.54,.47,.03-.02,.05-.04,.08-.06l-1.59-2.26s.06-.06,.09-.08c.3,.23,.6,.47,1,.78-.09-.23-.16-.35-.2-.48-.12-.39-.52-.72-.23-1.2,.02-.04-.08-.17-.14-.24-.23-.25-.47-.48-.69-.73-.11-.12-.19-.27-.3-.45,.73-.03,2.61,1.82,2.69,2.63-.4-.33-.75-.62-1.1-.91-.02,.02-.05,.04-.07,.07,.2,.29,.36,.61,.59,.87,.37,.41,.56,.89,.68,1.42,.23,1.08,.51,2.16,1.21,3.06,.95,1.21,2.17,2.05,3.62,2.56,.06,.02,.14,.03,.21,.03,.02,0,.04-.02,.09-.05-1.29-.79-2.57-1.58-3.43-2.85-.22-.33-.42-.68-.62-1.02l.09-.07c.13,.16,.28,.32,.4,.49,.98,1.36,2.24,2.32,3.84,2.85,.79,.26,1.54,.63,2.36,.96-2.48,.3-4.8-.51-7.19-.63-.02,.03-.03,.07-.05,.1,.16,.09,.32,.25,.49,.27,2.04,.28,4.08,.54,6.12,.79,.41,.05,.84,.04,1.26,0,.7-.07,1.31,.17,1.91,.41-.75-.08-1.53-.23-2.3-.23-.79,0-1.58,.14-2.37,.29,.23,.01,.46,.02,.69,.04,.02,.04,.04,.08,.06,.11-.77,.41-1.54,.81-2.32,1.22,1.06-.18,2.12-.36,3.18-.54,.01,.06,.02,.11,.03,.17-.38,.08-.77,.14-1.15,.24-.89,.25-1.79,.46-2.65,.78-.99,.37-1.9,.21-2.72-.35-.71-.49-1.34-1.09-1.98-1.68-.19-.17-.28-.45-.41-.68,.04-.03,.07-.05,.11-.08,.07,.05,.14,.11,.21,.16,.61,.47,1.26,.89,1.81,1.42,.45,.43,.93,.58,1.53,.56-.82-.24-1.61-.53-1.96-1.41,1.01,.65,2.14,1.02,3.38,1.39-.53-.3-.96-.53-1.38-.76-.63-.34-1.26-.67-2-.63Zm.76-3.54c.51,1.01,1.41,1.53,2.4,1.93-.8-.64-1.6-1.29-2.4-1.93Zm2.86,3.91c-.85-.43-1.79-.9-2.82-1.41,.31,.53,2.15,1.38,2.82,1.41Z"/>
      <path d="M57.71,16.9c.02-.06,.05-.13,.08-.22h-.57c.08-.08,.11-.15,.16-.17,.87-.28,1.36-1.04,2.01-1.6,.62-.52,1.28-1,1.97-1.44-.43,1.21-1.61,1.64-2.39,2.51,.79-.4,1.58-.81,2.38-1.21,.04,.06,.08,.11,.12,.17-.22,.22-.42,.45-.65,.64-.35,.29-.7,.55-.75,1.06-.01,.12-.16,.28-.29,.33-.98,.4-1.97,.78-2.97,1.16-.15,.06-.32,.08-.48,.11,0,.04,.02,.07,.02,.11,1.09-.27,2.19-.51,3.26-.82,1.08-.31,2.09-.77,2.89-1.61,.04,.02,.08,.04,.12,.06-.05,.12-.06,.3-.15,.37-.74,.53-1.45,1.12-2.25,1.52-1.01,.5-2.1,.82-3.13,1.31,.55-.16,1.09-.31,1.64-.47,.26-.07,.51-.19,.77-.21,.92-.07,1.64-.51,2.3-1.11,.05-.04,.11-.08,.24-.07-.04,.1-.06,.23-.13,.29-.71,.67-1.38,1.41-2.16,1.98-.7,.51-1.56,.57-2.42,.36-1.29-.32-2.58-.62-3.87-.94-.05-.01-.09-.05-.19-.1,1.05-.11,2.01,.37,3,.26,0-.04,.02-.09,.03-.13-.72-.31-1.45-.61-2.17-.92,0-.03,.02-.07,.03-.1,.36-.05,.73-.09,1.09-.14,0-.04,0-.07,0-.11-.78-.05-1.56-.16-2.34-.15-.79,0-1.57,.12-2.38,.11,.58-.12,1.16-.34,1.74-.35,1.84-.03,3.66-.16,5.48-.49,.78,.09,1.48-.09,2.12-.5-.02-.06-.03-.11-.05-.17l-2.08,.68Zm2.42,2s-.02-.08-.03-.13c-.62,.13-1.24,.27-1.86,.4,0,.04,.02,.07,.02,.11,.62-.13,1.25-.26,1.87-.39Z"/>
      <path d="M52.18,8.25c-.12,.1-.25,.2-.37,.3-.88,.93-1.59,1.98-2.11,3.14-.55,1.23-1.24,2.35-2.26,3.25-.05,.04-.11,.08-.06,.04,.56-1.15,1.17-2.38,1.81-3.7-.54,0-.73,.24-.87,.57-.22,.55-.42,1.1-.68,1.62-.16,.33-.41,.62-.63,.92-.03-.02-.07-.04-.1-.06,.09-.18,.19-.36,.26-.55,.29-.77,.6-1.53,.84-2.32,.31-1.02,.52-2.06,.85-3.07,.13-.41,.44-.76,.72-1.1-.32,.88-.65,1.77-.97,2.65,.06,.04,.12,.07,.19,.11,.66-2.13,1.98-3.7,3.88-4.79-1.56,1.35-2.89,2.86-3.51,4.9,1.43-2.3,3.14-4.32,5.73-5.32,1.49-.58,3.09-.75,4.7-.82-.05,.03-.09,.07-.14,.08-1.37,.33-2.76,.61-4.11,1.01-1.25,.37-2.28,1.19-3.28,2-1.29,1.05-2.15,2.42-2.83,3.91-.01,.03,0,.08,.04,.17,1.56-2.91,3.82-4.96,7.06-5.78,1-.25,2-.51,3.05-.45-.67,.2-1.34,.42-2.02,.61-1.57,.45-3.05,1.11-4.45,1.95-.29,.17-.49,.47-.74,.71Z"/>
      <path d="M62.12,8.3c.37,.03,.21,.32,.18,.46-.07,.28-.23,.54-.35,.8-.07,.16-.15,.31-.18,.5l1.01-.89s.09,.08,.14,.13c-.39,.88-1.37,1.36-1.67,2.31l.63-.57s.05,.03,.08,.04c-.05,.13-.08,.27-.15,.38-.52,.8-1.03,1.6-1.59,2.37-.23,.31-.59,.52-.88,.78-.65,.56-1.31,1.1-1.93,1.68-.43,.4-.91,.64-1.5,.64-.7,0-1.4,0-2.1-.02-.23,0-.46-.1-.69-.2,2.49-.7,4.75-1.69,6.18-3.99-.07,.65-.41,1.21-1.48,2.15-.68,.59-1.46,1.08-2.21,1.63,.68-.05,1.26-.34,1.81-.71,1.7-1.15,2.81-2.71,3.16-4.76,.1-.58,.33-1.08,.71-1.54,.3-.36,.55-.78,.82-1.17,0,0,.02-.03,.02-.03Z"/>
      <path d="M11.68,1.57c-.25-.17-.51-.33-.75-.52-.09-.07-.12-.22-.18-.33,.12-.01,.27-.07,.36-.02,.91,.47,1.71,1.07,2.07,2.13-.14-.08-.31-.13-.41-.25-.28-.31-.6-.4-1.01-.39-1.24,.06-2.45,.24-3.53,.92-1.03,.65-1.59,1.55-1.43,2.81,.02,.14-.04,.3-.07,.45-.04,0-.08,0-.12,0,.07,.11,.15,.22,.22,.34-.54-.31-1.03-.65-1.27-1.23,.03-.03,.06-.06,.09-.1,.22,.21,.44,.41,.63,.6-.11-.5-.22-1.03-.34-1.55,.05-.02,.1-.04,.16-.06,.08,.07,.16,.14,.26,.23,.71-2.09,2.43-2.63,4.4-2.82-.36-.12-.68-.22-1-.33,.01-.04,.03-.09,.04-.13,.65-.18,1.23,.07,1.86,.25Z"/>
      <path d="M54.91,2.83c0-.75,1.56-2.12,2.46-2.15-.2,.58-.83,.7-1.16,1.15,.72-.22,1.34-.72,2.1-.58,.02,.05,.03,.09,.05,.14-.33,.14-.66,.28-1.12,.47,2.14,0,3.76,.66,4.47,2.74,.06-.03,.13-.06,.18-.09,.36,.32-.13,1.61-.73,1.94,.1-.66,.21-1.28-.09-1.93-.52-1.11-1.42-1.74-2.53-2.03-.81-.21-1.66-.25-2.49-.34-.16-.02-.34,.1-.49,.2-.22,.14-.42,.3-.65,.48Z"/>
      <path d="M58.67,26.67c.13,.04,.26,.07,.38,.12,1.05,.47,2.1,.93,3.14,1.42,.5,.24,.88,.6,1.2,1.08,.41,.63,.92,1.2,1.39,1.81-.01,0-.11,.05-.23,.11,.15,.18,.29,.35,.51,.61-.83-.11-1.51-.2-2.08-.74-.27-.25-.63-.41-.95-.61-.13-.08-.26-.13-.37-.25,.49,.13,.98,.26,1.48,.38,.02-.04,.04-.08,.05-.12-.85-.44-1.69-.87-2.54-1.31,.02-.05,.04-.1,.07-.15,.74,.3,1.48,.61,2.25,.92-1.08-1.55-2.83-2.22-4.29-3.28Z"/>
      <path d="M4.8,30.81c.15,0,.31,.04,.44,0,.48-.19,.94-.41,1.43-.57-1.13,.67-2.15,1.59-3.64,1.49,.18-.17,.36-.33,.57-.52-.17-.08-.31-.14-.39-.18,.38-.33,.77-.65,1.13-1,.13-.13,.25-.32,.28-.5,.09-.5,.41-.78,.82-.99,.63-.34,1.24-.69,1.88-1,.64-.31,1.29-.57,1.97-.8-1.67,1.1-3.55,1.93-4.66,3.74,.85-.72,1.9-.94,3.01-1.21-.99,.48-1.92,.92-2.84,1.37,0,.06,0,.13,0,.19Z"/>
      <path d="M6.53,23.97c.33-1.41,1.59-1.42,2.55-1.97-.41-.07-.74-.12-1.07-.18-.9-.18-1.61-.68-2.26-1.29-.13-.12-.19-.33-.19-.54,.31,.24,.6,.5,.92,.71,.61,.4,1.29,.61,2.02,.62,.88,.02,1.76,0,2.64,0,.13,0,.27,0,.4,.07-1.32,.66-2.63,1.32-4.01,2.01h.48s.01,.06,.02,.1c-.48,.15-.95,.31-1.5,.48Z"/>
      <path d="M62.63,20.06c-.29,.6-.8,1-1.4,1.26-.58,.25-1.21,.41-1.83,.61,.44,.25,.88,.5,1.4,.79-.18,.09-.25,.13-.33,.17,.45,.25,.89,.5,1.38,.77-.64,.35-2.47-.42-3.38-1.35,.26,.06,.47,.11,.65,.16-.64-.73-1.59-.8-2.48-.99,0-.06,.02-.11,.03-.17,.31,0,.62,0,.93,0,.78-.02,1.57-.02,2.35-.07,.88-.06,1.65-.4,2.29-1.02,.09-.09,.2-.17,.31-.25,.03,.04,.07,.07,.1,.11Z"/>
      <path d="M6.47,19.18c.15,.04,.2,.04,.23,.06,1.53,1.26,3.32,1.12,5.12,.92,.53-.06,1.05-.2,1.57-.31l.03,.11c-.28,.1-.56,.21-.84,.3-.65,.21-1.31,.39-1.96,.61-1.65,.56-2.95-.09-3.94-1.22-.09-.1-.12-.26-.21-.48Z"/>
      <path d="M61.56,19.26c-.03,.1-.02,.18-.06,.22-.65,.69-1.29,1.39-2.33,1.48-.76,.07-1.49-.02-2.22-.3-.84-.33-1.72-.58-2.58-.87-.08-.03-.15-.07-.22-.13,2.5,.6,4.99,1.22,7.4-.41Z"/>
      <path d="M48.15,5.35c.63-.79,1.26-1.58,1.89-2.37,.43-.53,.87-1.06,1.3-1.59,.12-.15,.22-.32,.35-.47,.05-.05,.17-.12,.19-.1,.07,.05,.14,.14,.14,.22,0,.1-.03,.22-.08,.32-.49,.89-1,1.75-1.83,2.37-.43,.33-.8,.74-1.19,1.12-.21,.21-.38,.44-.57,.67-.07-.06-.13-.11-.2-.17Z"/>
      <path d="M19.56,5.14c-.88-.8-1.79-1.56-2.61-2.41-.4-.41-.63-.98-.91-1.49-.05-.09,.02-.24,.03-.36,.12,.05,.26,.08,.34,.16,.77,.86,1.55,1.72,2.3,2.6,.36,.43,.65,.93,.98,1.39-.04,.03-.08,.07-.12,.1Z"/>
      <path d="M57.45,22.74c.05,0,.11-.01,.16,0,1.48,.41,2.8,1.09,3.9,2.18,.06,.05,.06,.16,.08,.25-.12,.04-.27,.13-.36,.09-.41-.19-.83-.39-1.21-.64-.71-.47-1.39-.99-2.08-1.48-.17-.12-.36-.19-.54-.28,.02-.04,.03-.08,.05-.12Z"/>
      <path d="M9.64,25.2c-1.69,1.05-3,2.77-5.18,2.96,1.59-1.23,3.4-2.08,5.18-2.96Z"/>
      <path d="M58.65,25.31c1.64,.93,3.48,1.5,4.89,2.83-2.02-.27-3.37-1.71-4.89-2.83Z"/>
      <path d="M10.68,22.79c-1.43,.73-2.48,2.06-4.08,2.66,.05-.9,2.66-2.56,4.08-2.66Z"/>
      <path d="M47.94,8.38c-.13,.57-.25,1.13-.38,1.7-.09,.4-.19,.79-.27,1.19-.21,1.17-.74,2.18-1.51,3.08-.65,.75-1.22,1.56-1.83,2.35-.08,.1-.16,.19-.32,.24,.06-.11,.11-.22,.19-.32,.44-.58,.85-1.18,1.34-1.72,.84-.94,1.4-2.01,1.67-3.24,.19-.84,.45-1.67,.69-2.51,.08-.27,.21-.53,.32-.8,.04,.01,.07,.02,.11,.03Z"/>
      <path d="M22.85,9.92c.83,1.15,1.69,2.37,2.57,3.57,.83,1.13,1.69,2.23,2.53,3.35,.21,.28,.36,.61,.54,.92-.03,.02-.06,.04-.09,.05-.22-.3-.43-.61-.65-.91-1.42-1.89-2.84-3.78-4.26-5.67-.32-.42-.61-.87-.63-1.31Z"/>
      <path d="M39.54,17.62c.1-.17,.18-.36,.3-.52,1.26-1.64,2.54-3.27,3.78-4.92,.44-.59,.79-1.25,1.18-1.88,.14-.24,.27-.48,.41-.72,.03,.02,.07,.03,.1,.05-.16,.36-.28,.74-.47,1.08-.89,1.61-2.03,3.04-3.22,4.45-.69,.82-1.36,1.66-2.03,2.5-.02-.01-.04-.02-.05-.03Z"/>
      <path d="M44.73,13.49c1.34-1.74,1.55-3.97,2.56-5.85,.04-.08,.12-.13,.21-.23-.31,2.13-1.79,5.41-2.78,6.08Z"/>
      <path d="M16.63,3.45c-.81-1.02-1.62-2.04-2.42-3.07-.06-.07,0-.23,.05-.37,1.02,.98,2.02,1.97,2.53,3.31-.05,.04-.11,.09-.16,.13Z"/>
      <path d="M23.18,13.35c-1.59-1.55-1.9-3.68-2.53-5.66,.05-.02,.09-.04,.14-.07,.1,.21,.21,.42,.29,.64,.38,1.08,.72,2.18,1.14,3.24,.25,.64,.64,1.23,.97,1.84Z"/>
      <path d="M20.2,8.26c.15,.46,.32,.91,.46,1.37,.27,.91,.49,1.84,.79,2.74,.2,.58,.5,1.12,.77,1.67,.08,.17,.19,.32,.27,.5-.73-.57-1.09-1.38-1.35-2.21-.4-1.29-.7-2.61-1.05-3.93,0-.03,.01-.07,.02-.11,.03,0,.06-.02,.09-.03Z"/>
      <path d="M27.16,21.15c-1.44-2.05-2.88-4.09-4.38-6.23,1.74,1.98,3.35,3.9,4.38,6.23Z"/>
      <path d="M53.94,0c-.06,.21-.07,.35-.14,.44-.74,.94-1.48,1.86-2.23,2.79-.06,.07-.15,.11-.24,.18,.04-.78,1.73-3.03,2.61-3.42Z"/>
      <path d="M55.21,0c-.07,.21-.08,.38-.17,.47-.74,.74-1.5,1.47-2.26,2.2-.05,.04-.12,.06-.19,.09,.04-.68,1.65-2.43,2.62-2.76Z"/>
      <path d="M15.44,2.79c-.23-.19-.39-.3-.53-.43-.55-.53-1.11-1.07-1.65-1.62-.15-.15-.26-.32-.37-.5-.03-.05,0-.16,.04-.22,.02-.03,.15-.03,.18,0,.81,.8,1.78,1.46,2.3,2.52,.02,.03,.01,.08,.03,.23Z"/>
      <path d="M62.12,8.3s-.02,.03-.02,.03c-.45,.36-.89,.72-1.37,1.11-.03-.75,1.9-2.56,2.6-2.45-.42,.45-.81,.88-1.21,1.32Z"/>
      <path d="M56.09,.55c-.14,.58-1.61,1.88-2.35,2.09,.04-.47,1.65-1.92,2.35-2.09Z"/>
      <path d="M14.32,2.66c-.91-.54-1.85-1.05-2.28-2.1,.87,.58,1.75,1.15,2.28,2.1Z"/>
      <path d="M40.87,21.23c.73-1.25,1.29-2.6,2.3-3.67-.68,1.28-1.27,2.61-2.3,3.67Z"/>
      <path d="M5.24,5.79c.79,.76,1.57,1.52,2.36,2.29-.05,.05-.1,.1-.15,.15-.82-.73-1.82-1.28-2.35-2.3,.05-.04,.09-.09,.14-.13Z"/>
      <path d="M56.64,22.5c-1.77-.19-3.54-.39-5.31-.58,1.81-.13,3.58,.11,5.31,.58Z"/>
      <path d="M60.55,8.01c.76-.68,1.51-1.35,2.27-2.03,.02-.02,.08,0,.12,0,.01,.3-.59,1.04-1.25,1.45-.36,.23-.65,.6-1.07,.73-.02-.05-.05-.1-.07-.15Z"/>
      <path d="M39.28,18.93c1.08-1.32,2.15-2.64,3.23-3.96l.13,.1c-1.07,1.33-2.14,2.65-3.21,3.98-.05-.04-.1-.08-.15-.12Z"/>
      <path d="M25.54,15.04c.88,1.19,2.03,2.18,2.64,3.57-.87-1.2-1.97-2.22-2.64-3.57Z"/>
      <path d="M27.98,19.79c-.84-1.15-1.68-2.3-2.53-3.44,.99,1.05,2,2.08,2.53,3.44Z"/>
      <path d="M11.51,22.56c.77-.39,3.44-.81,4.18-.64-1.36,.21-2.71,.41-4.18,.64Z"/>
      <path d="M40.06,19.64c.64-1.35,1.6-2.46,2.65-3.5-.88,1.17-1.77,2.34-2.65,3.5Z"/>
      <path d="M62.45,5.22c.18,.48-.47,1.34-1.26,1.61,.41-.52,.81-1.03,1.26-1.61Z"/>
      <path d="M8.54,28.3c-.97,.41-1.95,.82-2.92,1.23-.02-.05-.04-.09-.06-.14,.98-.4,1.95-.81,2.93-1.21,.02,.04,.03,.08,.05,.12Z"/>
      <path d="M37.23,24.85v2.61c-.34-.87-.13-1.74,0-2.61Z"/>
      <path d="M59.53,28.2c.77,.31,1.53,.63,2.3,.94-.01,.03-.03,.07-.04,.1-.77-.3-1.54-.61-2.31-.91,.02-.05,.04-.09,.05-.14Z"/>
      <path d="M6.65,34.48c.89,.13,1.78,.25,2.72,.39-.98,.25-1.83-.24-2.72-.39Z"/>
      <path d="M14.54,20.91c-.71,.17-1.42,.35-2.13,.52-.01-.05-.02-.09-.04-.14,.71-.17,1.42-.34,2.12-.51l.04,.13Z"/>
      <path d="M42.81,15.91c.45-.55,.91-1.09,1.36-1.64-.26,.71-.78,1.19-1.36,1.64Z"/>
      <path d="M24.81,15.7c-.35-.44-.71-.88-1.06-1.33,.03-.03,.07-.06,.1-.09,.37,.43,.73,.86,1.1,1.3-.04,.04-.09,.08-.13,.11Z"/>
      <path d="M14.73,20.7c.66-.32,1.35-.16,2.04-.09-.68,.03-1.36,.06-2.04,.09Z"/>
      <path d="M16.9,4.48c.49-.1,.74,.1,.81,.64-.3-.24-.52-.41-.81-.64Z"/>
      <path d="M11.91,3.57c-.49-.09-.98-.18-1.47-.27,0-.03,.01-.07,.02-.1,.49,.06,.98,.12,1.47,.18,0,.06-.01,.12-.02,.19Z"/>
      <path d="M50.32,4.87c.2-.18,.4-.36,.66-.6,.08,.1,.16,.19,.25,.29-.32,.16-.57,.29-.82,.42-.03-.04-.06-.07-.09-.11Z"/>
      <path d="M57.89,3.3c-.54,.09-1.08,.18-1.63,.27,0-.04-.01-.08-.02-.11,.54-.1,1.08-.19,1.62-.29,0,.05,.02,.09,.02,.14Z"/>
      <path d="M58.78,34.76h1.62c-.56,.21-1.12,.27-1.62,0Z"/>
      <path d="M52.86,20.53c-.54,.03-1.08,.07-1.62,.1,0-.03,0-.07,0-.1h1.63Z"/>
      <path d="M15.42,4.42c-.39-.08-.78-.16-1.18-.24,0-.05,.02-.1,.03-.15l1.16,.24s-.01,.1-.02,.15Z"/>
      <path d="M49.15,6.26c-.18,.31-.36,.62-.54,.93-.04-.02-.09-.05-.13-.07,.18-.31,.37-.62,.55-.93,.04,.03,.08,.05,.12,.08Z"/>
      <path d="M19.15,6.31c.17,.31,.35,.62,.52,.93-.05,.02-.09,.05-.14,.07-.17-.31-.33-.62-.5-.93,.04-.03,.08-.05,.11-.08Z"/>
      <path d="M54.38,21.08c.41,.04,.82,.08,1.23,.12,0,.04,0,.08-.01,.11-.41-.04-.81-.09-1.22-.13v-.11Z"/>
      <path d="M36,31.7c.12,.52,.24,1.04,.36,1.55-.05,.01-.09,.02-.14,.03-.11-.51-.22-1.03-.33-1.54,.04-.01,.08-.03,.12-.04Z"/>
      <path d="M42.04,48.65c-.33-.23-.66-.46-1.03-.71,.49-.03,.79,.21,1.02,.72,0,0,.01-.01,.01-.01Z"/>
      <path d="M31.67,33.3c.07-.4,.14-.8,.22-1.21,.05,0,.1,.02,.15,.03-.08,.4-.16,.8-.23,1.2-.04,0-.08-.02-.13-.03Z"/>
      <path d="M32.88,34.98v-1.11s.06,0,.08,0v1.1s-.06,0-.08,0Z"/>
      <path d="M27.08,47.94c-.28,.19-.57,.39-.85,.58-.03-.04-.06-.08-.09-.12,.28-.19,.56-.39,.84-.58,.03,.04,.06,.08,.1,.12Z"/>
      <path d="M46.07,37.75c-2.97,0-5.93-1.89-7.19-5.13-1.17-3.03-.08-6.14,1.98-7.9,3.7-3.15,8.97-2.06,11.31,1.69,2.14,3.42,1.06,7.3-1.63,9.63-1.3,1.13-2.77,1.71-4.48,1.71Zm-3.26-12.17c.03,.05,.06,.11,.09,.16,.83-.34,1.65-.67,2.48-1.01,.02,.04,.03,.07,.05,.11-.68,.38-1.36,.76-1.9,1.33,.02,.04,.04,.08,.06,.12,1.23-.48,2.46-.97,3.69-1.45l.03,.09c-1.02,.5-2.03,1-3.05,1.49,1.11,.14,1.99-.46,2.96-.78,.01,.03,.03,.07,.04,.1-.7,.38-1.4,.77-2.09,1.15,.18,.08,.34,.11,.49,.07,.66-.18,1.31-.4,1.97-.55,.38-.09,.79-.06,1.18-.09,0,.01-.01,.03-.02,.04-.94,.31-1.88,.61-2.82,.92,.01,.05,.02,.1,.04,.15,.95,0,1.87-.44,2.85-.21-.75,.18-1.49,.37-2.24,.55v.12c.83,.08,1.65,.15,2.48,.23,0,.05,0,.1,0,.14-.47,.07-.94,.14-1.42,.21,1.22,.42,2.58,.11,3.73,.8-1.03-.16-2.06-.39-3.13-.14,1.48,.43,2.96,.86,4.44,1.29,.03-.09,.05-.13,.05-.16-.13-1.45-.44-2.85-1.39-3.99-1.62-1.95-3.68-2.97-6.3-2.8-1.56,.1-2.36,1.12-3.13,2.27,.98-.67,1.89-1.45,3.19-1.77-.85,.58-1.6,1.09-2.35,1.6Zm-1.44,4.23c-.37,.63-.39,1.32,0,1.77,.72,.85,1.6,1.38,2.78,1.24,1.52-.18,2.44-1.28,2.26-2.71-.02-.15-.09-.29-.14-.44-.04,0-.07,0-.11,0-.14,.67-.29,1.33-.84,1.81-.54,.47-1.14,.77-1.87,.68-1.32-.16-1.8-1.11-2.07-2.34Zm3.11-1.12c0-.44-.37-.82-.78-.82-.46,0-.93,.44-.92,.85,0,.46,.39,.83,.87,.83,.48,0,.83-.36,.83-.86Zm8.18,2.47c.14-.62,.13-.61-.36-.71-.67-.13-1.34-.26-2-.41-.43-.1-.84-.23-1.27-.35-.02,.05-.03,.1-.05,.16,1.21,.43,2.43,.86,3.68,1.31Zm-10.35,4.94s.09-.08,.14-.12c-.78-.91-1.56-1.81-2.33-2.72-.05,.04-.1,.08-.15,.12,.46,1.17,1.37,1.97,2.34,2.71Zm7.26-5.59c.89,.66,1.95,.92,3.04,1.2-.03-.17-.09-.35-.2-.38-.94-.29-1.89-.55-2.84-.82Zm-8.82-.89c.54-1.03,.98-2.12,2-2.82-1.28,.5-1.74,1.59-2,2.82Zm5.78,3.01c-.7,.24-1.44,.5-2.09,.72,.53,.19,1.63-.17,2.09-.72Zm-3.8-8.39c-.57,.21-1.09,.48-1.33,1.09,.44-.36,.88-.72,1.33-1.09Zm8.55,7.47s-.02,.09-.04,.13c.31,.14,.62,.3,.94,.42,.06,.03,.16-.04,.24-.06-.05-.08-.08-.21-.15-.23-.33-.1-.67-.18-1-.26Zm-11.88,.92l.19,.03c.05-.29,.47-.54-.05-.98-.06,.38-.1,.67-.14,.95Zm-.06-1.75c-.06,0-.11,0-.17-.01-.16,.17-.24,.37-.11,.6,.03,.05,.18,.03,.28,.04v-.63Z"/>
      <path d="M52.98,49.34c-.41-.2-.82-.41-1.23-.61,.02-.04,.04-.08,.06-.12,.42,.2,.83,.4,1.25,.6-.03,.05-.06,.09-.08,.14Z"/>
      <path d="M21.91,37.75c-4.24,.07-7.01-3.68-7.11-7.23-.14-4.69,3.7-7.41,6.94-7.61,4.59-.28,7.95,3.33,7.91,7.22-.03,3.48-2.93,7.73-7.74,7.62Zm.7-12.94s.04-.09,.06-.14c.86,.37,1.71,.74,2.57,1.11,.02-.04,.04-.08,.05-.11-.63-.78-1.61-1.05-2.38-1.64,1.21,.33,2.29,.9,3.21,1.77-.57-1.05-1.3-1.93-2.5-2.2-3.87-.85-7.66,2.13-8.16,5.43-.1,.67-.11,1.35-.17,2.14,1.31-.51,2.59-.69,3.66-1.45-1.09,.29-2.19,.58-3.28,.87l-.04-.14c1.37-.44,2.75-.88,4.12-1.32-.01-.06-.03-.13-.04-.19-1.14,.16-2.28,.31-3.45,.48,1.35-.61,2.82-.51,4.19-.84,0-.04,0-.08-.01-.12-.52-.06-1.04-.11-1.55-.17,.33-.46,.77-.24,1.16-.27,.43-.03,.85-.03,1.28-.05v-.16c-.68-.2-1.37-.39-2.05-.59,.01-.05,.02-.1,.03-.15,.86,.11,1.72,.22,2.58,.33,.01-.06,.02-.11,.03-.17-.93-.3-1.86-.59-2.79-.89,.51-.1,1.03-.04,1.54,.11,.5,.15,.98,.33,1.48,.46,.24,.06,.49,.05,.74,.06,0-.03,0-.06,0-.1l-2.03-1.09s.04-.08,.06-.12c.48,.18,.96,.37,1.45,.53,.47,.16,.95,.3,1.43,.45,.02-.06,.05-.12,.07-.18-1.04-.49-2.07-.98-3.11-1.46,0-.02,.02-.05,.03-.07,1.23,.42,2.47,.84,3.7,1.26,.02-.04,.04-.08,.06-.12-.31-.23-.62-.47-.94-.67-.32-.21-.66-.39-1-.58Zm-.7,4.82c-.08,.18-.19,.36-.22,.55-.15,.79,.33,1.81,1.02,2.25,1.46,.94,3.25,.19,4.05-.87,.36-.48,.29-1.22-.08-1.59-.24,1.36-1.11,2.17-2.4,2.21-1.15,.04-1.85-.74-2.36-2.55Zm2.49-.07c.49,0,.88-.38,.88-.88,0-.4-.43-.8-.87-.81-.48,0-.82,.32-.82,.81,0,.5,.34,.88,.81,.88Zm3.69,3.9c-1.01,.6-1.5,1.64-2.16,2.54,.93-.67,1.65-1.52,2.16-2.54Zm-9.61-2.85s-.03-.07-.05-.1c-.36,.14-.71,.3-1.08,.4-.52,.15-1.06,.24-1.59,.38-.12,.03-.2,.2-.3,.3,.13,.03,.27,.12,.38,.09,.59-.17,1.18-.35,1.75-.57,.31-.12,.59-.33,.88-.5Zm8.67-1.2c.1-1.1-1.03-2.63-1.98-2.67,.97,.69,1.65,1.55,1.98,2.67Zm1.59,3.25c-.04-.35-.09-.69-.13-1.07-.51,.31-.49,.59,.13,1.07Zm-2.29-7.44s.07-.09,.11-.13c-.47-.38-.93-.76-1.4-1.13-.04,.04-.07,.09-.11,.13,.46,.38,.93,.76,1.39,1.13Zm-2.9,8.12c-.61-.19-1.27-.4-2-.63,.67,.49,1.32,.78,2,.63Zm-7.83-.92c.42-.19,.79-.35,1.26-.56-.78-.06-1.24,.14-1.26,.56Z"/>
      <path d="M34.73,66.24c.05,.13,.14,.26,.15,.4,.06,1.72,.12,3.44,.17,5.16,0,.04,0,.08-.07,.13-.17-1.88-.56-3.75-.41-5.65,.05,0,.11-.02,.16-.03Z"/>
      <path d="M34.19,71.41c-.1-1.56-.2-3.12-.28-4.68,0-.16,.09-.32,.14-.49,.05,0,.11,.01,.16,.02v5.15s-.01,0-.02,0Z"/>
      <path d="M33.15,70.12c.03-.57,.06-1.14,.08-1.71,.01-.66,0-1.31,.08-2.06,.11,.11,.31,.22,.3,.32-.08,1.06-.19,2.11-.31,3.16-.01,.1-.1,.19-.15,.28h0Z"/>
      <path d="M33.15,70.11v2.22s-.1,0-.14,0c-.15-.74,.02-1.48,.14-2.21,0,0,0,0,0,0Z"/>
      <path d="M11.3,41.81c-.36-.06-.72-.12-1.08-.18,.01-.06,.02-.11,.03-.17,.36,.08,.73,.15,1.09,.23-.01,.04-.02,.08-.04,.12Z"/>
    </g>
  </g>
  <ellipse cx="33.62" cy="48.35" rx="2.5" ry="1"/>
</svg>