<?xml version="1.0" encoding="UTF-8"?>
<svg id="Layer_1" data-name="Layer 1" xmlns="http://www.w3.org/2000/svg" viewBox="0 0 68.12 76.6">
  <g id="_2OD6RD" data-name="2OD6RD">
    <g>
      <path d="M39.22,10.96c-.09,.21-.22,.41-.27,.63-.7,2.62-1.42,5.24-2.07,7.87-.56,2.26-.95,4.55-1,6.89,0,.15,0,.31-.04,.46-.09,.36,.09,.42,.4,.38,.14-1.58,.08-3.2,1.01-4.6-.66,1.4-.72,2.9-.84,4.4-.02,.25,.05,.4,.27,.5,.25,.12,.49,.25,.82,.42,.06-.43,.15-.82,.16-1.22,.05-1.26,.27-2.48,.92-3.58,.03-.05,.06-.09,.12-.13-.2,.9-.73,1.73-.48,2.71,.34-.58,.27-1.34,.84-1.92v.97c.29-.41,.55-.77,.82-1.14,.04,.03,.08,.05,.12,.08-.04,.1-.08,.21-.15,.37,.74-.41,1.23-.99,1.77-1.53,1.32-1.31,2.68-2.58,4.03-3.87,.04-.04,.09-.06,.14-.09,.03,.03,.06,.06,.09,.09-1.35,1.31-2.69,2.61-4.04,3.92,.03,.04,.05,.08,.08,.11,.46-.27,.96-.49,1.37-.82,1.79-1.42,3.82-2.32,6.05-2.77,.53-.11,1.06-.28,1.58-.42,.13-.03,.27-.06,.41-.06-2.58,.93-5.36,1.39-7.54,3.3,.49-.07,.95-.16,1.41-.2,2.51-.24,4.61,.65,6.45,2.3,1.13,1.01,1.95,2.23,2.32,3.72,.05,.21,.15,.29,.38,.29,.9,0,.95-.04,1.24-.91,.37-1.1,.76-2.19,1.15-3.28,.12-.33,.52-.5,.85-.36,.12,.05,.24,.1,.33,.18,1.03,.87,2.23,1.42,3.46,1.93,.66,.27,1.29,.65,1.93,.98-.01,.06-.02,.11-.04,.17-.19,0-.39,.04-.56,0-.94-.26-1.8-.68-2.59-1.25-.58-.42-1.2-.78-1.79-1.17-.2-.13-.32-.06-.38,.14-.43,1.43-.9,2.85-1.27,4.3-.2,.78-.77,1.36-1.6,1.4-.19,0-.39,0-.56,0-.1,.67-.2,1.3-.27,1.94-.01,.11,.14,.29,.25,.34,.54,.21,1.1,.39,1.64,.62-.72,.05-1.38-.2-2.03-.48-.03,.04-.05,.07-.08,.11,.13,.11,.24,.26,.39,.32,.76,.31,1.53,.61,2.3,.91,.1,.04,.2,.07,.28,.14-1.08,.05-2.05-.33-2.99-.8,1.07,.9,2.31,1.38,3.7,1.56-.33,.17-.67,.12-1.01,.08-.36-.05-.72-.12-1.07-.2-.35-.08-.7-.17-1.06-.22,1.1,.63,2.33,.87,3.54,1.2-.87,.32-1.72,.03-2.57-.08,0,.04-.02,.07-.03,.11,.97,.27,1.93,.53,2.9,.8,0,.05-.02,.1-.03,.15-1.02,.13-2.04,0-3.05-.13,0,.03-.01,.07-.02,.1,.43,.1,.87,.2,1.34,.31-.09,.02-.14,.03-.2,.04,0,.03,0,.07-.01,.1,.85,.1,1.69,.21,2.54,.31,0,.02,.01,.04,.02,.07-.68,.17-1.35,.34-2.03,.5,0,.05,0,.09,.01,.14,.66-.05,1.39,.06,1.97-.18,1.2-.51,2.32-1.21,3.47-1.83,.09-.05,.14-.16,.19-.28-.93,.38-1.84,.86-2.9,.56,1.55-.27,2.97-.77,3.87-2.2-1.47,.97-2.97,1.8-4.81,1.49,.82-.18,1.7-.25,2.48-.57,.8-.32,1.56-.83,2.15-1.66-.82,.4-1.55,.3-2.3,.05-.68-.23-1.38-.42-2.07-.67,1.35,.04,2.62,.91,4.1,.34-1.94-.6-3.81-1.18-5.81-1.79,2.33,.22,4.33,1.43,6.65,1.38-1.88-1.15-3.98-1.44-5.97-2.04,.01-.04,.02-.08,.04-.12,.77,.18,1.55,.34,2.31,.54,1.21,.31,2.4,.65,3.61,.96,.67,.18,.72,.23,.72,.92,0,.07,.04,.17,.1,.2,.95,.53,1.21,1.46,1.34,2.42,.05,.33,.12,.59,.34,.86,.52,.63,.34,1.35,.1,2.03-.07,.2-.05,.33,0,.53,.12,.42,.22,.88,.17,1.31-.12,1.1,.01,2.17,.16,3.26,.24,1.72,.38,3.45,.6,5.18,.12,.91,.24,1.84,.48,2.72,.23,.85,.12,1.59-.39,2.26-.4,.54-.86,1.03-1.29,1.55-.08,.1-.15,.25-.13,.36,.21,1.64-.68,3.05-2.25,3.57-.05,.02-.1,.04-.19,.07,.17,1.01,.63,2.04-.12,3.02-.67,.88-1.53,1.37-2.62,1.49-.3,2.02-1.73,3.26-3.74,3.21-.04,.96-.63,1.61-1.33,2.17-.72,.57-1.55,.82-2.43,.74-.24,.4-.4,.84-.71,1.13-.89,.84-1.92,1.35-3.2,1.1-.09-.02-.25,.09-.3,.18-.62,1.31-2.5,2.11-3.92,1.67-.11-.03-.32,.07-.39,.18-.69,.96-1.69,1.27-2.79,1.27-.44,0-.88-.22-1.33-.34-.62,1.09-2.57,1.42-4.17,.55-.75,1.12-3.35,1.29-4.65,.2-1.72,.65-3.29,.55-4.68-.75-1.3,.85-3.51,.1-4.24-.84-.2-.26-.4-.37-.75-.25-.57,.19-1.14,.1-1.68-.14-.84-.36-1.65-.78-2.14-1.62-.04-.07-.21-.11-.31-.1-1.43,.17-2.99-.71-3.61-2.03-.05-.11-.21-.26-.3-.25-.72,.12-1.35-.11-1.91-.5-.48-.33-.94-.71-1.31-1.16-.24-.29-.29-.73-.44-1.17-.9,.09-1.66-.35-2.38-.95-.73-.6-1.28-1.26-1.16-2.3-.24-.04-.47-.07-.7-.12-1.06-.22-2.31-1.52-2.37-2.57-.03-.46,.14-.93,.22-1.4,.02-.12,.04-.25,.06-.37-.97-.19-1.56-.85-2.09-1.58-.58-.8-.43-1.67-.22-2.54-.99-.62-1.78-1.39-2-2.57-.06-.31-.04-.65,.05-.95,.54-1.8,.73-3.64,.9-5.5,.12-1.35,.36-2.69,.51-4.04,.05-.4,0-.81-.04-1.21-.09-.79-.15-1.56,.26-2.29,.06-.1,.03-.27,0-.4-.05-.23-.17-.46-.18-.69-.01-.3-.06-.71,.1-.88,.41-.43,.4-.9,.42-1.42,.01-.26,.18-.51,.29-.76,.06-.13,.18-.23,.22-.35,.19-.55,.57-.92,1.14-1.14-.13-.2-.25-.38-.41-.63,.33-.13,.65-.28,.98-.36,1.99-.53,3.99-1.05,6.01-1.53-2.02,.67-4.05,1.34-6.07,2.01,.01,.06,.03,.11,.04,.17,.96,.06,1.91-.07,2.84-.36,1.09-.35,2.2-.66,3.3-.98,.1-.03,.2-.02,.42-.04-1.95,.64-3.79,1.25-5.63,1.86,.64,.26,1.27,.22,1.89,.07,.61-.15,1.21-.34,1.82-.46-1.22,.47-2.42,1.04-3.88,.82,.54,.68,1.09,1.26,1.86,1.49,.74,.22,1.51,.31,2.24,.46-.53,.18-1.6,.16-2.39-.21-.76-.34-1.45-.81-2.11-1.19,.14,.48,.71,1.12,1.56,1.5,.7,.31,1.44,.53,2.1,.77-.6,.12-.81,.24-2.74-.62,.31,.26,.6,.56,.94,.76,.82,.49,1.63,1.02,2.5,1.36,.8,.31,1.67,.26,2.48-.16-.97,.16-1.82-.2-2.67-.58,1.38,.26,2.67-.03,3.92-.57-1.13,.22-2.25,.32-3.37-.1,1.16-.15,2.33-.27,3.34-.94-.88,.23-1.76,.45-2.67,.18,1.16-.38,2.3-.75,3.43-1.13l-.04-.15c-.98,.12-1.89,.72-2.92,.51-.04,0-.06-.08-.13-.16,1.44-.1,2.59-.81,3.8-1.38l-.04-.12c-.24,.08-.47,.17-.71,.25-.58,.19-1.17,.38-1.76,.55-.14,.04-.31,0-.46-.06,.5-.19,1-.35,1.49-.57,.46-.2,.99-.26,1.37-.6-.02-.05-.04-.1-.06-.15-.7,.17-1.39,.33-2.09,.5-.01-.06-.03-.11-.04-.17,.39-.11,.78-.23,1.18-.34,.81-.22,.8-.22,.72-1.06-.05-.51-.08-1.03-.12-1.52-.35-.02-.72-.01-1.06-.08-.64-.13-1-.57-1.17-1.19-.29-1.08-.59-2.16-.88-3.24-.13-.48-.25-.97-.4-1.52-.17,.09-.29,.15-.39,.22-.95,.64-1.89,1.31-2.87,1.91-.45,.27-.97,.42-1.48,.57-.18,.05-.4-.04-.6-.06,0-.04,0-.09,0-.13,.62-.31,1.24-.62,1.86-.95,1.05-.56,2.12-1.09,3.13-1.71,.39-.24,.7-.57,1.21-.5,.27,.04,.38,.14,.47,.43,.36,1.26,.76,2.52,1.17,3.77,.04,.13,.25,.25,.4,.29,.3,.07,.61,.07,.94,.1,.67-2.21,1.91-3.99,3.95-5.17,2.01-1.16,4.13-1.48,6.47-.9-2.51-1.52-5.03-2.79-7.87-3.27,1.8-.01,3.45,.59,5.02,1.36,1.58,.77,3.07,1.71,4.66,2.61-1.13-1.69-3.01-2.53-4.09-4.18,.07,.05,.15,.09,.21,.14,1.06,.92,2.13,1.82,3.16,2.76,.42,.38,.73,.89,1.13,1.3,.44,.46,.93,.87,1.47,1.37,.04-.29,.06-.43,.1-.68,.28,.56,.52,1.04,.76,1.52,.04-.02,.07-.03,.11-.05-.05-.32-.09-.64-.14-.96,.05-.02,.1-.03,.14-.05,.28,.69,.56,1.38,.88,2.15,.14-.64,0-1.17-.19-1.69-.19-.52-.4-1.03-.57-1.56,.73,1.11,1.25,2.28,1.17,3.64-.02,.36,.02,.72,.07,1.08,.02,.15,.13,.28,.2,.42l.14-.03v-2.86c.06,0,.13,0,.19,0,.1,.91,.2,1.82-.14,2.74,.5-.1,.71-.32,.74-.8,.09-1.39,.04-2.77-.36-4.12,.5,1.44,.72,2.9,.48,4.43,.42-.05,.56-.27,.54-.66-.07-1.87-.3-3.72-.72-5.53-.62-2.61-1.24-5.23-1.94-7.82-.32-1.18-.9-2.29-1.27-3.47-.51-1.59-1.38-2.99-2.18-4.43-.03-.06-.07-.11-.16-.14,.58,1.32,1.16,2.65,1.75,3.97h.05c-.09-.27-.18-.53-.27-.8,.47,.39,2.96,8.49,2.99,10-.11-.22-.23-.43-.33-.65-.56-1.34-1.08-2.7-1.67-4.03-.82-1.87-1.67-3.73-2.53-5.58-.35-.76-.77-1.49-1.16-2.23-.03,.02-.07,.03-.1,.05,.38,.79,.78,1.57,1.15,2.36,.32,.68,.63,1.37,.94,2.06,.66,1.5,1.35,2.98,1.97,4.5,.41,.99,.72,2.03,1.06,3.05,.04,.12,.02,.26-.06,.42-.05-.14-.1-.28-.15-.41-.3-.76-.55-1.55-.92-2.28-1.18-2.31-2.4-4.59-3.6-6.89-.17-.33-.3-.7-.46-1.03-.18-.36-.38-.7-.62-1.03,1.27,3.44,3.15,6.58,4.69,9.9-.67-.68-1.1-1.52-1.56-2.35-.83-1.47-1.67-2.94-2.54-4.4-.17-.29-.48-.5-.72-.75-.03,.03-.05,.05-.08,.08,.89,1.49,1.78,2.98,2.67,4.47l-.11,.08c-.24-.31-.49-.61-.73-.92-.24-.33-.47-.66-.7-1-.59-.85-1.14-1.74-1.78-2.55-1-1.27-1.79-2.72-3.04-3.8-.7-1.57-2.18-2.54-3.02-4.01-.14-.25-.23-.53-.35-.79,.04-.03,.09-.05,.13-.08,.1,.09,.2,.18,.29,.27,.65,.67,1.27,1.38,1.95,2.02,.56,.53,1.03,1.1,1.36,1.79,.12,.26,.27,.51,.41,.77,.04-.02,.08-.04,.12-.06-.31-.59-.6-1.19-.92-1.78-.15-.27-.32-.53-.5-.77-.18-.25-.16-.46,.08-.68,1.62,1.48,1.96,3.57,2.76,5.45-.22-.79-.41-1.58-.66-2.36-.25-.78-.55-1.55-.83-2.32,.05-.03,.1-.07,.15-.1,.16,.17,.36,.31,.48,.51,.84,1.44,1.31,3.02,1.79,4.6,.04,.14,.08,.29,.19,.43,0-.08,.03-.17,.01-.24-.13-.52-.24-1.04-.4-1.54-.33-1.03-.68-2.04-1.02-3.07-.02-.07-.05-.14-.04-.2,.02-.13,.07-.25,.1-.37,.1,.08,.21,.14,.29,.24,.42,.48,.83,.97,1.26,1.45,.06,.06,.15,.09,.27,.16-.15-.29-.27-.52-.38-.75,.04-.03,.08-.07,.12-.1,.35,.25,.69,.5,1.04,.75,.03-.03,.07-.05,.1-.08-.14-.27-.29-.53-.47-.88,.69-.06,.86,.7,1.39,.76-.07-.31-.13-.63-.2-.94,.05-.02,.1-.03,.14-.05,.32,.24,.34,.8,.87,.9v-.86c.51,.08,.3,.97,.96,.8-.05-.2-.1-.38-.18-.7,.41,.23,.71,.4,1,.57,.02-.02,.05-.04,.07-.06-.07-.17-.15-.34-.19-.52-.02-.1,.03-.22,.05-.33,.11,.04,.25,.04,.32,.12,.18,.21,.33,.45,.51,.68,.29-.01,.37-.16,.26-.41-.1-.23-.21-.46-.31-.69-.05-.11-.07-.23-.05-.38,.57,.35,.71,.99,1.08,1.48,.05,0,.09,0,.14,0l.07-1.29s.07-.03,.11-.05c.24,.34,.48,.68,.76,1.09,.02-.28,.03-.5,.04-.72,.03-.02,.06-.03,.1-.05,.15,.18,.3,.36,.51,.61-.05-.43-.1-.77-.14-1.11,.04-.01,.07-.02,.11-.03,.29,.48,.58,.96,.93,1.55,.07-.58,.12-1.07,.19-1.66,.46,.49,.29,1.23,.92,1.51,.14-.12,.29-.24,.44-.37,.04,.06,.07,.11,.14,.23,.16-.48,.3-.91,.45-1.34,.05,0,.09,0,.14-.01,.08,.46,.16,.92,.24,1.36,.3-.38,.61-.76,.95-1.2v.86c.16-.33,.26-.54,.37-.76,.03,0,.06,.01,.09,.02v.79s.07,.03,.1,.04c.24-.29,.48-.57,.75-.89,.28,.47-.34,.89,.18,1.29,.15-.2,.3-.39,.45-.59,.11-.15,.19-.32,.32-.44,.13-.12,.29-.2,.44-.29-.05,.16-.1,.32-.15,.48-.09,.28-.18,.56-.27,.84,.05,.02,.1,.05,.14,.07,.11-.13,.22-.26,.34-.39,.12-.13,.24-.28,.39-.38,.07-.05,.2-.02,.31-.02,0,.1,.02,.21,0,.3-.06,.2-.15,.39-.23,.58,.03,.02,.07,.04,.1,.06,.15-.11,.3-.24,.46-.34,.16-.09,.34-.14,.63-.26-.09,.33-.14,.53-.2,.73,.02,.03,.05,.05,.07,.08,.26-.23,.53-.45,.83-.71,.05,.2,.08,.35,.12,.49,.04,.02,.08,.05,.11,.07,.21-.28,.42-.57,.63-.85q.09,.06-.11,1.12c.52-.33,1-.64,1.49-.95,.04,.04,.07,.09,.11,.13l-.54,.82s.07,.06,.1,.09l.91-.67s.06,.07,.09,.1c-.08,.19-.17,.38-.26,.59,.31-.17,.65-.26,.84-.47,.29-.31,.48-.71,.72-1.06,.07-.09,.19-.15,.29-.22,.06,.12,.2,.27,.17,.36-.48,1.46-.97,2.92-1.47,4.38-.07,.21-.14,.41-.21,.62,.04,.02,.07,.03,.11,.05,.05-.11,.12-.21,.16-.32,.45-1.22,.88-2.45,1.36-3.66,.16-.41,.42-.79,.67-1.16,.09-.14,.28-.21,.49-.27-.63,1.59-1.17,3.18-1.41,4.86,.19-.64,.41-1.27,.58-1.92,.35-1.32,1.06-2.43,1.93-3.45,.07-.08,.22-.1,.34-.15,.01,.13,.09,.3,.03,.4-.4,.72-.82,1.43-1.23,2.15-.11,.2-.19,.42-.19,.67,.09-.13,.2-.25,.27-.4,.39-.86,1.02-1.52,1.68-2.18,.63-.62,1.15-1.33,1.73-1.99,.09-.1,.23-.15,.35-.22,0,.15,.05,.33,0,.44-.51,.99-1.21,1.84-2.01,2.62-.32,.31-.52,.75-.79,1.13-.21,.3-.38,.63-.64,.87-.66,.6-1.17,1.3-1.67,2.04-1.08,1.58-2.24,3.12-3.37,4.67-.32,.44-.63,.88-.99,1.3,.68-1.63,1.7-3.06,2.56-4.63-.17,.14-.37,.25-.49,.41-.53,.74-1.06,1.48-1.53,2.26-.72,1.22-1.38,2.47-2.07,3.7-.2,.36-.44,.7-.7,1.03,1.29-3.3,3.42-6.21,4.45-9.63-.08,.13-.16,.26-.23,.39-.8,1.59-1.6,3.18-2.41,4.76-.69,1.34-1.44,2.66-2.12,4.01-.29,.58-.47,1.23-.7,1.84-.06,.15-.13,.3-.21,.45,.22-1.36,.59-2.67,1.2-3.91,.63-1.29,1.2-2.62,1.81-3.92,.74-1.6,1.49-3.19,2.24-4.79,0-.02,0-.05-.03-.19-.43,.86-.85,1.63-1.21,2.43-.84,1.86-1.64,3.74-2.48,5.6-.25,.54-.65,1.02-.88,1.57-.49,1.16-.91,2.35-1.36,3.52-.03,.08-.07,.15-.13,.21,.78-4.84,2.5-9.34,4.91-13.61-.06-.03-.13-.06-.19-.08-.4,.76-.82,1.51-1.2,2.28-.48,.99-.93,2.01-1.4,3.01-.1,.21-.24,.41-.36,.61,.24-.73,.47-1.47,.71-2.2-.26,.5-.46,1.02-.63,1.55-.06,.2-.05,.43-.07,.64ZM17.15,45.93c.12,.09,.26,.27,.36,.26,.7-.1,1.39-.23,2.08-.37,.22-.04,.43-.15,.64-.24-.26-.04-.48,.03-.71,.06-.8,.11-1.6,.2-2.39,.3,.21-.08,.41-.16,.62-.23,1.48-.52,2.96-1.04,4.5-1.58-.85-.06-5.34,1.44-6.05,2.04,.38-.1,.66-.17,.94-.24Zm-2.91-1.08c1.22-.04,2.44-.07,3.67-.11-.47-.36-4.01-.57-4.93-.31,.42,.14,.85,.28,1.27,.43-.05,0-.1,.01-.23,.03,1.05,.55,2.05,.75,3.08,.45-.93-.16-1.9-.32-2.86-.48ZM39.76,7.44c0,.08,0,.16,.01,.27,.59-.99,1.17-1.96,1.75-2.93-.03-.02-.06-.05-.08-.07-.15,.18-.32,.35-.44,.54-.43,.73-.84,1.47-1.25,2.21,.03-.18,.06-.35,.09-.55-.93,.91-2.87,9.32-2.81,10.62,.02-.06,.04-.09,.05-.13,.61-2.39,1.21-4.77,1.84-7.15,.25-.94,.56-1.87,.84-2.8Zm-9.68,42.67c-.26,.32-.52,.64-.79,.96,.74,.18,1.12-.55,1.7-.75,.02,.04,.05,.07,.07,.11-.21,.27-.43,.53-.64,.8,.65,.5,.66,.5,1.03-.23,.22-.45,.4-.92,.6-1.38-.15,.65-.31,1.3-.44,1.96-.02,.09,.07,.2,.11,.31,.1-.06,.24-.1,.28-.19,.09-.23,.13-.48,.2-.73,.07-.24,.15-.47,.23-.7,.04,.01,.08,.02,.12,.03-.02,.15-.03,.3-.05,.45-.04,.32-.09,.64-.11,.96-.01,.23,.06,.43,.37,.37,.09-.56,.18-1.13,.28-1.69,.05,0,.11,.02,.16,.02,0,.13-.02,.26-.02,.38,0,.29-.04,.59,0,.88,.02,.16,.15,.41,.26,.42,.32,.04,.22-.25,.22-.42,0-.38-.02-.76-.02-1.13,0-.08,.05-.15,.08-.23,.04,0,.07,0,.11,0,.05,.62,.11,1.24,.16,1.86,.06,0,.12,0,.18,0,.21-.58,.11-1.22,.16-1.83,.05,0,.11,0,.16,0,.04,.59,.07,1.17,.11,1.76,.32,.09,.4-.07,.4-.32,0-.5,0-1.01,0-1.51,.02,0,.04,0,.06-.01,.1,.59,.2,1.18,.31,1.79,.41-.08,.31-.37,.31-.6,0-.24-.04-.47-.07-.71-.03-.23-.06-.47-.09-.7,.04,0,.07-.01,.11-.02,.18,.61,.36,1.22,.54,1.83,.39,0,.53-.14,.41-.51-.17-.49-.32-.97-.49-1.46,.03-.01,.05-.02,.08-.04,.3,.58,.59,1.16,.89,1.75,.03,0,.06-.01,.08-.02v-.28c.21,.07,.41,.13,.61,.19,.02-.04,.05-.07,.07-.11-.24-.44-.49-.88-.73-1.31,.33,.23,.57,.51,.85,.76,.34,.31,.7,.4,.94,.32-.39-.44-.8-.92-1.22-1.39,.76,.55,1.49,1.04,2.52,.77-.18-.14-.33-.26-.47-.39-.51-.45-1-.92-1.52-1.36-.11-.09-.28-.13-.43-.14-.47-.04-.94-.05-1.45-.08,.09,.29,.17,.55,.26,.82-.02,0-.04,.02-.06,.03-.21-.32-.41-.64-.62-.96-.03,.01-.06,.03-.1,.04,.06,.31,.12,.63,.18,.94-.14-.2-.22-.43-.33-.63-.09-.18-.1-.48-.44-.42,.06,.32,.11,.62,.17,.91-.04,.02-.09,.03-.13,.05-.18-.37-.35-.75-.53-1.12l-.15,.05v1s-.07,0-.1,.01c-.09-.37-.19-.74-.28-1.11-.04,0-.09,0-.13,.01-.04,.37-.09,.74-.13,1.11l-.16-.02v-.96c-.06-.01-.11-.02-.17-.03-.11,.32-.21,.65-.35,1.06-.06-.38-.1-.66-.14-.93h-.12c-.08,.32-.15,.65-.23,.97-.03,0-.07-.01-.1-.02,.01-.29,.03-.59,.05-.99-.26,.51-.45,.91-.65,1.3,.06-.38,.12-.77,.17-1.15-.04-.01-.09-.03-.13-.04-.19,.28-.38,.55-.62,.91,.06-.32,.1-.55,.15-.77-.03-.03-.06-.06-.09-.08-.14,.1-.3,.17-.42,.3-.3,.33-.57,.67-.85,1.01,.23-.39,.45-.78,.68-1.18-1.5-.3-2.91,.21-3.61,1.33,1.16,.27,1.63-.89,2.53-1.14-.18,.22-.42,.37-.62,.55-.17,.15-.47,.43-.44,.48,.17,.27-.08,.31-.19,.4-.12,.1-.27,.15-.41,.22,.01,.05,.03,.11,.04,.16,.3-.04,.61-.03,.9-.12,.33-.09,.64-.26,.96-.4Zm13.85,19.14c-.22-.7-.45-1.4-.64-2.1-.09-.35-.11-.72-.16-1.08-.06,0-.12,0-.17,0-.03,.14-.09,.29-.08,.43,.06,.66,.14,1.31,.2,1.96,.06,.62,.09,1.24,.14,1.86-.04,0-.08,0-.11,0-.02-.05-.04-.1-.05-.15-.15-1.21-.29-2.42-.45-3.63-.01-.11-.09-.21-.14-.31-.06,.11-.14,.21-.17,.32-.03,.09,0,.19,0,.29,.07,.84,.15,1.67,.2,2.51,.03,.48,0,.97,0,1.45-.08-.24-.11-.49-.14-.74-.14-1.2-.28-2.39-.43-3.59-.01-.11-.12-.22-.18-.33l-.08,.06,.24,5.02s-.07,0-.11,0c-.3-1.69-.19-3.43-.63-5.1-.15,1.81,.13,3.61-.12,5.41-.13-1.8-.26-3.61-.4-5.41-.07,0-.15,0-.22,0-.07,1.22,.13,2.44,.23,3.66,.1,1.26,.26,2.51,.38,3.72,.57-.39,1.08-.89,1.69-1.09,.6-.2,1.3-.1,1.95-.14-.24-.97-.5-2.02-.77-3.08-.05-1.17-.1-2.33-.15-3.6-.18,.13-.28,.17-.28,.21,.14,1.13,.28,2.26,.43,3.4Zm1.73-26.03c-1.17,.07-2.34,.14-3.51,.21,0-.05-.02-.1-.02-.15,.12-.03,.23-.09,.35-.1,.9-.04,1.79-.07,2.69-.11,.26-.01,.51-.04,.84-.08-.19-.44-.34-.8-.5-1.17,.08-.02,.17-.06,.27-.07,1.62-.24,3.23-.5,4.85-.72,1.86-.26,3.71-.56,5.58-.71,1.97-.15,3.66-.85,5.16-2.09,.1-.08,.21-.14,.32-.21-1.09,.36-2.11,.75-3.13,1.13-.19,.07-.4,.1-.59,.17-.72,.27-1.41,.66-2.14,.79-1.6,.28-3.22,.4-4.83,.61-1.75,.23-3.49,.5-5.23,.76-.31,.05-.57,.07-.58-.37-.18,.04-.33,.07-.48,.1-.96,.23-1.93,.47-2.9,.69-.09,.02-.19-.02-.33-.03,1.94-.6,3.8-1.17,5.66-1.74-.12-.08-.22-.1-.31-.08-.53,.12-1.06,.24-1.58,.39-.26,.08-.45,.03-.57-.19-.16-.28,.12-.32,.27-.42,.16-.11,.33-.2,.5-.3-.48-.03-.9,.38-1.39-.02,.17-.16,.33-.3,.48-.44-.2-.04-.44-.02-.56-.12-.55-.51-1.24-.75-1.88-1.08-2.54-1.3-3.94-3.48-4.65-6.17-.03-.13-.06-.26-.12-.48-.1,.36-.18,.63-.25,.9-.11-.09-.17-.18-.16-.27,.04-.46,.07-.91,.16-1.36,.09-.47,0-.62-.55-.73-.03,.43-.05,.86-.08,1.28-.04,0-.07,0-.11,0,0-.42-.02-.83,0-1.25,.02-.32-.05-.51-.47-.55v1.55c-.26-.56,0-1.2-.3-1.73-.05,0-.11,0-.16,0-.03,.94-.06,1.87-.09,2.81-.06,0-.13,0-.19,0v-2.99c-.06,0-.12,0-.18,0-.09,1.07-.18,2.15-.27,3.22-.04,0-.09,0-.13,0v-3.2c-.06,0-.12,0-.17,0-.11,.84,0,1.71-.23,2.53-.05,0-.11,0-.16,0v-2.49h-.09c-.15,1.1-.3,2.2-.45,3.3-.16-1.12,.13-2.24-.01-3.34-.05,0-.1,0-.15,0-.13,.99-.26,1.98-.4,2.96-.04,0-.07-.01-.11-.02,.04-.96,.09-1.92,.13-2.88-.06,0-.13-.02-.19-.03-.33,.54,.22,1.33-.43,1.83v-1.69c-.18,.17-.35,.26-.37,.37-.04,.21,.02,.44,.01,.67,0,.26-.04,.52-.06,.77-.04,0-.08,0-.12,0-.04-.42-.09-.85-.14-1.34-.35,.33-.69,.53-.47,1.03,.23,.51,.14,1.06-.04,1.56-.09,.25-.33,.46-.52,.68-.14,.17-.34,.31-.45,.5-.3,.53-.52,1.12-.86,1.63-1.13,1.71-2.62,2.98-4.62,3.57-.24,.07-.43,.28-.68,.45,.19,.16,.28,.24,.33,.3-.34,.18-.67,.35-1.01,.52,.04,.02,.07,.03,.11,.05-.11,.25-.19,.53-.36,.72-.06,.07-.36-.05-.54-.1-.39-.11-.77-.23-1.16-.35,.42,.25,.89,.36,1.3,.59,.32,.18,.6,.38,.98,.47,.86,.19,1.71,.43,2.56,.66,.08,.02,.15,.08,.23,.12,0,.02-.02,.05-.03,.07-1.16-.26-2.32-.53-3.48-.79,0,.04,.01,.07,.02,.11-.21,.05-.42,.16-.62,.14-.46-.04-.91-.14-1.37-.2-2.82-.38-5.63-.77-8.45-1.13-1.18-.15-2.19-.72-3.24-1.19,.1,0,.21-.03,.29,0,.9,.35,1.84,.22,2.77,.21,.2,0,.39-.07,.59-.1-2.01-.27-3.88-.9-5.68-1.76-.31-.15-.66-.2-.99-.3l-.05,.13c.64,.39,1.28,.78,1.93,1.17,.38,.23,.77,.44,1.15,.66-1.01-.25-1.93-.7-2.79-1.29,1,1.25,2.3,2.05,3.83,2.43,.85,.21,1.74,.25,2.62,.37,2.4,.31,4.81,.62,7.21,.93,.82,.11,1.64,.25,2.43,.36-.11,.42-.21,.8-.3,1.14-1.94,.17-3.95,.25-5.92,.54-1.43,.21-2.75,.02-4.08-.43-.39-.13-.79-.22-1.18-.32-.01,.05-.03,.09-.04,.14,1.06,.77,2.27,1.22,3.58,1.11,2.75-.23,5.5-.59,8.25-.85,.78-.07,1.57,0,2.35,.02,.2,0,.41,.06,.61,.09,0,.05,0,.1-.01,.14h-3.53c.2,.72,.38,1.35,.55,1.94-.41,.13-.84,.26-1.26,.41-.51,.17-1.02,.38-1.54,.53-.46,.13-.94,.21-1.4,.31,.01,.05,.02,.11,.03,.16,.77-.16,1.58-.23,2.31-.51,1.33-.49,2.63-1.02,4.03-1.29,.56-.11,1.1-.26,1.65-.4,.01,.04,.02,.09,.04,.13-1.13,.5-2.39,.62-3.63,1.05,.31,.37,.58,.69,.86,1.02-.58,.24-1.11,.45-1.64,.66,.02,.06,.04,.12,.07,.18,.45-.14,.9-.27,1.34-.43,.44-.15,.86-.33,1.29-.5,.42-.17,.85-.34,1.27-.51,.01,.03,.03,.07,.04,.1-.84,.47-1.69,.94-2.53,1.41,.02,.05,.04,.11,.07,.16,.55-.14,1.1-.27,1.64-.41-.44,.89-1.34,1.05-2.18,1.36,.08,.07,.14,.14,.16,.13,.94-.35,1.88-.7,2.82-1.06l.06,.1c-.31,.29-.63,.58-1.01,.93,.74-.1,1.4-.09,1.97-.5,.13-.09,.3-.17,.46-.18,1.06-.09,2.12-.13,3.17-.26,.77-.1,1.53-.29,2.28-.52,.65-.19,.83-.6,.62-1.21-.15,.18-.27,.34-.41,.49-.13,.14-.28,.26-.42,.39-.02-.02-.03-.04-.05-.06,.19-.26,.38-.52,.62-.85-.93,.13-1.66-.23-2.37-.58-.8-.38-1.47-.94-1.85-1.76-.62-1.32-.31-2.97,.81-4.05,.47-.46,.88-.92,1.06-1.57,.08-.28,.26-.54,.39-.8,.02,.01,.03,.02,.05,.03-.12,.49-.24,.99-.36,1.48,.06,.02,.12,.03,.18,.05,.21-.66,.43-1.31,.64-1.97,.03,0,.05,.02,.08,.03-.1,.57-.19,1.14-.29,1.71,.06,.01,.12,.02,.17,.03,.17-.63,.33-1.25,.5-1.88,.02,0,.05,0,.07,.01-.04,.59-.09,1.18-.13,1.78,.06,0,.12,.01,.17,.02,.06-.62,.12-1.25,.17-1.79,.05,.5,.11,1.08,.16,1.66,.03,0,.07,0,.1-.01,.03-.54,.06-1.08,.09-1.62,.02,0,.04,0,.06,0v1.56c.4-.63,.09-1.39,.4-2.04v2.04h.1v-1.41s.06,0,.09,0c.09,.48,.19,.97,.28,1.45,.05,0,.11-.02,.16-.03-.03-.32-.07-.65-.08-.97-.01-.34,0-.68,0-1.02,.17,.67,.14,1.37,.57,1.97-.08-.65-.15-1.3-.23-1.95,.16,.33,.23,.68,.31,1.03,.08,.33,.17,.66,.25,1,.05-.01,.09-.02,.14-.03-.09-.71-.17-1.42-.26-2.12,.03,0,.07-.01,.1-.02,.16,.75,.32,1.49,.48,2.24,.05-.01,.09-.02,.14-.03-.06-.41-.12-.81-.17-1.22,.02,0,.04,0,.07-.01,.18,.47,.35,.93,.53,1.4,.05-.02,.11-.04,.16-.06-.24-.7-.49-1.4-.73-2.1,.03-.01,.06-.02,.09-.03,.35,.79,.71,1.58,1.06,2.37,.03-.01,.07-.03,.1-.04-.16-.58-.33-1.16-.49-1.74,.17,.15,.29,.32,.36,.51,.29,.87,.75,1.61,1.39,2.3,.94,1.02,1.31,2.28,.8,3.65-.45,1.21-1.46,1.82-2.62,2.24-.12,.04-.24,.09-.38,.13,.33,.31,.62,.59,.92,.87-.02,.02-.04,.04-.06,.07-.13-.11-.25-.21-.43-.36v.4c-.27-.74-.49-.96-.78-.89,.21,.34,.43,.69,.64,1.03q-.83-1.04-1.11-.96c.2,.29,.4,.58,.6,.87-.03,.02-.06,.04-.09,.07-.21-.25-.4-.52-.63-.75-.1-.1-.27-.17-.41-.18-.16,0-.32,.09-.59,.18,.15,.27,.23,.58,.43,.74,.27,.23,.61,.44,.95,.49,1.28,.19,2.58,.32,3.86,.48,.62,.08,1.27,0,1.84,.4,.26,.19,.67,.18,1.01,.26h-.01c.22,.06,.43,.11,.66,.16-.27-.26-.51-.5-.8-.78,.44-.19,.74-.09,1.03,.07,.36,.2,.7,.41,1.07,.57,.24,.1,.51,.13,.77,.19,.02-.05,.03-.1,.05-.14-.12-.05-.23-.1-.35-.15-.42-.18-.86-.34-1.26-.55-.17-.09-.27-.32-.41-.48,.04-.05,.07-.1,.11-.15,.41,.11,.82,.22,1.25,.33-.56-.94-1.69-.93-2.4-1.59,1.4,.49,2.8,.97,4.2,1.46,.02-.05,.04-.1,.06-.15-.62-.27-1.23-.54-1.87-.81,.31-.34,.61-.66,.98-1.07-1.31-.29-2.49-.54-3.69-.81,.06-.09,.08-.14,.11-.15,.05-.02,.11-.03,.16-.02,1.21,.3,2.42,.58,3.61,.92,1.26,.36,2.51,.78,3.76,1.17,.11,.04,.24,.02,.36,.03,0-.04,0-.08,.01-.11-1.4-.42-2.8-.83-4.2-1.25,.54-1.25,.6-1.51,.43-2.11,.14,.02,.28,.05,.41,.06,1.54,.08,3.08,.15,4.61,.25,.54,.03,1.1,.08,1.62,.23,1.08,.3,2.13,.21,3.19-.08,.66-.18,1.21-.53,1.71-1.02-.06,0-.09-.02-.11-.01-1.7,.71-3.44,1.04-5.3,.79-1.48-.2-2.98-.27-4.48-.35-.55-.03-1.1,.08-1.65,.13Zm11.84,1.62c0,.06,.01,.11,.02,.17-.6,.08-1.2,.22-1.8,.23-.95,.01-1.82,.3-2.69,.58-.22,.07-.42,.17-.63,.26,0,.06,0,.11,0,.17,.8,.21,1.6,.49,2.41,.61,1.64,.25,3.3,.41,4.95,.62,.67,.09,1.34,.22,2.03,.33-.04-1.01,.11-1.98,.8-2.89-1.57-.08-3.05-.15-4.45-.22-.02,.01,.1-.02,.14-.09,.19-.42,.54-.37,.9-.35,.77,.04,1.54,.05,2.31,.11,.74,.06,1.49,.16,2.28,.25,0-.42-.04-.83,.01-1.23,.05-.39,.18-.76,.29-1.19-1.59-.04-3.18-.09-4.78-.1-.26,0-.55,.19-.76,.37-.89,.71-1.65,1.6-2.71,2.1-.11,.05-.2,.15-.36,.27h2.04Zm-19.71-15.62s-.05,0-.05-.01c-.06-.06-.1-.13-.16-.19-1.23-1.31-2.73-1.81-4.48-1.47-1.09,.21-2.03,.71-2.66,1.67-.06,.09-.02,.23-.03,.35,.1-.03,.24-.03,.31-.1,1.46-1.34,3.19-1.64,5-1.04,1.08,.36,2.25,.86,2.12,2.4,0,.03,0,.06,.01,.08,.46,2.39,1.51,4.44,3.52,5.91,2.32,1.7,5.95,2.28,8.73,.38,2.87-1.96,4.25-5.07,3.58-8.47-.48-2.41-1.88-4.16-3.99-5.38-1.65-.94-3.4-1.25-5.26-.94-1.1,.18-2.07,.65-3,1.24-1.44,.91-2.5,2.14-3.09,3.75-.22,.6-.36,1.22-.53,1.84Zm-18.99,31.06c2.71-3.17,5.39-6.31,8.07-9.44-.01-.04-.02-.09-.03-.13h-.77c.09-.13,.21-.28,.32-.43-.02-.05-.04-.1-.06-.15l-.87,.16s-.03-.03-.04-.05c.13-.07,.25-.14,.38-.21-.04-.05-.08-.09-.12-.14-1.84,.94-3.28,2.43-4.89,3.68-1.63,1.26-3.16,2.65-4.74,3.99,1.8,.01,2.23,1.41,2.76,2.73Zm32.91-2.72c-.54-.5-.98-.96-1.46-1.35-2.17-1.79-4.36-3.57-6.55-5.33-.37-.29-.8-.51-1.23-.71-.19-.09-.43-.07-.71-.11,.12,.33,.2,.55,.27,.76-.36-.02-.68-.03-1-.04-.03,.05-.06,.1-.09,.15,2.5,3.23,5.59,5.95,8.03,9.36,.23-.48,.38-.83,.56-1.15,.46-.81,1-1.53,2.16-1.57Zm-6.77,4.91c.41-.68,.76-1.33,1.19-1.93,.36-.51,.89-.8,1.55-.78,.1,0,.2,0,.35,0-.29-.33-.53-.6-.78-.87-2.18-2.41-4.36-4.82-6.52-7.24-.33-.36-.66-.5-1.12-.29-.29,.13-.52,.23-.24,.62-.17-.04-.29-.08-.54-.14,1.88,3.71,4.33,6.96,6.13,10.63Zm-16.97-11.08c-.33-.36-.4-.37-.73-.01-.99,1.09-1.98,2.17-2.94,3.28-1.43,1.66-2.84,3.33-4.27,5.02,1.96,.04,2.41,1.54,2.89,2.87,2.03-3.59,4.09-7.22,6.12-10.81-.5-.45-.86-.11-1.26,0,.06-.12,.13-.23,.19-.34Zm31.04,.61c0-.31-.01-.64,0-.97,.04-.93,.42-1.7,1.16-2.28,.31-.24,.65-.25,.98-.06,.23,.13,.44,.29,.67,.44,.06-.69-.05-.81-.73-.88-1.23-.13-2.46-.2-3.67-.41-1.63-.28-3.24-.65-4.85-1-.67-.14-1.34-.17-1.99,.06-.19,.07-.34,.22-.58,.38,.32,.17,.53,.27,.73,.39,.19,.12,.37,.27,.55,.4-.02,.05-.05,.11-.07,.16-1.26-.83-2.58-.75-3.94-.3,3.89,1.34,7.78,2.69,11.75,4.06Zm-15.26,9.26c-.09-.17-.12-.23-.16-.29-.86-1.42-1.73-2.85-2.6-4.27-.91-1.48-1.82-2.96-2.74-4.43-.08-.13-.27-.31-.39-.29-.94,.12-1.05,.3-.88,1.24,0,.04,.02,.08,.03,.12,.73,3.1,1.76,6.1,2.82,9.09,.15,.42,.39,.82,.58,1.22,.05,0,.11,0,.16,.01,.26-.4,.53-.8,.79-1.2,.52-.85,1.14-1.52,2.37-1.21Zm-16.3,3.25c1.21-4,2.44-8.07,3.67-12.14-.29-.11-.52-.2-.76-.28q-.63-.22-.98,.35c-.09,.14-.18,.28-.26,.43-1.64,2.79-3.28,5.59-4.9,8.37,2.39-.11,2.72,1.74,3.23,3.28Zm-18.32-12.41c.75-.29,1.46-.54,2.16-.82,.79-.33,1.55-.7,2.34-1.03,.55-.23,1.1-.48,1.67-.65,1.8-.52,3.61-1.01,5.41-1.52,.12-.03,.23-.11,.38-.18-1.34-.58-2.57-.16-3.81,.2-.01-.04-.03-.09-.04-.13,.32-.2,.63-.39,.95-.59,0-.05,0-.09,0-.14-.28-.08-.56-.2-.85-.23-.31-.03-.64,.01-.96,.03-.49,.03-.98,.04-1.46,.12-1.33,.21-2.65,.46-3.97,.69-1.14,.2-2.28,.41-3.48,.62,1.56,.82,1.52,2.27,1.67,3.64Zm22.55,.44c-1.05,3.38-2.09,6.75-3.15,10.15,1.88-.44,2.74,.69,3.41,2.13,.04-.01,.07-.02,.11-.04,.39-3.99,.78-7.97,1.17-11.95-.54-.1-1.01-.19-1.55-.29Zm-9.51-30.24c-.38,.02-.76,0-1.13,.06-3.8,.62-6.59,3.77-6.79,7.61-.11,2.24,.6,4.19,2.07,5.85,1.92,2.16,4.3,3,7.14,2.39,1.05-.22,2.09-.5,2.98-1.17,1.41-1.06,2.47-2.39,3.16-4.01,.51-1.18,.72-2.43,.63-3.69-.09-1.22-.58-2.34-1.28-3.37-1.63-2.42-3.89-3.6-6.78-3.68Zm13.63,50.32s-.08,.01-.12,.02c-.22-2.05-.44-4.1-.66-6.17,.99,.21,1.07,.19,1.32-.09-.02-.46-.06-.81-.05-1.16,.02-.44,.06-.88-.26-1.23-.84-.92-2.23-.64-2.58,.57-.25,.85-.42,1.74-.52,2.63-.22,1.96-.38,3.93-.56,5.89-.04,.4-.07,.81-.12,1.35,1.44-1.06,2.79-1.18,4.18,.03-.05-.64-.08-1.14-.13-1.64-.17-1.78-.35-3.57-.52-5.35-.03-.26-.12-.35-.39-.21,.14,1.79,.28,3.58,.42,5.37Zm-10.99-23.01c-.15-.07-.26-.16-.39-.17-.73-.08-1.48-.26-2.15,.24-.13,.1-.3,.14-.45,.22-1.67,.91-3.35,1.79-5,2.75-1.27,.74-2.43,1.69-3.84,2.21,.03,.04,.04,.07,.06,.08,1.05,.34,1.66,1.09,1.92,2.14,.05,.18,.13,.35,.19,.51,3.23-2.67,6.41-5.3,9.65-7.97Zm18.26,.04c3.13,2.84,6.67,5.01,9.57,8.09,.35-1.36,.8-2.48,2.25-2.87-1.82-.78-3.32-1.96-4.97-2.9-1.54-.88-3.12-1.69-4.71-2.5-.27-.14-.65-.14-.97-.11-.36,.03-.7,.16-1.17,.28Zm2.24-.77c1.88,1.03,3.7,1.98,5.47,3.01,1.78,1.03,3.51,2.13,5.3,3.22,.21-1.15,.49-2.28,1.62-2.92-1.15-.46-2.25-.92-3.37-1.35-.47-.18-.94-.34-1.42-.5-2.07-.68-4.15-1.36-6.22-2.05-.42-.14-.44-.15-.5,.32-.27,.08-.55,.16-.89,.26Zm-22.67,.04c-.33-.34-.88-.12-1.01-.63,0,0-.15,0-.23,.03-.28,.08-.56,.18-.84,.26-1.82,.53-3.67,1.01-5.47,1.61-1.13,.38-2.2,.97-3.3,1.45-.44,.19-.9,.33-1.39,.51,1.08,.73,1.51,1.76,1.57,3,1.8-1.14,3.5-2.28,5.26-3.31,1.76-1.03,3.58-1.94,5.41-2.92Zm10.03,15.05c.06,.03,.12,.07,.17,.1,.06-.1,.1-.21,.17-.29,.79-.84,1.72-1.1,2.82-.68,.48,.18,.58,.12,.48-.41-.19-1.05-.48-2.08-.59-3.13-.18-1.7-.24-3.4-.36-5.1-.03-.49-.09-.97-.17-1.45-.02-.1-.16-.25-.25-.25-.37,0-.74,.03-1.19,.06-.37,3.73-.73,7.44-1.09,11.15Zm4.5,2.56c.49-.04,.97-.05,1.44-.13,1.01-.18,1.57-1.17,1.29-2.22-.23-.9-.95-1.24-1.99-.95-.18,.05-.35,.12-.59,.2,.51-.75,1.23-.87,2.08-.89-.31-.81-.63-1.52-.86-2.27-.75-2.45-1.47-4.9-2.2-7.35-.06-.19-.05-.43-.37-.38-.31,.05-.24,.26-.23,.45,.03,.46,.06,.92,.1,1.38,.09,1.16,.31,2.32,.26,3.47-.07,1.71,.54,3.31,.67,4.98,0,.07,.04,.13,.07,.2,.41,1.09,.83,2.18,.31,3.36,0,.02,0,.05,.02,.17ZM15.66,46.47c0-.07,0-.13,0-.2-.99-.58-2.02-.97-3.21-.73,.28-.05,.57-.09,.93-.15-.48-.32-.86-.59-1.44-.48-.54,.1-1.14,.12-1.66-.01-1.55-.4-3.07-.03-4.66,.02,.72,1.07,.76,2.22,.79,3.38,.24-.08,.4-.16,.58-.2,2-.48,4.01-.88,6.07-1.08,.88-.09,1.74-.36,2.61-.55Zm9.06,19.54s-.08,.02-.12,.03c-.36,2.13-.72,4.25-1.09,6.43,.72-.25,1.46-.32,2.1,.04,.6,.34,1.12,.83,1.7,1.28,.14-1.19,.29-2.4,.42-3.61,.1-.95,.18-1.9,.25-2.84,.01-.18-.04-.37-.06-.55-.04,0-.08,.01-.11,.02-.18,1.74-.37,3.48-.55,5.22-.09-.23-.13-.45-.11-.68,.09-1.64,.19-3.27,.27-4.91,0-.12-.08-.25-.12-.37-.05,.11-.15,.22-.16,.34-.15,1.63-.28,3.26-.42,4.9-.01,.12-.05,.24-.07,.35l-.14-.02c.1-1.82,.2-3.65,.3-5.47-.06,0-.13-.01-.19-.02-.21,1.62-.42,3.23-.63,4.85h-.08c.11-1.6,.21-3.19,.32-4.79-.07-.01-.13-.02-.2-.03-.33,1.17-.33,2.42-.62,3.6-.04,0-.08,0-.11-.01,.12-1.14,.25-2.28,.37-3.4h-.28c-.24,.98-.49,1.99-.73,3-.02,0-.05,0-.07-.01,.16-1.05,.31-2.11,.47-3.16-.04,0-.08-.01-.13-.02-.04,.19-.07,.38-.12,.64-.04-.3-.07-.55-.1-.79Zm-9.71-5.34s-.04,.02-.06,.02c-.11,1.15-.22,2.29-.32,3.44-.05,0-.09,0-.14-.01,.06-1.17,.12-2.34,.18-3.52-.04,0-.09,0-.13-.01-.17,.85-.35,1.7-.52,2.55,.03-.2,.03-.4,.03-.61,.02-.55,.06-1.09,.08-1.63,0-.13-.09-.25-.14-.38l-.11,.04c-.07,.46-.14,.91-.22,1.37-.07-.27-.07-.54-.05-.8,.05-.56,.06-.56-.18-.79v1.41s-.05,0-.08,0c-.02-.3-.05-.59-.06-.76-.25,.79-.51,1.7-.81,2.6-.3,.91-.63,1.81-.96,2.76,.74-.05,1.42,.07,1.95,.55,.5,.45,.94,.96,1.4,1.45-.02,.02,0,0,.01-.02,.8-1.96,1.02-4,.96-6.09,0-.2-.12-.39-.18-.58l-.06,.03c-.15,1.1-.29,2.2-.44,3.29-.06-.18-.07-.36-.06-.54,.03-.95,.08-1.9,.08-2.86,0-.3-.12-.6-.18-.91Zm37.63,.49c-.68,.75-.25,6.25,.46,7.13,.48-.48,.93-1.01,1.46-1.46,.56-.48,1.28-.57,1.93-.52-.66-2.01-1.31-4-1.96-5.99-.02,0-.05,0-.07,0,.08,.58,.17,1.16,.26,1.8-.48-.47-.45-1.22-1.11-1.64,.07,1.4,.14,2.69,.2,3.98-.04,0-.08,0-.12,0-.13-1.29-.26-2.58-.39-3.87-.08,0-.15,0-.23,0,0,1.42-.08,2.83,.09,4.26-.05,0-.09,0-.14,0-.12-1.23-.24-2.46-.37-3.74Zm3.75-2.71s-.08,0-.12,0c-.23,.55-.23,1.12-.14,1.72,.19,1.29,.35,2.58,.53,3.87,.08,.58,.16,1.17,.26,1.84,.83-1.31,1.69-2.39,3.42-2.38-.35-1.16-.76-2.24-1.01-3.36-.25-1.12-.34-2.28-.52-3.54-.32,.93-.16,1.76-.08,2.59-.04,0-.08,0-.12,.01-.09-.6-.17-1.2-.24-1.67-.76,1.13-.17,2.42-.03,3.8-.49-1.19-.24-2.43-.85-3.49-.16,1.43,.16,2.84,.18,4.27l-.59-4.03c-.05,0-.1,0-.15,0-.16,1.49,.06,2.98,.16,4.46-.04,0-.07,0-.11,0-.2-1.36-.4-2.73-.59-4.09Zm-9.63,6.35l-.22,.04c.06,1.25,.12,2.5,.17,3.75-.09-.23-.14-.46-.17-.7-.1-.89-.18-1.78-.28-2.67-.02-.14-.14-.27-.21-.41-.05,.14-.14,.28-.14,.42,.02,.73,.07,1.45,.12,2.18,.03,.51,.06,1.02,.09,1.53h-.11c-.08-.7-.14-1.4-.24-2.1-.1-.68-.02-1.39-.3-2.04-.04,0-.09,0-.13,.01v4.67s-.04,0-.05,0c-.1-1.55-.21-3.1-.31-4.65-.08,0-.16,.01-.25,.02-.21,2.55-.13,5.08,.56,7.69,.91-1.22,1.85-2.27,3.5-1.87-.53-2.05-1.04-4.06-1.56-6.07-.03,0-.06,0-.09,.01l.27,3.37s-.05,0-.07,0c-.19-1.07-.38-2.14-.58-3.21Zm-36.04-2.61s-.06,0-.09,0c0-.5,0-.99,0-1.49,.01-.78,.04-1.57,.05-2.35,0-.46-.07-.58-.3-.72-.08,1.3-.17,2.62-.25,3.94-.16-1.5,.12-3.02-.22-4.5-.04,0-.08,0-.11,0-.08,.85-.16,1.69-.24,2.54-.04,0-.09,0-.13-.01,.05-.85,.1-1.71,.16-2.64-.59,2.21-1.16,4.33-1.73,6.47,1.61,.04,2.46,1.16,3.25,2.44,.05-.12,.07-.18,.08-.23,.74-2.26,.59-4.62,.7-6.95,0-.12-.1-.25-.15-.38-.02,0-.05,.02-.07,.03l-.29,4.04c-.06,0-.12,0-.18,0,0-.33,0-.66,0-.99,.03-1.02,.08-2.04,.12-3.06,.01-.3,0-.3-.31-.29-.04,.7-.07,1.4-.12,2.1-.05,.69-.11,1.39-.17,2.08Zm27.75,4.76s-.07,0-.11,.01v4.23s-.02,0-.03,0l-.36-4.14c-.06,0-.12,0-.18,0v3.27s-.07,0-.1,0c-.14-1.11-.02-2.26-.31-3.35-.04,0-.08,0-.12,0-.08,.82-.17,1.64-.25,2.46-.03,0-.06,0-.08,0-.06-.74-.12-1.47-.18-2.21-.07,0-.14,.01-.2,.02,.11,2.27,.23,4.55,.35,6.92,1.14-1.12,2.3-1.49,3.68-.51-.34-2.41-.67-4.72-1.01-7.13-.37,.33-.22,.65-.2,.92,.08,.77,.19,1.54,.29,2.31-.03,0-.06,.01-.09,.02-.21-.96-.41-1.93-.62-2.89-.05,0-.1,.01-.16,.02,.1,1.33,.19,2.66,.29,3.99-.03,0-.06,0-.09,0-.17-1.32-.35-2.64-.52-3.96Zm-15.71,5.67s.06-.04,.09-.06c.1-.56,.25-1.11,.3-1.67,.16-1.76,.3-3.51,.41-5.27,.02-.27-.19-.56-.3-.84-.03,.01-.06,.03-.1,.04-.1,1.62-.19,3.24-.29,4.86-.04,0-.08,0-.11,0v-5.11c-.14,.05-.26,.16-.27,.28-.09,1.2-.16,2.4-.25,3.6-.01,.17-.07,.33-.11,.5l-.12-.03c.05-1.38,.1-2.75,.15-4.13-.05-.02-.1-.04-.16-.06-.06,.1-.16,.19-.18,.3-.05,.33-.05,.67-.09,1-.11,.91-.23,1.82-.35,2.74-.03,0-.06,0-.09,0l.22-3.97c-.07-.01-.15-.02-.22-.03-.19,1.06-.39,2.12-.58,3.18-.03,0-.07,0-.1-.01,.12-1.09,.23-2.18,.35-3.27-.03-.02-.06-.04-.09-.06-.08,.12-.2,.22-.24,.35-.25,1.05-.49,2.1-.73,3.15-.19,.84-.39,1.68-.59,2.57,1.74-.41,2.66,.66,3.45,1.96Zm5.97-1.5c.05-.77,.1-1.54,.17-2.3,.04-.53,.12-1.06,.16-1.59,0-.09-.09-.2-.14-.29-.06,.08-.12,.16-.17,.25-.02,.03-.01,.08-.02,.12-.22,1.67-.44,3.33-.66,5-.05,.4-.09,.81-.14,1.32,1.55-.95,2.72-.28,3.86,.81,0-.25,0-.35,0-.45-.08-1.78-.15-3.55-.23-5.33-.02-.43-.02-.87-.05-1.3,0-.1-.11-.18-.16-.28-.06,.08-.15,.16-.16,.25-.04,.29-.05,.59-.06,.88-.05,1.19-.09,2.37-.13,3.56-.08-.26-.11-.52-.11-.78-.01-1.21-.01-2.41-.04-3.62,0-.11-.11-.21-.17-.31-.05,.1-.12,.2-.13,.31-.05,.7-.09,1.4-.14,2.1-.05,.66-.11,1.32-.16,1.98-.07-.14-.07-.28-.07-.42,.02-1.23,.04-2.47,.05-3.7,0-.1-.08-.21-.12-.32-.07,.1-.18,.2-.19,.3-.05,.4-.07,.81-.11,1.21-.08,.91-.16,1.82-.24,2.74,0,0-.01,0-.02,0v-4.24s-.08,0-.11-.01c-.42,1.34-.25,2.77-.7,4.12Zm-10.04-.46c.9-2.93,1-6.65,.48-7.3-.05,.51-.02,1.02-.05,1.53-.03,.5-.1,1-.16,1.5-.06,.49-.12,.99-.18,1.48h-.1c.08-1.66,.15-3.31,.23-4.96-.06,0-.13-.01-.19-.02-.2,1.49-.4,2.98-.6,4.47-.03,0-.07,0-.1-.01,.07-.71,.16-1.41,.19-2.12,.03-.69,.12-1.38-.01-2.06-.04,0-.08,0-.13,0-.18,1.14-.37,2.28-.55,3.41-.02,0-.05,0-.07,0,.08-1.17,.17-2.34,.25-3.51-.04,0-.09,0-.13-.01-.2,.82-.4,1.64-.59,2.45,.02-.89,.28-1.75,.13-2.64-.58,1.95-1.15,3.91-1.73,5.88,.66-.07,1.34,.02,1.88,.46,.52,.43,.96,.96,1.45,1.45Zm30.63-6.86s-.03,0-.04,0c-.02-.23-.04-.46-.06-.7-.05,0-.09,0-.14,.01,.1,1.54,.21,3.08,.31,4.61-.02,0-.04,0-.07,0-.18-1.36-.36-2.72-.55-4.08l-.17,.02c.04,2.34,0,4.69,.69,6.75,.44-.36,.93-.79,1.46-1.18,.56-.41,1.22-.51,1.9-.47-.8-1.89-1.58-3.74-2.36-5.59-.04,0-.08,.01-.12,.02l.51,3.54s-.06,.01-.09,.02c-.24-1.2-.47-2.39-.71-3.59-.06,.01-.13,.02-.19,.04,.12,1.4,.25,2.79,.37,4.19-.03,0-.06,0-.09,.01-.19-1.33-.39-2.67-.6-4.11-.03,.25-.04,.38-.06,.51Zm15.12-16.05c-.05,0-.11,.02-.16,.03-.21,.75,0,1.48,.14,2.22,.13,.76,.3,1.51,.42,2.27,.12,.73,.2,1.46,.3,2.2-.03,0-.06,.01-.09,.02-.38-1.98-.76-3.96-1.13-5.94-.06,0-.11,.02-.17,.02-.03,1.85,.54,3.65,.61,5.5-.28-1.54-.56-3.07-.84-4.61-.07,0-.13,0-.2,0-.08,.5-.25,1.01-.22,1.51,.16,2.47,.36,4.94,.56,7.41,0,.09,.04,.18,.06,.27,1.02-.31,2.09-1.6,2.01-2.43-.67-.08-1.2,.25-1.73,.72,0-.19-.05-.37,0-.42,.51-.39,1.05-.75,1.62-1.16-.38-2.47-.78-5.04-1.18-7.62Zm-59.85,1.32c-.36,1.97-.57,3.87-.72,5.78-.03-.2-.05-.39-.03-.59,.15-1.67,.31-3.35,.46-5.02,.02-.26,0-.52,0-.78-.05,0-.11,0-.16,0-.32,2-.64,3.99-.96,5.99-.04,0-.08-.01-.12-.02,.1-.86,.19-1.72,.3-2.58,.15-1.19,.32-2.39,.47-3.58,.02-.2-.04-.41-.06-.61-.05,0-.1,0-.14,0-.37,2.63-.75,5.25-1.12,7.87,1.04,.39,1.66,1.01,1.64,1.49-.37-.23-.78-.52-1.22-.76-.12-.07-.38-.07-.46,.01-.08,.09-.08,.34-.02,.47,.25,.45,.5,.9,.82,1.29,.29,.34,.68,.61,1.2,.68,.02-.16,.04-.28,.04-.4,.08-1.54,.15-3.08,.23-4.62,.07-1.24,.17-2.49,.25-3.73,.02-.31-.01-.61-.4-.89Zm56.14,5.24c-.42,.17-.48,.4-.47,.69,.12,2.28,.24,4.56,.37,6.84,0,.13,.04,.26,.06,.39,.39-.45,.71-.94,1.15-1.3,.43-.35,.96-.55,1.42-.8-.49-2.38-1-4.84-1.5-7.3-.32,1.5,.15,2.98,.11,4.48-.19-1.23-.38-2.45-.58-3.74-.41,.33-.34,.69-.32,1.03,.11,1.41,.22,2.82,.33,4.23,.02,.32,.05,.63,.07,.95-.02,0-.05,0-.07,0-.19-1.8-.38-3.6-.57-5.46ZM6.07,58.73s-.05,0-.07-.01c.16-1.6,.32-3.19,.5-4.79,.06-.59,.04-.87-.17-1.15-.5,2.46-1,4.95-1.5,7.45,1.22,.16,1.46,.35,2.72,2.18,.03-.2,.06-.34,.07-.48,.07-2.38,.14-4.76,.19-7.14,0-.19-.15-.38-.23-.57-.06,.01-.12,.03-.17,.04-.2,1.74-.4,3.49-.61,5.23-.03-.52,0-1.04,.03-1.56,.09-1.22,.21-2.43,.28-3.64,.01-.25-.13-.51-.19-.77-.03,.01-.05,.03-.08,.04-.26,1.72-.51,3.45-.77,5.17Zm6.09-14.3c-.64-.45-1.22-.85-1.79-1.26-.32-.23-.61-.49-.93-.72-.12-.08-.27-.17-.41-.17-1.62-.05-3.24-.09-4.81-.13,.13,.87,.25,1.67,.37,2.4,1.84-.12,3.69-.23,5.55-.35,0,.04,0,.07,.01,.11-.12,.05-.24,.09-.47,.18,.9,.22,1.67,.11,2.48-.05Zm53.34,1.52c-.44,.62-.49,1.23-.4,1.88,.2,1.37,.37,2.75,.56,4.12,.12,.85,.27,1.69,.4,2.56,.51-.64,.98-1.2,1.39-1.78,.12-.16,.13-.44,.11-.65-.04-.32-.19-.62-.24-.93-.26-1.97-.5-3.94-.75-5.91-.07-.55-.15-1.1-.23-1.66-.04,0-.09,.01-.13,.02-.07,2.45,.55,4.86,.59,7.3l-.89-6.02c-.39,2.43,.43,4.79,.39,7.21-.27-2.02-.53-4.03-.81-6.15ZM1.89,43.19c-.03,.08-.08,.17-.09,.25-.08,.76-.18,1.53-.23,2.29-.13,2-.35,3.99-.94,5.91-.08,.25-.14,.59-.04,.81,.28,.6,.64,1.17,1,1.73,.09,.14,.29,.22,.5,.37,.04-.23,.07-.35,.08-.47,.1-.79,.18-1.59,.29-2.38,.19-1.4,.41-2.8,.59-4.2,.05-.41,.11-.84-.19-1.22-.13,.99-.26,1.98-.39,2.96-.02,0-.04,0-.07,0-.01-.14-.02-.29-.04-.43,.02,0,.04,.01,.06,.02-.16,.98-.31,1.97-.47,2.95-.04,0-.07-.01-.11-.02,.23-2.09,.74-4.16,.73-6.28-.07,0-.14-.02-.2-.03-.28,1.78-.56,3.56-.84,5.34l-.16-.02c.7-2.5,.37-5.06,.51-7.6Zm63.06-1.52c.04-.84,.08-1.6,.12-2.31-1.12,0-2.32-.02-3.52,.02-.15,0-.3,.31-.43,.49-.09,.13-.12,.32-.23,.41-.4,.32-.83,.61-1.25,.92-.14,.11-.26,.25-.38,.38,.02,.03,.04,.06,.06,.09h5.62ZM3.08,39.37c.06,.6,.19,1.25,.19,1.9,0,.42,.13,.49,.49,.49,1.36-.02,2.72,0,4.08,0,.37,0,.74,0,1.11,0,.02-.05,.04-.1,.06-.14-.2-.15-.38-.33-.59-.45-.6-.31-1.2-.57-1.45-1.3-.07-.21-.4-.46-.61-.47-1.1-.05-2.21-.02-3.27-.02Zm41.4,23.96c0-.73-.32-1.25-.91-1.45-.57-.2-.9-.09-1.38,.62-.43,.63-.78,1.32-1.14,1.99-.3,.56-.12,.91,.5,1.07,1.4,.36,2.92-.79,2.94-2.22Zm-18.59,2.25c.23-.03,.47-.04,.7-.1,.43-.1,.49-.25,.33-.66-.1-.25-.16-.51-.29-.74-.37-.64-.74-1.27-1.15-1.88-.24-.35-.61-.4-1.02-.29-.82,.23-1.32,1.55-.85,2.34,.51,.86,1.25,1.34,2.27,1.33Zm-10.55-6.4c0,1.28,1.01,2.75,2.12,3.05,.76,.21,1.05-.03,.96-.81,0-.06,0-.11-.02-.17-.21-1.01-.52-1.98-1.26-2.75-.36-.38-1.03-.54-1.47-.31-.38,.21-.3,.63-.34,.98Zm40.68-2.5s0-.19-.02-.33c-.08-.82-.78-1.15-1.45-.66-.21,.15-.39,.36-.56,.57-.73,.93-.77,2.05-.83,3.15-.02,.32,.21,.45,.55,.37,1.4-.3,2.25-1.42,2.3-3.1Zm-35.76,3.66c-.44-.04-.74,.14-.89,.57-.51,1.44,.93,3.31,2.46,3.18,.58-.05,.77-.32,.59-.86-.11-.33-.18-.68-.33-.99-.25-.5-.53-.98-.85-1.44-.22-.31-.54-.54-.98-.47Zm29.31,1.51c-.03,.47,.09,.61,.75,.4,.44-.14,.86-.4,1.21-.7,.74-.63,.87-1.53,.92-2.44,.02-.39-.04-.76-.48-.93-.5-.19-.81-.13-1.15,.31-.72,.92-1.21,1.94-1.25,3.35Zm-.97-.33c0-.06,0-.17-.02-.28-.05-.38-.19-.7-.61-.81-.51-.13-.97-.03-1.19,.36-.49,.87-.93,1.77-1.4,2.65-.15,.29-.03,.46,.22,.56,.16,.07,.35,.11,.52,.12,1.32,.08,2.49-1.13,2.48-2.61Zm-18.16,4.98c.93,.05,1.05-.05,.89-.67-.11-.43-.22-.88-.43-1.27-.22-.41-.51-.81-.86-1.11-.6-.52-1.42-.27-1.71,.47-.1,.26-.16,.53-.22,.81-.1,.46,.07,.81,.41,1.11,.6,.52,1.32,.64,1.91,.66Zm-15.77-7.78c-.02-.26-.01-.54-.06-.79-.18-.89-.44-1.75-1.26-2.28-.54-.35-1.01-.17-1.14,.45-.2,.93,.03,1.8,.5,2.61,.3,.51,.72,.9,1.32,1.02,.53,.11,.66,0,.65-.54,0-.15,0-.31,0-.46Zm45.04-4.72c.25-.15,.45-.22,.57-.35,.36-.39,.75-.77,1.01-1.23,.45-.78,.62-1.64,.45-2.54-.08-.43-.39-.74-.79-.76-.23-.01-.57,.23-.71,.45-.91,1.35-.62,2.84-.52,4.42Zm-51.4,0c.33-1.37,.37-2.56-.06-3.73-.12-.32-.31-.64-.56-.87-.48-.44-.99-.29-1.23,.31-.23,.56-.29,1.16-.03,1.72,.3,.64,.65,1.27,1.04,1.87,.17,.27,.51,.43,.84,.7Zm50.73-.16c-.02-.17,0-.45-.09-.69-.07-.2-.24-.45-.41-.5-.2-.06-.56,0-.67,.15-.34,.45-.7,.94-.84,1.46-.19,.72-.21,1.49-.27,2.24-.02,.2,.07,.42,.11,.62,.24-.06,.48-.1,.71-.18,.09-.03,.16-.11,.23-.18,.85-.75,1.21-1.72,1.22-2.93Zm-47.52,2.89s-.08-.01-.12-.02c0-.47,.03-.95,0-1.42-.07-.91-.26-1.78-1.01-2.4-.25-.21-.53-.32-.85-.16-.31,.15-.39,.41-.4,.73-.05,1.49,.53,2.69,1.7,3.6,.13,.1,.36,.19,.47,.14,.12-.06,.15-.29,.22-.45Zm19.66-15.72c.65-.26,.92-.29,1.52,0,.88,.42,1.73,.4,2.63,.03,.45-.18,.95-.24,1.4-.35-1.01-1.08-2.39-1-3.76-.84-.7,.08-1.37,.36-1.79,1.16Zm-24.8-2.17c-.75-1.41-.97-1.56-2.4-1.71-.18-.02-.36-.06-.54-.08-.27-.04-.54-.07-.88-.11,.05,.38,.1,.67,.14,.97,.04,.29-.03,.71,.13,.85,.19,.16,.59,.07,.89,.07,.86,0,1.72,0,2.65,0ZM39.7,4.86c-.05,.09-.12,.18-.16,.29-.43,1.14-.92,2.26-1.27,3.42-.83,2.75-1.45,5.54-1.77,8.4-.25,2.27-.69,4.51-.98,6.77-.12,.93-.09,1.87-.11,2.81,0,.17,.11,.33,.17,.5,.05-.01,.1-.03,.16-.04,0-.13,0-.27,0-.4,.04-1.08,.01-2.16,.13-3.23,.2-1.78,.49-3.55,.75-5.32,.21-1.49,.36-3,.65-4.48,.58-2.95,1.49-5.82,2.44-8.71Zm-5.44,71.26c.52-.14,1.06-.23,1.55-.45,.53-.24,.55-.59,.09-.95-1.19-.91-2.19-.74-3.2,.09-.34,.28-.3,.69,.13,.88,.44,.19,.92,.29,1.43,.44Zm31.24-39.27c-.44,.09-.88,.19-1.32,.25-.81,.11-1.55,.3-1.98,1.1-.12,.22-.31,.41-.46,.61h3.76v-1.96ZM30.15,75.79s.02-.05,.03-.07c.32-.04,.65-.04,.96-.12,.44-.1,.55-.42,.23-.74-.33-.33-.72-.62-1.12-.87-.7-.43-1.38-.3-2.05,.12-.32,.2-.35,.47-.16,.74,.12,.18,.3,.36,.49,.43,.53,.2,1.08,.34,1.63,.5Zm-7.71-2.25c-.02-.17,0-.29-.05-.39-.37-.74-.82-1.4-1.57-1.8-.39-.21-.79-.23-1.21-.09-.6,.21-.72,.5-.32,.99,.79,.97,1.85,1.34,3.15,1.28Zm3.57,1.39c.12-.01,.25,0,.37-.04,.18-.06,.47-.15,.48-.24,.02-.19-.08-.45-.22-.58-.38-.36-.79-.71-1.23-1-.52-.34-1.1-.33-1.68-.1-.34,.14-.45,.37-.28,.69,.08,.16,.19,.31,.32,.43,.64,.55,1.42,.75,2.25,.84Zm16.28-.05c.9-.09,1.75-.28,2.31-1.08,.29-.42,.17-.69-.31-.86-1.04-.37-1.83,.08-2.51,.8-.21,.22-.32,.52-.47,.79,.31,.12,.63,.24,.94,.35,.01,0,.03,0,.04,0Zm5.77-3.62l-.05-.12c-.37,.16-.8,.26-1.09,.51-.43,.36-.78,.83-1.14,1.27-.09,.12-.15,.38-.08,.49,.07,.11,.32,.18,.48,.16,1.09-.11,2.01-.54,2.64-1.48,.31-.46,.15-.79-.42-.84-.11,0-.22,0-.33,0Zm-9.9,4.33c.85-.01,1.51-.13,2.06-.61,.39-.35,.37-.59-.06-.9-1.01-.71-2.28-.43-2.93,.66-.19,.31-.08,.56,.21,.68,.26,.11,.57,.13,.71,.16Zm17.87-8.76c-.1,.02-.28,.06-.45,.11-.95,.28-1.5,1.03-2.04,1.78-.08,.11-.15,.34-.09,.4,.12,.13,.33,.27,.48,.25,1.16-.17,2.06-.76,2.62-1.8,.26-.48,.09-.72-.52-.73Zm6.42-17.01s.07,.02,.11,.03c.06-.14,.12-.29,.18-.43,.24-.52,.4-1.11,.76-1.53,.67-.78,.49-1.57,.26-2.4-.04-.14-.18-.33-.3-.36-.11-.02-.31,.12-.38,.25-.19,.32-.37,.66-.48,1.02-.36,1.13-.21,2.28-.16,3.43Zm-9.72-6.92c1.84,.39,3.52-.08,5.09-1.11-.05-.03-.11-.06-.19-.1,.14-.1,.25-.18,.39-.28-.11-.01-.2-.02-.3-.04,.07-.06,.13-.11,.27-.24-.5,.07-.9,.12-1.29,.18-.84,.13-1.63,.39-2.31,.92-.05,.04-.06,.13-.09,.21-.48,.14-1.03,.3-1.57,.45ZM34.92,13.99c-.19-3.04,.51-5.97,1.1-8.91-.09,.19-.18,.38-.22,.59-.26,1.26-.55,2.51-.75,3.77-.17,1.09-.25,2.19-.31,3.29-.05,.82,0,1.65,0,2.47,0,1.11,0,2.22,0,3.33,.18-4.8,1.19-9.44,2.62-14-.68,1.48-1.19,3.02-1.52,4.62-.33,1.61-.61,3.22-.92,4.84Zm17.33,55.37s-.08,.01-.14,.01c-1.17,.08-1.77,.91-2.31,1.79-.18,.29,.05,.59,.4,.49,.59-.17,1.21-.35,1.74-.66,.34-.2,.62-.6,.81-.97,.22-.42,0-.66-.49-.67Zm-38.38-.01c.54,.02,.66-.1,.49-.43-.25-.46-.54-.92-.9-1.3-.39-.43-.92-.69-1.53-.7-.52-.01-.69,.22-.46,.68,.53,1.04,1.42,1.58,2.39,1.75ZM5.59,49.55c.09-.31,.18-.5,.2-.7,.06-.96,.02-1.91-.35-2.81-.08-.2-.19-.41-.34-.57-.29-.32-.58-.24-.7,.17-.21,.71-.19,1.42,.16,2.08,.31,.59,.66,1.17,1.03,1.83Zm12.77,22.02c-.08-.19-.11-.38-.21-.51-.34-.42-.68-.85-1.06-1.23-.39-.38-.88-.51-1.43-.43-.49,.07-.59,.24-.36,.7,.47,.95,1.91,1.67,3.07,1.47ZM38.49,4.39s-.05-.03-.07-.04c-.32,.57-.72,1.11-.94,1.72-.79,2.23-1.39,4.52-1.75,6.86-.25,1.63-.41,3.28-.57,4.92-.08,.8-.09,1.61-.13,2.42,.1-.08,.12-.17,.13-.26,.18-2.57,.45-5.13,1.01-7.65,.44-1.98,.91-3.95,1.44-5.9,.19-.71,.59-1.37,.9-2.06ZM9.64,41.32c.65,1.07,4.41,2.11,5.88,1.62-.15-.04-.25-.09-.35-.1-.46-.06-.91-.12-1.37-.18-.31-.04-.64-.08-.77-.49,.23,.06,.43,.12,.63,.18,.01-.04,.02-.08,.03-.12-1.21-.82-2.61-.91-4.05-.91Zm47.65,25.05c.16,.04,.26,.09,.36,.1,.96,.05,2.45-1.06,2.67-2,.08-.33-.08-.51-.44-.42-1.25,.32-1.99,1.2-2.59,2.32ZM28.5,4.7c.1,.21,.19,.43,.29,.64,.35,.72,.79,1.4,1.04,2.15,.49,1.47,.93,2.96,1.28,4.47,.4,1.75,.82,3.5,.87,5.33,.03,1.02,.35,2.04,.54,3.06,.04,0,.08-.01,.13-.02-.07-.47-.15-.93-.2-1.4-.15-1.28-.22-2.57-.46-3.83-.44-2.21-.95-4.4-1.5-6.58-.35-1.41-1.23-2.59-1.99-3.81Zm1-.24c.34,.72,.71,1.32,.92,1.98,.41,1.3,.75,2.63,1.06,3.96,.4,1.7,.75,3.41,1.09,5.13,.11,.55,.14,1.12,.2,1.69h.12c-.04-.65-.04-1.29-.12-1.92-.36-2.8-.94-5.55-1.86-8.22-.32-.92-.68-1.84-1.42-2.62ZM10.6,66.52l.09-.13c-.1-.22-.17-.48-.32-.66-.36-.43-.75-.83-1.14-1.23-.3-.31-.69-.4-1.12-.38-.39,.02-.47,.11-.29,.46,.4,.81,1.02,1.4,1.85,1.75,.28,.12,.61,.13,.92,.19ZM26.73,4.79c.76,1.65,1.77,3.18,2.27,4.94,.5,1.76,.98,3.52,1.47,5.28,.01-1.91-.62-3.68-1.16-5.48-.53-1.77-1.66-3.2-2.58-4.75Zm5.63,22.17l.22,.06c.06-.15,.18-.3,.18-.45,.02-2.48-.35-4.92-.87-7.33-.25-1.13-.63-2.23-.93-3.36-.12-.45-.17-.91-.26-1.37-.05,0-.09,0-.14,0,0,.16-.02,.32,0,.47,.11,.59,.17,1.2,.36,1.76,.83,2.44,1.3,4.95,1.42,7.53,.04,.89,0,1.79,0,2.68Zm-.81-9.9c.33-2.64-2.73-11.93-3.93-12.23,0,.03,0,.06,0,.08,.14,.29,.27,.59,.44,.86,1.75,2.88,2.42,6.12,3.12,9.34,.14,.65,.24,1.3,.36,1.95Zm6.84-10.78c-1.83,4.53-2.39,9.32-2.88,14.13,.77-4.75,1.4-9.52,2.88-14.13Zm16.86,32.79c.94,.13,1.85,.32,2.82,0,1.4-.46,2.67-1.13,3.92-1.88,.1-.06,.18-.15,.27-.22-.02-.04-.04-.07-.05-.11-1.14,.44-2.28,.88-3.42,1.31-.6,.22-1.2,.45-1.81,.61-.56,.14-1.14,.19-1.71,.28Zm-50.01-2.31c.02-.06,.04-.12,.07-.17-.47-.68-.83-1.44-1.9-1.48-.85-.03-.88-.1-.91,.77,0,.04-.02,.09,0,.12,.09,.13,.17,.35,.28,.38,.82,.15,1.64,.26,2.46,.39Zm60.25-1.65c-1.39-.06-2.51,.71-2.49,1.73,.77-.15,1.54-.3,2.3-.43,.34-.06,.44-.23,.36-.55-.07-.24-.11-.49-.17-.75ZM3.61,45.9c.04-.06,.11-.11,.11-.17,.07-.81,.16-1.63,.18-2.44,0-.25-.17-.53-.33-.75-.22-.32-.45-.27-.62,.08-.36,.73-.02,2.66,.56,3.25,0,0,.03,0,.1,.03Zm59.87,15.43c.02-.53-.21-.65-.62-.42-.83,.46-1.39,1.2-1.91,1.97-.05,.07-.05,.22,0,.3,.02,.05,.17,.07,.26,.04,.76-.19,1.45-.53,1.9-1.21,.17-.25,.29-.53,.37-.69Zm-56.18,1.83c-.37-.83-.79-1.48-1.43-1.96-.21-.15-.46-.28-.71-.34-.42-.1-.57,.07-.41,.47,.38,.93,1.02,1.59,2.04,1.82,.13,.03,.26,0,.51,0Zm5.51-21.66s.07-.09,.1-.14c-.18-.13-.35-.32-.55-.38-.67-.2-1.35-.34-2.02-.53-.95-.28-1.88-.59-2.82-.89,.41,.34,.84,.66,1.29,.95,1.22,.77,2.66,.7,4,1Zm20.56-24.08c-.26-4.43-.78-8.8-2.81-12.84,1.72,4.11,2.25,8.47,2.81,12.84Zm31.25,28.56c.83-.49,.98-2.55,.58-3.17-.08-.13-.23-.23-.34-.34-.11,.13-.27,.25-.32,.4-.33,1.03-.1,2.04,.08,3.11Zm-3.9-6.39c-.78,.23-1.51,.44-2.24,.65-.96,.28-1.93,.55-2.88,.87-.36,.13-.67,.41-1.01,.62,.02,.04,.04,.08,.05,.12,.88-.59,1.89-.63,2.88-.79,1.19-.19,2.23-.7,3.19-1.47Zm2.19,18.71c.06,0,.13-.01,.19-.02-.19-2.3-.38-4.59-.57-6.89l-.19,.02c-.4,2.35,.34,4.6,.57,6.89Zm-2.94,2.34c-.02-1.88-.04-3.77-.37-5.63-.53,1.92-.23,3.78,.37,5.63Zm-51.44-5.98c-.06,0-.11,0-.17,0-.11,2-.21,4-.32,5.99,.59-1.01,.88-5.32,.49-5.99Zm-2.88-3.36c-.05,0-.11,0-.16,0-.16,2.09-.32,4.18-.48,6.26,.11-.08,.16-.17,.17-.27,.22-1.66,.46-3.33,.65-4.99,.04-.32-.11-.67-.17-1.01Zm44.7-6.82c0,.07,0,.14,0,.21,1.17,.06,2.34,.15,3.5,.16,.32,0,.64-.26,.96-.4-.01-.05-.02-.09-.04-.14-1.48,.05-2.95,.11-4.43,.16ZM2.18,39.34c-.37,.59-.18,2.18,.31,2.71,.52-.43,.31-2.26-.31-2.71Zm49.56,6.66c-.44-.36-5.27-1.89-5.84-1.84,.16,.08,.26,.15,.38,.19,1.61,.55,3.22,1.11,4.83,1.64,.18,.06,.39,0,.63,0Zm-19.33-2.55c-.59,.49-.96,.52-1.58,.11-.26-.18-.51-.4-.71-.64-.35-.4-.49-.86-.3-1.4,.09-.26,.12-.54,.18-.81-.41,.62-.6,1.32-.34,2.01,.3,.78,.92,1.31,1.77,1.46,.56,.1,.94-.21,.98-.72ZM10.78,23.78c-.07,.02-.15,.04-.22,.06,.44,1.48,.89,2.95,1.33,4.43,.05,0,.11,0,.16,0,.02-.15,.09-.32,.05-.46-.24-.82-.51-1.62-.77-2.43-.18-.54-.37-1.07-.56-1.6Zm45.3,4.81c-.6,.06-1.18,.12-1.85,.19,.07,.26,.1,.71,.22,.73,.38,.07,.81,.06,1.17-.06,.36-.12,.46-.51,.47-.86Zm-44.06-.02c.02,.28,.05,.69,.43,.79,.4,.11,.84,.1,1.25,.04,.09-.01,.13-.41,.2-.63-.68-.07-1.27-.14-1.88-.2Zm45.61-4.77c-.05-.02-.1-.04-.16-.06-.13,.28-.29,.55-.39,.84-.37,1-.7,2-1.08,2.99-.12,.31-.11,.55,.11,.76,.51-1.51,1.02-3.02,1.52-4.53Zm8.24,18.58c.09-.49,.2-.97,.26-1.47,.07-.55,.2-1.13-.27-1.7-.36,1.12-.43,2.14,0,3.16ZM31.81,4.96c.94,2.53,1.17,5.2,1.57,7.84-.17-2.68-.41-5.35-1.57-7.84Zm9.04,44.96c-.81-.46-1.34-1.48-2.56-1.31,1.26,1.09,1.92,1.44,2.56,1.31Zm-5.12-6.37c.15,.45,.44,.65,.85,.59,.57-.09,1.06-.34,1.44-.78,.36-.41,.47-.93,.32-1.41-.64,1.63-1.46,2.15-2.62,1.6Zm19.34,16.33c.1,1.27,.48,2.46,.96,3.63-.02-1.29-.46-2.47-.96-3.63Zm-42.65,2.86c.32-.9,.53-1.8,.5-2.73-.04,0-.07-.01-.11-.02-.09,.51-.18,1.02-.26,1.47v-1.98s-.09,0-.13,0v3.26Zm41.14-17.72c-.96,.18-1.93-.21-2.89,.1,.98,.37,1.94,.42,2.89-.1ZM2.93,34.47c.46,.17,.84,.31,1.3,.48-.08-.29-.14-.49-.2-.69-.02-.08-.06-.16-.1-.23-.19-.32-.47-.35-.71-.07-.1,.12-.17,.28-.29,.5ZM40.93,9.66c.7-1.46,1.39-2.91,2.13-4.44-.59,.68-1.9,3.39-2.13,4.44Zm23.08,25.21c.51-.12,.9-.21,1.41-.32-.26-.31-.41-.54-.61-.72-.06-.05-.32-.01-.36,.06-.16,.27-.26,.57-.44,.98Zm-15.4,12.25s.02-.09,.03-.14c-1.16-.52-2.44-.4-3.64-.73-.01,.06-.02,.11-.03,.17,1.21,.23,2.43,.47,3.64,.7ZM27.3,9.73c-.48-1.59-1.21-3.06-2.16-4.42,.72,1.47,1.44,2.95,2.16,4.42Zm23.64,36.31l-2.88-.51c.9,.5,1.83,.87,2.88,.51ZM34.29,9.59s.09,.02,.14,.02c.29-1.76,.58-3.53,.87-5.29-.04,0-.09-.01-.13-.02-.29,1.76-.58,3.53-.87,5.29Zm-11.2,36.8s0-.07,0-.11c-.12,0-.25-.02-.37,0-.57,.11-1.14,.23-1.71,.34-.44,.09-.88,.18-1.32,.27,.01,.06,.03,.13,.04,.19l3.36-.7Zm25.33,20.21s.05-.02,.07-.03c-.05-.8-.1-1.6-.16-2.42-.15,.07-.27,.12-.44,.2,.18,.75,.35,1.5,.53,2.25Zm3.49-4.43c-.45,.42-.38,1.77,0,2.25v-2.25ZM33.68,9.16c-.19-1.56-.34-3.12-.95-4.59,.32,1.53,.63,3.06,.95,4.59Zm18.01,56.17c-.24-.85-.49-1.71-.73-2.56l-.14,.04c-.09,.95,.53,1.7,.87,2.52Zm-25.22-16.1c.67,.23,1.52-.16,1.84-.86-.65,.3-1.2,.56-1.84,.86Zm15.22,.03c-.65-.29-1.21-.55-1.78-.81,.28,.62,1.19,1.04,1.78,.81Zm-21.87,14.74v1.88c.15-.64,.61-1.28,0-1.88Zm12.22,5.92c.07-.9,.13-1.8,.2-2.7-.33,.53-.41,1.72-.2,2.7ZM2.5,38.47c-.02-.51-.05-1.02-.08-1.63-.42,.36-.38,1.01,.08,1.63Zm32.7-14.72s-.08,0-.12,0v3.18s.08,0,.12,0v-3.18Zm30.92,13.3s-.07,0-.11,0v1.57s.1,0,.15,0c.1-.52,.13-1.05-.04-1.56ZM33.03,20.16s.07-.01,.11-.02c-.11-.87-.23-1.75-.34-2.62-.06,0-.11,.02-.17,.02,.13,.87,.27,1.74,.4,2.62ZM1.96,46.23s.09,.01,.13,.02c.1-.58,.2-1.17,.29-1.75-.06,0-.12-.02-.18-.03-.08,.59-.17,1.17-.25,1.76Zm14.43,16.18s-.09,0-.13,0c-.03,.51-.05,1.01-.08,1.52,.05,0,.1,0,.15,0,.03-.5,.24-1,.07-1.52Zm5.82-17.62s-.02-.08-.03-.11c-.65,.17-1.3,.34-1.95,.5,.01,.04,.02,.08,.03,.12l1.95-.51Zm10.65,19.87s-.06-.02-.1-.03c-.14,.44-.27,.88-.41,1.32,.05,.01,.1,.03,.15,.04,.12-.44,.23-.89,.35-1.33Zm-16.12-17.92c-.01-.05-.02-.11-.03-.16-.38,.06-.76,.13-1.14,.19,0,.04,.02,.09,.02,.13,.38-.05,.77-.11,1.15-.16ZM28.48,12.9s.07-.02,.11-.03l-.59-1.39s-.07,.03-.1,.04c.19,.46,.39,.92,.58,1.38Zm8.2,52.19s-.07,0-.11,0v1.04s.07,0,.11,0v-1.04Zm2.63-51.57s.06,.01,.09,.02c.17-.52,.34-1.04,.51-1.55-.03,0-.06-.02-.08-.03l-.52,1.56Zm-1.2,27.03s-.09,.04-.13,.06c.1,.37,.19,.73,.29,1.1,.05-.01,.1-.03,.14-.04-.1-.37-.2-.74-.3-1.11ZM9.07,57.76s.08,0,.12-.01v-1.42s-.04,0-.06,0c-.02,.48-.04,.96-.07,1.44Z"/>
      <path d="M20.93,14.55c-.34-.72-.68-1.43-1.01-2.15-.13-.29-.22-.61-.38-.88-.07-.12-.26-.18-.45-.3,.21,1.34,.73,2.44,1.57,3.48-.52-.16-1.16-.77-1.48-1.39-.31-.6-.59-1.21-.87-1.82-.43-.93-1.02-1.76-1.77-2.48,1.22,1.43,1.95,3.1,2.62,4.92-.31-.08-.53-.14-.74-.19-.02,.04-.05,.07-.07,.11,.68,.77,1.72,1.12,2.35,1.97-1.6-1.08-3.14-2.29-5.16-2.54,1.73,1.06,3.45,2.11,5.18,3.17-.03,.05-.05,.09-.08,.14-.62-.34-1.23-.7-1.85-1.03-.63-.34-1.24-.72-1.9-.98-.67-.27-1.38-.42-2.07-.62-.01,.04-.03,.07-.04,.11,1.72,.99,3.44,1.99,5.17,2.98-.02,.04-.04,.09-.07,.13-1.91-.94-3.76-2.04-6-2.36,1.7,1.16,3.76,1.47,5.23,2.87-.31-.16-.63-.32-.94-.49-1.08-.59-2.26-.77-3.46-.94-.64-.09-1.31-.25-1.87-.55-1.72-.92-3.12-2.22-4.08-3.94-.03-.05-.04-.12-.03-.21,1.21,1.62,2.62,2.96,4.53,3.7-1.55-1.6-3.45-2.9-4.31-5.08,1.18,1.53,2.51,2.89,4.1,3.99,.07,.05,.17,.07,.34,.14-1.53-1.45-3.05-2.79-3.96-4.64,1.19,1.22,2.19,2.65,3.76,3.46-1.48-1.34-2.83-2.79-3.73-4.59,.03-.02,.06-.04,.08-.07,.14,.25,.28,.51,.42,.76,.02,.03,.06,.05,.15,.11-.24-.82-.46-1.59-.69-2.35,.03-.02,.05-.04,.08-.05,.1,.16,.21,.31,.28,.48,.31,.76,.57,1.55,.91,2.3,.45,1,2.05,2.42,3.13,2.79-.33-.23-.66-.45-.98-.7-1.46-1.11-2.4-2.57-2.84-4.34-.13-.53-.33-.91-.93-.92-.09,0-.18-.06-.26-.16h2.08s.01-.03,.02-.04c-.67-.16-1.33-.32-2-.49l.04-.13c2.69-.08,4.92,1.11,7.05,2.57-2.07-1.85-4.59-2.71-7.28-3.33,.92-.28,4.28,.71,5.86,1.54,1.89,.99,2.84,2.81,4.08,4.39,.04-.03,.07-.06,.11-.08-.4-.63-.8-1.26-1.18-1.9-.84-1.41-2.15-2.27-3.52-3.1-1.56-.95-3.28-1.3-5.04-1.58-.1-.02-.2-.05-.28-.14,2.03,.15,4.02,.39,5.84,1.47,1.82,1.08,3.13,2.59,4.12,4.43-.14-.98-.64-1.79-1.24-2.53-.59-.73-1.25-1.39-1.86-2.05,.74,.26,1.9,1.22,2.58,2.39,.61,1.04,1.07,2.18,1.51,3.1-.27-1.3-.7-2.73-1.65-4.05,.51,.38,.94,.86,1.24,1.67,.31,.86,.49,1.77,.74,2.66,.25,.86,.51,1.71,.79,2.56,.08,.25,.21,.48,.32,.72-.06,.03-.12,.06-.18,.09Zm-3.36-2.66c-.47-1.35-3.35-3.45-4.69-3.38,1.98,.65,3.49,1.8,4.69,3.38Z"/>
      <path d="M52.18,8.25c1.26-.88,2.63-1.56,4.09-2.01,.87-.26,1.78-.38,2.67-.54,.16-.03,.34,.02,.51,.11-.76,.2-1.51,.39-2.27,.59,0,.03,.02,.06,.03,.09,.8-.06,1.6-.12,2.4-.18,0,.04,0,.08,0,.12-.42,.27-1.14-.08-1.35,.61,.03,.03,.05,.07,.08,.1l.21-.41c.05,.04,.11,.07,.16,.11-.19,1.07-.59,2.07-1.13,3.02,.04,.02,.09,.05,.13,.07,.32-.52,.63-1.05,.94-1.56,.05,.45-.07,.69-1.55,2.53-.63,.77-1.37,1.45-1.96,2.07,1.4-.64,2.32-2.05,3.49-3.26,0,.41-.6,1.28-1.66,2.38-.68,.7-1.39,1.38-2.05,2.03,.38-.04,1.14-.58,2.31-1.76,.7-.7,1.35-1.44,2.06-2.12-1.1,1.98-2.82,3.41-4.44,4.98,.97-.34,1.81-.84,2.54-1.5,.72-.65,1.36-1.39,2.05-2.1-.45,.82-.93,1.6-1.64,2.19-.83,.69-1.71,1.31-2.59,1.93-.25,.18-.59,.25-.9,.32-1.13,.27-2.27,.49-3.39,.79-.57,.15-1.12,.42-1.69,.61,1.57-1.06,3.39-1.67,5.02-2.64-1.03,.13-2.01,.46-2.96,.86-.95,.4-1.86,.88-2.79,1.32-.02-.04-.04-.07-.06-.11,1.79-1.01,3.58-2.02,5.33-3-2.2,.26-4.04,1.53-6.07,2.37,1.65-.98,3.3-1.97,4.94-2.95-1.89,.06-3.26,1.26-4.79,2.13,.76-.68,1.52-1.35,2.29-2.03-.02-.03-.04-.05-.06-.08-.38,.16-.76,.32-1.25,.53,.12-.24,.19-.38,.26-.52,.49-.97,.94-1.97,1.47-2.92,.36-.66,.83-1.26,1.25-1.88,.12-.1,.25-.2,.37-.3Zm-1.69,3.63c1.25-1.59,2.8-2.77,4.75-3.39-1.38,.05-4,1.69-4.75,3.39Zm4,.62c1.29-.68,2.34-1.58,3-2.9-.86,1.11-1.83,2.11-3,2.9Z"/>
      <path d="M7.63,17.88c-.67-.52-1.35-1.03-2-1.56-.09-.07-.09-.25-.08-.39,.94,.88,1.99,1.44,3.13,1.67-.24-.4-.45-.86-.75-1.26-.23-.31-.57-.53-.85-.8-.22-.2-.49-.38-.42-.82,.9,.35,1.59,1.04,2.6,1.22-2.4-1.79-2.54-1.93-2.37-2.49,.37,.32,.73,.62,1.08,.92,.03-.02,.06-.04,.09-.06-.12-.24-.21-.5-.36-.72-.41-.6-.85-1.18-1.26-1.78-.13-.18-.21-.4-.32-.6,.03-.03,.07-.05,.1-.08,.18,.16,.36,.31,.54,.47,.03-.02,.05-.04,.08-.06l-1.59-2.26s.06-.06,.09-.08c.3,.23,.6,.47,1,.78-.09-.23-.16-.35-.2-.48-.12-.39-.52-.72-.23-1.2,.02-.04-.08-.17-.14-.24-.23-.25-.47-.48-.69-.73-.11-.12-.19-.27-.3-.45,.73-.03,2.61,1.82,2.69,2.63-.4-.33-.75-.62-1.1-.91-.02,.02-.05,.04-.07,.07,.2,.29,.36,.61,.59,.87,.37,.41,.56,.89,.68,1.42,.23,1.08,.51,2.16,1.21,3.06,.95,1.21,2.17,2.05,3.62,2.56,.06,.02,.14,.03,.21,.03,.02,0,.04-.02,.09-.05-1.29-.79-2.57-1.58-3.43-2.85-.22-.33-.42-.68-.62-1.02l.09-.07c.13,.16,.28,.32,.4,.49,.98,1.36,2.24,2.32,3.84,2.85,.79,.26,1.54,.63,2.36,.96-2.48,.3-4.8-.51-7.19-.63-.02,.03-.03,.07-.05,.1,.16,.09,.32,.25,.49,.27,2.04,.28,4.08,.54,6.12,.79,.41,.05,.84,.04,1.26,0,.7-.07,1.31,.17,1.91,.41-.75-.08-1.53-.23-2.3-.23-.79,0-1.58,.14-2.37,.29,.23,.01,.46,.02,.69,.04,.02,.04,.04,.08,.06,.11-.77,.41-1.54,.81-2.32,1.22,1.06-.18,2.12-.36,3.18-.54,.01,.06,.02,.11,.03,.17-.38,.08-.77,.14-1.15,.24-.89,.25-1.79,.46-2.65,.78-.99,.37-1.9,.21-2.72-.35-.71-.49-1.34-1.09-1.98-1.68-.19-.17-.28-.45-.41-.68,.04-.03,.07-.05,.11-.08,.07,.05,.14,.11,.21,.16,.61,.47,1.26,.89,1.81,1.42,.45,.43,.93,.58,1.53,.56-.82-.24-1.61-.53-1.96-1.41,1.01,.65,2.14,1.02,3.38,1.39-.53-.3-.96-.53-1.38-.76-.63-.34-1.26-.67-2-.63Zm.76-3.54c.51,1.01,1.41,1.53,2.4,1.93-.8-.64-1.6-1.29-2.4-1.93Zm2.86,3.91c-.85-.43-1.79-.9-2.82-1.41,.31,.53,2.15,1.38,2.82,1.41Z"/>
      <path d="M57.71,16.9c.02-.06,.05-.13,.08-.22h-.57c.08-.08,.11-.15,.16-.17,.87-.28,1.36-1.04,2.01-1.6,.62-.52,1.28-1,1.97-1.44-.43,1.21-1.61,1.64-2.39,2.51,.79-.4,1.58-.81,2.38-1.21,.04,.06,.08,.11,.12,.17-.22,.22-.42,.45-.65,.64-.35,.29-.7,.55-.75,1.06-.01,.12-.16,.28-.29,.33-.98,.4-1.97,.78-2.97,1.16-.15,.06-.32,.08-.48,.11,0,.04,.02,.07,.02,.11,1.09-.27,2.19-.51,3.26-.82,1.08-.31,2.09-.77,2.89-1.61,.04,.02,.08,.04,.12,.06-.05,.12-.06,.3-.15,.37-.74,.53-1.45,1.12-2.25,1.52-1.01,.5-2.1,.82-3.13,1.31,.55-.16,1.09-.31,1.64-.47,.26-.07,.51-.19,.77-.21,.92-.07,1.64-.51,2.3-1.11,.05-.04,.11-.08,.24-.07-.04,.1-.06,.23-.13,.29-.71,.67-1.38,1.41-2.16,1.98-.7,.51-1.56,.57-2.42,.36-1.29-.32-2.58-.62-3.87-.94-.05-.01-.09-.05-.19-.1,1.05-.11,2.01,.37,3,.26,0-.04,.02-.09,.03-.13-.72-.31-1.45-.61-2.17-.92,0-.03,.02-.07,.03-.1,.36-.05,.73-.09,1.09-.14,0-.04,0-.07,0-.11-.78-.05-1.56-.16-2.34-.15-.79,0-1.57,.12-2.38,.11,.58-.12,1.16-.34,1.74-.35,1.84-.03,3.66-.16,5.48-.49,.78,.09,1.48-.09,2.12-.5-.02-.06-.03-.11-.05-.17l-2.08,.68Zm2.42,2s-.02-.08-.03-.13c-.62,.13-1.24,.27-1.86,.4,0,.04,.02,.07,.02,.11,.62-.13,1.25-.26,1.87-.39Z"/>
      <path d="M52.18,8.25c-.12,.1-.25,.2-.37,.3-.88,.93-1.59,1.98-2.11,3.14-.55,1.23-1.24,2.35-2.26,3.25-.05,.04-.11,.08-.06,.04,.56-1.15,1.17-2.38,1.81-3.7-.54,0-.73,.24-.87,.57-.22,.55-.42,1.1-.68,1.62-.16,.33-.41,.62-.63,.92-.03-.02-.07-.04-.1-.06,.09-.18,.19-.36,.26-.55,.29-.77,.6-1.53,.84-2.32,.31-1.02,.52-2.06,.85-3.07,.13-.41,.44-.76,.72-1.1-.32,.88-.65,1.77-.97,2.65,.06,.04,.12,.07,.19,.11,.66-2.13,1.98-3.7,3.88-4.79-1.56,1.35-2.89,2.86-3.51,4.9,1.43-2.3,3.14-4.32,5.73-5.32,1.49-.58,3.09-.75,4.7-.82-.05,.03-.09,.07-.14,.08-1.37,.33-2.76,.61-4.11,1.01-1.25,.37-2.28,1.19-3.28,2-1.29,1.05-2.15,2.42-2.83,3.91-.01,.03,0,.08,.04,.17,1.56-2.91,3.82-4.96,7.06-5.78,1-.25,2-.51,3.05-.45-.67,.2-1.34,.42-2.02,.61-1.57,.45-3.05,1.11-4.45,1.95-.29,.17-.49,.47-.74,.71Z"/>
      <path d="M62.12,8.3c.37,.03,.21,.32,.18,.46-.07,.28-.23,.54-.35,.8-.07,.16-.15,.31-.18,.5l1.01-.89s.09,.08,.14,.13c-.39,.88-1.37,1.36-1.67,2.31l.63-.57s.05,.03,.08,.04c-.05,.13-.08,.27-.15,.38-.52,.8-1.03,1.6-1.59,2.37-.23,.31-.59,.52-.88,.78-.65,.56-1.31,1.1-1.93,1.68-.43,.4-.91,.64-1.5,.64-.7,0-1.4,0-2.1-.02-.23,0-.46-.1-.69-.2,2.49-.7,4.75-1.69,6.18-3.99-.07,.65-.41,1.21-1.48,2.15-.68,.59-1.46,1.08-2.21,1.63,.68-.05,1.26-.34,1.81-.71,1.7-1.15,2.81-2.71,3.16-4.76,.1-.58,.33-1.08,.71-1.54,.3-.36,.55-.78,.82-1.17,0,0,.02-.03,.02-.03Z"/>
      <path d="M11.68,1.57c-.25-.17-.51-.33-.75-.52-.09-.07-.12-.22-.18-.33,.12-.01,.27-.07,.36-.02,.91,.47,1.71,1.07,2.07,2.13-.14-.08-.31-.13-.41-.25-.28-.31-.6-.4-1.01-.39-1.24,.06-2.45,.24-3.53,.92-1.03,.65-1.59,1.55-1.43,2.81,.02,.14-.04,.3-.07,.45-.04,0-.08,0-.12,0,.07,.11,.15,.22,.22,.34-.54-.31-1.03-.65-1.27-1.23,.03-.03,.06-.06,.09-.1,.22,.21,.44,.41,.63,.6-.11-.5-.22-1.03-.34-1.55,.05-.02,.1-.04,.16-.06,.08,.07,.16,.14,.26,.23,.71-2.09,2.43-2.63,4.4-2.82-.36-.12-.68-.22-1-.33,.01-.04,.03-.09,.04-.13,.65-.18,1.23,.07,1.86,.25Z"/>
      <path d="M54.91,2.83c0-.75,1.56-2.12,2.46-2.15-.2,.58-.83,.7-1.16,1.15,.72-.22,1.34-.72,2.1-.58,.02,.05,.03,.09,.05,.14-.33,.14-.66,.28-1.12,.47,2.14,0,3.76,.66,4.47,2.74,.06-.03,.13-.06,.18-.09,.36,.32-.13,1.61-.73,1.94,.1-.66,.21-1.28-.09-1.93-.52-1.11-1.42-1.74-2.53-2.03-.81-.21-1.66-.25-2.49-.34-.16-.02-.34,.1-.49,.2-.22,.14-.42,.3-.65,.48Z"/>
      <path d="M58.67,26.67c.13,.04,.26,.07,.38,.12,1.05,.47,2.1,.93,3.14,1.42,.5,.24,.88,.6,1.2,1.08,.41,.63,.92,1.2,1.39,1.81-.01,0-.11,.05-.23,.11,.15,.18,.29,.35,.51,.61-.83-.11-1.51-.2-2.08-.74-.27-.25-.63-.41-.95-.61-.13-.08-.26-.13-.37-.25,.49,.13,.98,.26,1.48,.38,.02-.04,.04-.08,.05-.12-.85-.44-1.69-.87-2.54-1.31,.02-.05,.04-.1,.07-.15,.74,.3,1.48,.61,2.25,.92-1.08-1.55-2.83-2.22-4.29-3.28Z"/>
      <path d="M4.8,30.81c.15,0,.31,.04,.44,0,.48-.19,.94-.41,1.43-.57-1.13,.67-2.15,1.59-3.64,1.49,.18-.17,.36-.33,.57-.52-.17-.08-.31-.14-.39-.18,.38-.33,.77-.65,1.13-1,.13-.13,.25-.32,.28-.5,.09-.5,.41-.78,.82-.99,.63-.34,1.24-.69,1.88-1,.64-.31,1.29-.57,1.97-.8-1.67,1.1-3.55,1.93-4.66,3.74,.85-.72,1.9-.94,3.01-1.21-.99,.48-1.92,.92-2.84,1.37,0,.06,0,.13,0,.19Z"/>
      <path d="M6.53,23.97c.33-1.41,1.59-1.42,2.55-1.97-.41-.07-.74-.12-1.07-.18-.9-.18-1.61-.68-2.26-1.29-.13-.12-.19-.33-.19-.54,.31,.24,.6,.5,.92,.71,.61,.4,1.29,.61,2.02,.62,.88,.02,1.76,0,2.64,0,.13,0,.27,0,.4,.07-1.32,.66-2.63,1.32-4.01,2.01h.48s.01,.06,.02,.1c-.48,.15-.95,.31-1.5,.48Z"/>
      <path d="M62.63,20.06c-.29,.6-.8,1-1.4,1.26-.58,.25-1.21,.41-1.83,.61,.44,.25,.88,.5,1.4,.79-.18,.09-.25,.13-.33,.17,.45,.25,.89,.5,1.38,.77-.64,.35-2.47-.42-3.38-1.35,.26,.06,.47,.11,.65,.16-.64-.73-1.59-.8-2.48-.99,0-.06,.02-.11,.03-.17,.31,0,.62,0,.93,0,.78-.02,1.57-.02,2.35-.07,.88-.06,1.65-.4,2.29-1.02,.09-.09,.2-.17,.31-.25,.03,.04,.07,.07,.1,.11Z"/>
      <path d="M6.47,19.18c.15,.04,.2,.04,.23,.06,1.53,1.26,3.32,1.12,5.12,.92,.53-.06,1.05-.2,1.57-.31l.03,.11c-.28,.1-.56,.21-.84,.3-.65,.21-1.31,.39-1.96,.61-1.65,.56-2.95-.09-3.94-1.22-.09-.1-.12-.26-.21-.48Z"/>
      <path d="M61.56,19.26c-.03,.1-.02,.18-.06,.22-.65,.69-1.29,1.39-2.33,1.48-.76,.07-1.49-.02-2.22-.3-.84-.33-1.72-.58-2.58-.87-.08-.03-.15-.07-.22-.13,2.5,.6,4.99,1.22,7.4-.41Z"/>
      <path d="M48.15,5.35c.63-.79,1.26-1.58,1.89-2.37,.43-.53,.87-1.06,1.3-1.59,.12-.15,.22-.32,.35-.47,.05-.05,.17-.12,.19-.1,.07,.05,.14,.14,.14,.22,0,.1-.03,.22-.08,.32-.49,.89-1,1.75-1.83,2.37-.43,.33-.8,.74-1.19,1.12-.21,.21-.38,.44-.57,.67-.07-.06-.13-.11-.2-.17Z"/>
      <path d="M19.56,5.14c-.88-.8-1.79-1.56-2.61-2.41-.4-.41-.63-.98-.91-1.49-.05-.09,.02-.24,.03-.36,.12,.05,.26,.08,.34,.16,.77,.86,1.55,1.72,2.3,2.6,.36,.43,.65,.93,.98,1.39-.04,.03-.08,.07-.12,.1Z"/>
      <path d="M57.45,22.74c.05,0,.11-.01,.16,0,1.48,.41,2.8,1.09,3.9,2.18,.06,.05,.06,.16,.08,.25-.12,.04-.27,.13-.36,.09-.41-.19-.83-.39-1.21-.64-.71-.47-1.39-.99-2.08-1.48-.17-.12-.36-.19-.54-.28,.02-.04,.03-.08,.05-.12Z"/>
      <path d="M9.64,25.2c-1.69,1.05-3,2.77-5.18,2.96,1.59-1.23,3.4-2.08,5.18-2.96Z"/>
      <path d="M58.65,25.31c1.64,.93,3.48,1.5,4.89,2.83-2.02-.27-3.37-1.71-4.89-2.83Z"/>
      <path d="M10.68,22.79c-1.43,.73-2.48,2.06-4.08,2.66,.05-.9,2.66-2.56,4.08-2.66Z"/>
      <path d="M47.94,8.38c-.13,.57-.25,1.13-.38,1.7-.09,.4-.19,.79-.27,1.19-.21,1.17-.74,2.18-1.51,3.08-.65,.75-1.22,1.56-1.83,2.35-.08,.1-.16,.19-.32,.24,.06-.11,.11-.22,.19-.32,.44-.58,.85-1.18,1.34-1.72,.84-.94,1.4-2.01,1.67-3.24,.19-.84,.45-1.67,.69-2.51,.08-.27,.21-.53,.32-.8,.04,.01,.07,.02,.11,.03Z"/>
      <path d="M22.85,9.92c.83,1.15,1.69,2.37,2.57,3.57,.83,1.13,1.69,2.23,2.53,3.35,.21,.28,.36,.61,.54,.92-.03,.02-.06,.04-.09,.05-.22-.3-.43-.61-.65-.91-1.42-1.89-2.84-3.78-4.26-5.67-.32-.42-.61-.87-.63-1.31Z"/>
      <path d="M39.54,17.62c.1-.17,.18-.36,.3-.52,1.26-1.64,2.54-3.27,3.78-4.92,.44-.59,.79-1.25,1.18-1.88,.14-.24,.27-.48,.41-.72,.03,.02,.07,.03,.1,.05-.16,.36-.28,.74-.47,1.08-.89,1.61-2.03,3.04-3.22,4.45-.69,.82-1.36,1.66-2.03,2.5-.02-.01-.04-.02-.05-.03Z"/>
      <path d="M44.73,13.49c1.34-1.74,1.55-3.97,2.56-5.85,.04-.08,.12-.13,.21-.23-.31,2.13-1.79,5.41-2.78,6.08Z"/>
      <path d="M16.63,3.45c-.81-1.02-1.62-2.04-2.42-3.07-.06-.07,0-.23,.05-.37,1.02,.98,2.02,1.97,2.53,3.31-.05,.04-.11,.09-.16,.13Z"/>
      <path d="M23.18,13.35c-1.59-1.55-1.9-3.68-2.53-5.66,.05-.02,.09-.04,.14-.07,.1,.21,.21,.42,.29,.64,.38,1.08,.72,2.18,1.14,3.24,.25,.64,.64,1.23,.97,1.84Z"/>
      <path d="M20.2,8.26c.15,.46,.32,.91,.46,1.37,.27,.91,.49,1.84,.79,2.74,.2,.58,.5,1.12,.77,1.67,.08,.17,.19,.32,.27,.5-.73-.57-1.09-1.38-1.35-2.21-.4-1.29-.7-2.61-1.05-3.93,0-.03,.01-.07,.02-.11,.03,0,.06-.02,.09-.03Z"/>
      <path d="M27.16,21.15c-1.44-2.05-2.88-4.09-4.38-6.23,1.74,1.98,3.35,3.9,4.38,6.23Z"/>
      <path d="M53.94,0c-.06,.21-.07,.35-.14,.44-.74,.94-1.48,1.86-2.23,2.79-.06,.07-.15,.11-.24,.18,.04-.78,1.73-3.03,2.61-3.42Z"/>
      <path d="M55.21,0c-.07,.21-.08,.38-.17,.47-.74,.74-1.5,1.47-2.26,2.2-.05,.04-.12,.06-.19,.09,.04-.68,1.65-2.43,2.62-2.76Z"/>
      <path d="M15.44,2.79c-.23-.19-.39-.3-.53-.43-.55-.53-1.11-1.07-1.65-1.62-.15-.15-.26-.32-.37-.5-.03-.05,0-.16,.04-.22,.02-.03,.15-.03,.18,0,.81,.8,1.78,1.46,2.3,2.52,.02,.03,.01,.08,.03,.23Z"/>
      <path d="M62.12,8.3s-.02,.03-.02,.03c-.45,.36-.89,.72-1.37,1.11-.03-.75,1.9-2.56,2.6-2.45-.42,.45-.81,.88-1.21,1.32Z"/>
      <path d="M56.09,.55c-.14,.58-1.61,1.88-2.35,2.09,.04-.47,1.65-1.92,2.35-2.09Z"/>
      <path d="M14.32,2.66c-.91-.54-1.85-1.05-2.28-2.1,.87,.58,1.75,1.15,2.28,2.1Z"/>
      <path d="M40.87,21.23c.73-1.25,1.29-2.6,2.3-3.67-.68,1.28-1.27,2.61-2.3,3.67Z"/>
      <path d="M5.24,5.79c.79,.76,1.57,1.52,2.36,2.29-.05,.05-.1,.1-.15,.15-.82-.73-1.82-1.28-2.35-2.3,.05-.04,.09-.09,.14-.13Z"/>
      <path d="M56.64,22.5c-1.77-.19-3.54-.39-5.31-.58,1.81-.13,3.58,.11,5.31,.58Z"/>
      <path d="M60.55,8.01c.76-.68,1.51-1.35,2.27-2.03,.02-.02,.08,0,.12,0,.01,.3-.59,1.04-1.25,1.45-.36,.23-.65,.6-1.07,.73-.02-.05-.05-.1-.07-.15Z"/>
      <path d="M39.28,18.93c1.08-1.32,2.15-2.64,3.23-3.96l.13,.1c-1.07,1.33-2.14,2.65-3.21,3.98-.05-.04-.1-.08-.15-.12Z"/>
      <path d="M25.54,15.04c.88,1.19,2.03,2.18,2.64,3.57-.87-1.2-1.97-2.22-2.64-3.57Z"/>
      <path d="M27.98,19.79c-.84-1.15-1.68-2.3-2.53-3.44,.99,1.05,2,2.08,2.53,3.44Z"/>
      <path d="M11.51,22.56c.77-.39,3.44-.81,4.18-.64-1.36,.21-2.71,.41-4.18,.64Z"/>
      <path d="M40.06,19.64c.64-1.35,1.6-2.46,2.65-3.5-.88,1.17-1.77,2.34-2.65,3.5Z"/>
      <path d="M62.45,5.22c.18,.48-.47,1.34-1.26,1.61,.41-.52,.81-1.03,1.26-1.61Z"/>
      <path d="M8.54,28.3c-.97,.41-1.95,.82-2.92,1.23-.02-.05-.04-.09-.06-.14,.98-.4,1.95-.81,2.93-1.21,.02,.04,.03,.08,.05,.12Z"/>
      <path d="M37.23,24.85v2.61c-.34-.87-.13-1.74,0-2.61Z"/>
      <path d="M59.53,28.2c.77,.31,1.53,.63,2.3,.94-.01,.03-.03,.07-.04,.1-.77-.3-1.54-.61-2.31-.91,.02-.05,.04-.09,.05-.14Z"/>
      <path d="M6.65,34.48c.89,.13,1.78,.25,2.72,.39-.98,.25-1.83-.24-2.72-.39Z"/>
      <path d="M14.54,20.91c-.71,.17-1.42,.35-2.13,.52-.01-.05-.02-.09-.04-.14,.71-.17,1.42-.34,2.12-.51l.04,.13Z"/>
      <path d="M42.81,15.91c.45-.55,.91-1.09,1.36-1.64-.26,.71-.78,1.19-1.36,1.64Z"/>
      <path d="M24.81,15.7c-.35-.44-.71-.88-1.06-1.33,.03-.03,.07-.06,.1-.09,.37,.43,.73,.86,1.1,1.3-.04,.04-.09,.08-.13,.11Z"/>
      <path d="M14.73,20.7c.66-.32,1.35-.16,2.04-.09-.68,.03-1.36,.06-2.04,.09Z"/>
      <path d="M16.9,4.48c.49-.1,.74,.1,.81,.64-.3-.24-.52-.41-.81-.64Z"/>
      <path d="M11.91,3.57c-.49-.09-.98-.18-1.47-.27,0-.03,.01-.07,.02-.1,.49,.06,.98,.12,1.47,.18,0,.06-.01,.12-.02,.19Z"/>
      <path d="M50.32,4.87c.2-.18,.4-.36,.66-.6,.08,.1,.16,.19,.25,.29-.32,.16-.57,.29-.82,.42-.03-.04-.06-.07-.09-.11Z"/>
      <path d="M57.89,3.3c-.54,.09-1.08,.18-1.63,.27,0-.04-.01-.08-.02-.11,.54-.1,1.08-.19,1.62-.29,0,.05,.02,.09,.02,.14Z"/>
      <path d="M58.78,34.76h1.62c-.56,.21-1.12,.27-1.62,0Z"/>
      <path d="M52.86,20.53c-.54,.03-1.08,.07-1.62,.1,0-.03,0-.07,0-.1h1.63Z"/>
      <path d="M15.42,4.42c-.39-.08-.78-.16-1.18-.24,0-.05,.02-.1,.03-.15l1.16,.24s-.01,.1-.02,.15Z"/>
      <path d="M49.15,6.26c-.18,.31-.36,.62-.54,.93-.04-.02-.09-.05-.13-.07,.18-.31,.37-.62,.55-.93,.04,.03,.08,.05,.12,.08Z"/>
      <path d="M19.15,6.31c.17,.31,.35,.62,.52,.93-.05,.02-.09,.05-.14,.07-.17-.31-.33-.62-.5-.93,.04-.03,.08-.05,.11-.08Z"/>
      <path d="M54.38,21.08c.41,.04,.82,.08,1.23,.12,0,.04,0,.08-.01,.11-.41-.04-.81-.09-1.22-.13v-.11Z"/>
      <path d="M36,31.7c.12,.52,.24,1.04,.36,1.55-.05,.01-.09,.02-.14,.03-.11-.51-.22-1.03-.33-1.54,.04-.01,.08-.03,.12-.04Z"/>
      <path d="M31.11,46.93c.35-.27,.69-.54,1.04-.82,.04,.05,.08,.11,.11,.16l-1.11,.73s-.03-.05-.05-.07Z"/>
      <path d="M42.04,48.65c-.33-.23-.66-.46-1.03-.71,.49-.03,.79,.21,1.02,.72,0,0,.01-.01,.01-.01Z"/>
      <path d="M31.67,33.3c.07-.4,.14-.8,.22-1.21,.05,0,.1,.02,.15,.03-.08,.4-.16,.8-.23,1.2-.04,0-.08-.02-.13-.03Z"/>
      <path d="M32.88,34.98v-1.11s.06,0,.08,0v1.1s-.06,0-.08,0Z"/>
      <path d="M27.08,47.94c-.28,.19-.57,.39-.85,.58-.03-.04-.06-.08-.09-.12,.28-.19,.56-.39,.84-.58,.03,.04,.06,.08,.1,.12Z"/>
      <path d="M46.07,37.75c-2.97,0-5.93-1.89-7.19-5.13-1.17-3.03-.08-6.14,1.98-7.9,3.7-3.15,8.97-2.06,11.31,1.69,2.14,3.42,1.06,7.3-1.63,9.63-1.3,1.13-2.77,1.71-4.48,1.71Zm-3.26-12.17c.03,.05,.06,.11,.09,.16,.83-.34,1.65-.67,2.48-1.01,.02,.04,.03,.07,.05,.11-.68,.38-1.36,.76-1.9,1.33,.02,.04,.04,.08,.06,.12,1.23-.48,2.46-.97,3.69-1.45l.03,.09c-1.02,.5-2.03,1-3.05,1.49,1.11,.14,1.99-.46,2.96-.78,.01,.03,.03,.07,.04,.1-.7,.38-1.4,.77-2.09,1.15,.18,.08,.34,.11,.49,.07,.66-.18,1.31-.4,1.97-.55,.38-.09,.79-.06,1.18-.09,0,.01-.01,.03-.02,.04-.94,.31-1.88,.61-2.82,.92,.01,.05,.02,.1,.04,.15,.95,0,1.87-.44,2.85-.21-.75,.18-1.49,.37-2.24,.55v.12c.83,.08,1.65,.15,2.48,.23,0,.05,0,.1,0,.14-.47,.07-.94,.14-1.42,.21,1.22,.42,2.58,.11,3.73,.8-1.03-.16-2.06-.39-3.13-.14,1.48,.43,2.96,.86,4.44,1.29,.03-.09,.05-.13,.05-.16-.13-1.45-.44-2.85-1.39-3.99-1.62-1.95-3.68-2.97-6.3-2.8-1.56,.1-2.36,1.12-3.13,2.27,.98-.67,1.89-1.45,3.19-1.77-.85,.58-1.6,1.09-2.35,1.6Zm-1.44,4.23c-.37,.63-.39,1.32,0,1.77,.72,.85,1.6,1.38,2.78,1.24,1.52-.18,2.44-1.28,2.26-2.71-.02-.15-.09-.29-.14-.44-.04,0-.07,0-.11,0-.14,.67-.29,1.33-.84,1.81-.54,.47-1.14,.77-1.87,.68-1.32-.16-1.8-1.11-2.07-2.34Zm3.11-1.12c0-.44-.37-.82-.78-.82-.46,0-.93,.44-.92,.85,0,.46,.39,.83,.87,.83,.48,0,.83-.36,.83-.86Zm8.18,2.47c.14-.62,.13-.61-.36-.71-.67-.13-1.34-.26-2-.41-.43-.1-.84-.23-1.27-.35-.02,.05-.03,.1-.05,.16,1.21,.43,2.43,.86,3.68,1.31Zm-10.35,4.94s.09-.08,.14-.12c-.78-.91-1.56-1.81-2.33-2.72-.05,.04-.1,.08-.15,.12,.46,1.17,1.37,1.97,2.34,2.71Zm7.26-5.59c.89,.66,1.95,.92,3.04,1.2-.03-.17-.09-.35-.2-.38-.94-.29-1.89-.55-2.84-.82Zm-8.82-.89c.54-1.03,.98-2.12,2-2.82-1.28,.5-1.74,1.59-2,2.82Zm5.78,3.01c-.7,.24-1.44,.5-2.09,.72,.53,.19,1.63-.17,2.09-.72Zm-3.8-8.39c-.57,.21-1.09,.48-1.33,1.09,.44-.36,.88-.72,1.33-1.09Zm8.55,7.47s-.02,.09-.04,.13c.31,.14,.62,.3,.94,.42,.06,.03,.16-.04,.24-.06-.05-.08-.08-.21-.15-.23-.33-.1-.67-.18-1-.26Zm-11.88,.92l.19,.03c.05-.29,.47-.54-.05-.98-.06,.38-.1,.67-.14,.95Zm-.06-1.75c-.06,0-.11,0-.17-.01-.16,.17-.24,.37-.11,.6,.03,.05,.18,.03,.28,.04v-.63Z"/>
      <path d="M52.98,49.34c-.41-.2-.82-.41-1.23-.61,.02-.04,.04-.08,.06-.12,.42,.2,.83,.4,1.25,.6-.03,.05-.06,.09-.08,.14Z"/>
      <path d="M21.91,37.75c-4.24,.07-7.01-3.68-7.11-7.23-.14-4.69,3.7-7.41,6.94-7.61,4.59-.28,7.95,3.33,7.91,7.22-.03,3.48-2.93,7.73-7.74,7.62Zm.7-12.94s.04-.09,.06-.14c.86,.37,1.71,.74,2.57,1.11,.02-.04,.04-.08,.05-.11-.63-.78-1.61-1.05-2.38-1.64,1.21,.33,2.29,.9,3.21,1.77-.57-1.05-1.3-1.93-2.5-2.2-3.87-.85-7.66,2.13-8.16,5.43-.1,.67-.11,1.35-.17,2.14,1.31-.51,2.59-.69,3.66-1.45-1.09,.29-2.19,.58-3.28,.87l-.04-.14c1.37-.44,2.75-.88,4.12-1.32-.01-.06-.03-.13-.04-.19-1.14,.16-2.28,.31-3.45,.48,1.35-.61,2.82-.51,4.19-.84,0-.04,0-.08-.01-.12-.52-.06-1.04-.11-1.55-.17,.33-.46,.77-.24,1.16-.27,.43-.03,.85-.03,1.28-.05v-.16c-.68-.2-1.37-.39-2.05-.59,.01-.05,.02-.1,.03-.15,.86,.11,1.72,.22,2.58,.33,.01-.06,.02-.11,.03-.17-.93-.3-1.86-.59-2.79-.89,.51-.1,1.03-.04,1.54,.11,.5,.15,.98,.33,1.48,.46,.24,.06,.49,.05,.74,.06,0-.03,0-.06,0-.1l-2.03-1.09s.04-.08,.06-.12c.48,.18,.96,.37,1.45,.53,.47,.16,.95,.3,1.43,.45,.02-.06,.05-.12,.07-.18-1.04-.49-2.07-.98-3.11-1.46,0-.02,.02-.05,.03-.07,1.23,.42,2.47,.84,3.7,1.26,.02-.04,.04-.08,.06-.12-.31-.23-.62-.47-.94-.67-.32-.21-.66-.39-1-.58Zm-.7,4.82c-.08,.18-.19,.36-.22,.55-.15,.79,.33,1.81,1.02,2.25,1.46,.94,3.25,.19,4.05-.87,.36-.48,.29-1.22-.08-1.59-.24,1.36-1.11,2.17-2.4,2.21-1.15,.04-1.85-.74-2.36-2.55Zm2.49-.07c.49,0,.88-.38,.88-.88,0-.4-.43-.8-.87-.81-.48,0-.82,.32-.82,.81,0,.5,.34,.88,.81,.88Zm3.69,3.9c-1.01,.6-1.5,1.64-2.16,2.54,.93-.67,1.65-1.52,2.16-2.54Zm-9.61-2.85s-.03-.07-.05-.1c-.36,.14-.71,.3-1.08,.4-.52,.15-1.06,.24-1.59,.38-.12,.03-.2,.2-.3,.3,.13,.03,.27,.12,.38,.09,.59-.17,1.18-.35,1.75-.57,.31-.12,.59-.33,.88-.5Zm8.67-1.2c.1-1.1-1.03-2.63-1.98-2.67,.97,.69,1.65,1.55,1.98,2.67Zm1.59,3.25c-.04-.35-.09-.69-.13-1.07-.51,.31-.49,.59,.13,1.07Zm-2.29-7.44s.07-.09,.11-.13c-.47-.38-.93-.76-1.4-1.13-.04,.04-.07,.09-.11,.13,.46,.38,.93,.76,1.39,1.13Zm-2.9,8.12c-.61-.19-1.27-.4-2-.63,.67,.49,1.32,.78,2,.63Zm-7.83-.92c.42-.19,.79-.35,1.26-.56-.78-.06-1.24,.14-1.26,.56Z"/>
      <path d="M34.73,66.24c.05,.13,.14,.26,.15,.4,.06,1.72,.12,3.44,.17,5.16,0,.04,0,.08-.07,.13-.17-1.88-.56-3.75-.41-5.65,.05,0,.11-.02,.16-.03Z"/>
      <path d="M34.19,71.41c-.1-1.56-.2-3.12-.28-4.68,0-.16,.09-.32,.14-.49,.05,0,.11,.01,.16,.02v5.15s-.01,0-.02,0Z"/>
      <path d="M33.15,70.12c.03-.57,.06-1.14,.08-1.71,.01-.66,0-1.31,.08-2.06,.11,.11,.31,.22,.3,.32-.08,1.06-.19,2.11-.31,3.16-.01,.1-.1,.19-.15,.28h0Z"/>
      <path d="M33.15,70.11v2.22s-.1,0-.14,0c-.15-.74,.02-1.48,.14-2.21,0,0,0,0,0,0Z"/>
      <path d="M11.3,41.81c-.36-.06-.72-.12-1.08-.18,.01-.06,.02-.11,.03-.17,.36,.08,.73,.15,1.09,.23-.01,.04-.02,.08-.04,.12Z"/>
    </g>
  </g>
</svg>